<svg xmlns="http://www.w3.org/2000/svg" width="370" height="370" viewBox="0 0 370 370"><desc>https://www.aptika.com/</desc><title>Aptika - FREE QR Code Generator</title><path d="M0 0h10v10H0zM10 0h10v10H10zM20 0h10v10H20zM30 0h10v10H30zM40 0h10v10H40zM50 0h10v10H50zM60 0h10v10H60zM110 0h10v10h-10zM130 0h10v10h-10zM170 0h10v10h-10zM180 0h10v10h-10zM200 0h10v10h-10zM210 0h10v10h-10zM220 0h10v10h-10zM240 0h10v10h-10zM250 0h10v10h-10zM260 0h10v10h-10zM270 0h10v10h-10zM280 0h10v10h-10zM300 0h10v10h-10zM310 0h10v10h-10zM320 0h10v10h-10zM330 0h10v10h-10zM340 0h10v10h-10zM350 0h10v10h-10zM360 0h10v10h-10zM0 10h10v10H0zM60 10h10v10H60zM90 10h10v10H90zM100 10h10v10h-10zM130 10h10v10h-10zM140 10h10v10h-10zM160 10h10v10h-10zM170 10h10v10h-10zM210 10h10v10h-10zM220 10h10v10h-10zM260 10h10v10h-10zM280 10h10v10h-10zM300 10h10v10h-10zM360 10h10v10h-10zM0 20h10v10H0zM20 20h10v10H20zM30 20h10v10H30zM40 20h10v10H40zM60 20h10v10H60zM80 20h10v10H80zM90 20h10v10H90zM120 20h10v10h-10zM140 20h10v10h-10zM180 20h10v10h-10zM190 20h10v10h-10zM200 20h10v10h-10zM210 20h10v10h-10zM220 20h10v10h-10zM230 20h10v10h-10zM280 20h10v10h-10zM300 20h10v10h-10zM320 20h10v10h-10zM330 20h10v10h-10zM340 20h10v10h-10zM360 20h10v10h-10zM0 30h10v10H0zM20 30h10v10H20zM30 30h10v10H30zM40 30h10v10H40zM60 30h10v10H60zM100 30h10v10h-10zM110 30h10v10h-10zM140 30h10v10h-10zM170 30h10v10h-10zM190 30h10v10h-10zM230 30h10v10h-10zM240 30h10v10h-10zM250 30h10v10h-10zM260 30h10v10h-10zM270 30h10v10h-10zM280 30h10v10h-10zM300 30h10v10h-10zM320 30h10v10h-10zM330 30h10v10h-10zM340 30h10v10h-10zM360 30h10v10h-10zM0 40h10v10H0zM20 40h10v10H20zM30 40h10v10H30zM40 40h10v10H40zM60 40h10v10H60zM80 40h10v10H80zM90 40h10v10H90zM150 40h10v10h-10zM180 40h10v10h-10zM210 40h10v10h-10zM230 40h10v10h-10zM250 40h10v10h-10zM260 40h10v10h-10zM270 40h10v10h-10zM300 40h10v10h-10zM320 40h10v10h-10zM330 40h10v10h-10zM340 40h10v10h-10zM360 40h10v10h-10zM0 50h10v10H0zM60 50h10v10H60zM80 50h10v10H80zM120 50h10v10h-10zM130 50h10v10h-10zM140 50h10v10h-10zM160 50h10v10h-10zM200 50h10v10h-10zM210 50h10v10h-10zM220 50h10v10h-10zM240 50h10v10h-10zM250 50h10v10h-10zM260 50h10v10h-10zM280 50h10v10h-10zM300 50h10v10h-10zM360 50h10v10h-10zM0 60h10v10H0zM10 60h10v10H10zM20 60h10v10H20zM30 60h10v10H30zM40 60h10v10H40zM50 60h10v10H50zM60 60h10v10H60zM80 60h10v10H80zM100 60h10v10h-10zM120 60h10v10h-10zM140 60h10v10h-10zM160 60h10v10h-10zM180 60h10v10h-10zM200 60h10v10h-10zM220 60h10v10h-10zM240 60h10v10h-10zM260 60h10v10h-10zM280 60h10v10h-10zM300 60h10v10h-10zM310 60h10v10h-10zM320 60h10v10h-10zM330 60h10v10h-10zM340 60h10v10h-10zM350 60h10v10h-10zM360 60h10v10h-10zM90 70h10v10H90zM100 70h10v10h-10zM120 70h10v10h-10zM160 70h10v10h-10zM170 70h10v10h-10zM210 70h10v10h-10zM230 70h10v10h-10zM240 70h10v10h-10zM260 70h10v10h-10zM10 80h10v10H10zM40 80h10v10H40zM60 80h10v10H60zM80 80h10v10H80zM120 80h10v10h-10zM160 80h10v10h-10zM170 80h10v10h-10zM200 80h10v10h-10zM210 80h10v10h-10zM220 80h10v10h-10zM240 80h10v10h-10zM250 80h10v10h-10zM260 80h10v10h-10zM270 80h10v10h-10zM290 80h10v10h-10zM310 80h10v10h-10zM320 80h10v10h-10zM340 80h10v10h-10zM0 90h10v10H0zM10 90h10v10H10zM20 90h10v10H20zM50 90h10v10H50zM70 90h10v10H70zM90 90h10v10H90zM110 90h10v10h-10zM140 90h10v10h-10zM190 90h10v10h-10zM200 90h10v10h-10zM230 90h10v10h-10zM280 90h10v10h-10zM290 90h10v10h-10zM300 90h10v10h-10zM310 90h10v10h-10zM320 90h10v10h-10zM50 100h10v10H50zM60 100h10v10H60zM110 100h10v10h-10zM130 100h10v10h-10zM150 100h10v10h-10zM190 100h10v10h-10zM200 100h10v10h-10zM230 100h10v10h-10zM240 100h10v10h-10zM250 100h10v10h-10zM260 100h10v10h-10zM280 100h10v10h-10zM290 100h10v10h-10zM310 100h10v10h-10zM330 100h10v10h-10zM0 110h10v10H0zM10 110h10v10H10zM20 110h10v10H20zM30 110h10v10H30zM40 110h10v10H40zM90 110h10v10H90zM110 110h10v10h-10zM150 110h10v10h-10zM170 110h10v10h-10zM180 110h10v10h-10zM190 110h10v10h-10zM200 110h10v10h-10zM210 110h10v10h-10zM220 110h10v10h-10zM260 110h10v10h-10zM290 110h10v10h-10zM340 110h10v10h-10zM0 120h10v10H0zM60 120h10v10H60zM90 120h10v10H90zM110 120h10v10h-10zM120 120h10v10h-10zM140 120h10v10h-10zM160 120h10v10h-10zM170 120h10v10h-10zM180 120h10v10h-10zM190 120h10v10h-10zM210 120h10v10h-10zM220 120h10v10h-10zM240 120h10v10h-10zM270 120h10v10h-10zM280 120h10v10h-10zM290 120h10v10h-10zM300 120h10v10h-10zM330 120h10v10h-10zM340 120h10v10h-10zM360 120h10v10h-10zM50 130h10v10H50zM70 130h10v10H70zM80 130h10v10H80zM100 130h10v10h-10zM110 130h10v10h-10zM120 130h10v10h-10zM130 130h10v10h-10zM170 130h10v10h-10zM180 130h10v10h-10zM210 130h10v10h-10zM230 130h10v10h-10zM240 130h10v10h-10zM270 130h10v10h-10zM280 130h10v10h-10zM290 130h10v10h-10zM320 130h10v10h-10zM340 130h10v10h-10zM20 140h10v10H20zM30 140h10v10H30zM50 140h10v10H50zM60 140h10v10H60zM80 140h10v10H80zM120 140h10v10h-10zM140 140h10v10h-10zM170 140h10v10h-10zM180 140h10v10h-10zM200 140h10v10h-10zM230 140h10v10h-10zM240 140h10v10h-10zM250 140h10v10h-10zM260 140h10v10h-10zM270 140h10v10h-10zM290 140h10v10h-10zM300 140h10v10h-10zM310 140h10v10h-10zM320 140h10v10h-10zM330 140h10v10h-10zM340 140h10v10h-10zM0 150h10v10H0zM50 150h10v10H50zM80 150h10v10H80zM90 150h10v10H90zM110 150h10v10h-10zM120 150h10v10h-10zM140 150h10v10h-10zM150 150h10v10h-10zM170 150h10v10h-10zM180 150h10v10h-10zM220 150h10v10h-10zM240 150h10v10h-10zM260 150h10v10h-10zM270 150h10v10h-10zM280 150h10v10h-10zM310 150h10v10h-10zM320 150h10v10h-10zM340 150h10v10h-10zM350 150h10v10h-10zM360 150h10v10h-10zM0 160h10v10H0zM10 160h10v10H10zM30 160h10v10H30zM40 160h10v10H40zM50 160h10v10H50zM60 160h10v10H60zM80 160h10v10H80zM120 160h10v10h-10zM150 160h10v10h-10zM180 160h10v10h-10zM190 160h10v10h-10zM220 160h10v10h-10zM240 160h10v10h-10zM270 160h10v10h-10zM290 160h10v10h-10zM300 160h10v10h-10zM310 160h10v10h-10zM330 160h10v10h-10zM340 160h10v10h-10zM350 160h10v10h-10zM0 170h10v10H0zM10 170h10v10H10zM20 170h10v10H20zM40 170h10v10H40zM70 170h10v10H70zM80 170h10v10H80zM90 170h10v10H90zM100 170h10v10h-10zM110 170h10v10h-10zM140 170h10v10h-10zM150 170h10v10h-10zM180 170h10v10h-10zM190 170h10v10h-10zM200 170h10v10h-10zM210 170h10v10h-10zM250 170h10v10h-10zM260 170h10v10h-10zM270 170h10v10h-10zM280 170h10v10h-10zM320 170h10v10h-10zM340 170h10v10h-10zM40 180h10v10H40zM60 180h10v10H60zM70 180h10v10H70zM80 180h10v10H80zM110 180h10v10h-10zM150 180h10v10h-10zM170 180h10v10h-10zM190 180h10v10h-10zM210 180h10v10h-10zM270 180h10v10h-10zM280 180h10v10h-10zM40 190h10v10H40zM70 190h10v10H70zM80 190h10v10H80zM100 190h10v10h-10zM110 190h10v10h-10zM160 190h10v10h-10zM180 190h10v10h-10zM200 190h10v10h-10zM210 190h10v10h-10zM220 190h10v10h-10zM240 190h10v10h-10zM260 190h10v10h-10zM290 190h10v10h-10zM300 190h10v10h-10zM310 190h10v10h-10zM340 190h10v10h-10zM360 190h10v10h-10zM10 200h10v10H10zM50 200h10v10H50zM60 200h10v10H60zM80 200h10v10H80zM90 200h10v10H90zM100 200h10v10h-10zM110 200h10v10h-10zM120 200h10v10h-10zM150 200h10v10h-10zM180 200h10v10h-10zM190 200h10v10h-10zM210 200h10v10h-10zM220 200h10v10h-10zM230 200h10v10h-10zM240 200h10v10h-10zM260 200h10v10h-10zM270 200h10v10h-10zM290 200h10v10h-10zM300 200h10v10h-10zM340 200h10v10h-10zM350 200h10v10h-10zM10 210h10v10H10zM20 210h10v10H20zM40 210h10v10H40zM80 210h10v10H80zM90 210h10v10H90zM100 210h10v10h-10zM120 210h10v10h-10zM140 210h10v10h-10zM170 210h10v10h-10zM180 210h10v10h-10zM210 210h10v10h-10zM230 210h10v10h-10zM260 210h10v10h-10zM270 210h10v10h-10zM320 210h10v10h-10zM330 210h10v10h-10zM340 210h10v10h-10zM350 210h10v10h-10zM0 220h10v10H0zM30 220h10v10H30zM40 220h10v10H40zM60 220h10v10H60zM70 220h10v10H70zM90 220h10v10H90zM110 220h10v10h-10zM150 220h10v10h-10zM190 220h10v10h-10zM200 220h10v10h-10zM210 220h10v10h-10zM230 220h10v10h-10zM240 220h10v10h-10zM250 220h10v10h-10zM260 220h10v10h-10zM270 220h10v10h-10zM280 220h10v10h-10zM300 220h10v10h-10zM330 220h10v10h-10zM0 230h10v10H0zM20 230h10v10H20zM30 230h10v10H30zM70 230h10v10H70zM100 230h10v10h-10zM120 230h10v10h-10zM130 230h10v10h-10zM140 230h10v10h-10zM170 230h10v10h-10zM180 230h10v10h-10zM210 230h10v10h-10zM230 230h10v10h-10zM250 230h10v10h-10zM280 230h10v10h-10zM290 230h10v10h-10zM300 230h10v10h-10zM310 230h10v10h-10zM340 230h10v10h-10zM360 230h10v10h-10zM40 240h10v10H40zM60 240h10v10H60zM70 240h10v10H70zM80 240h10v10H80zM90 240h10v10H90zM100 240h10v10h-10zM120 240h10v10h-10zM130 240h10v10h-10zM140 240h10v10h-10zM160 240h10v10h-10zM180 240h10v10h-10zM210 240h10v10h-10zM220 240h10v10h-10zM240 240h10v10h-10zM250 240h10v10h-10zM270 240h10v10h-10zM280 240h10v10h-10zM290 240h10v10h-10zM310 240h10v10h-10zM320 240h10v10h-10zM330 240h10v10h-10zM340 240h10v10h-10zM350 240h10v10h-10zM0 250h10v10H0zM10 250h10v10H10zM30 250h10v10H30zM40 250h10v10H40zM50 250h10v10H50zM70 250h10v10H70zM80 250h10v10H80zM90 250h10v10H90zM110 250h10v10h-10zM120 250h10v10h-10zM130 250h10v10h-10zM140 250h10v10h-10zM160 250h10v10h-10zM190 250h10v10h-10zM210 250h10v10h-10zM220 250h10v10h-10zM230 250h10v10h-10zM250 250h10v10h-10zM260 250h10v10h-10zM300 250h10v10h-10zM340 250h10v10h-10zM60 260h10v10H60zM100 260h10v10h-10zM110 260h10v10h-10zM150 260h10v10h-10zM170 260h10v10h-10zM180 260h10v10h-10zM210 260h10v10h-10zM220 260h10v10h-10zM230 260h10v10h-10zM240 260h10v10h-10zM250 260h10v10h-10zM260 260h10v10h-10zM270 260h10v10h-10zM290 260h10v10h-10zM320 260h10v10h-10zM340 260h10v10h-10zM30 270h10v10H30zM40 270h10v10H40zM70 270h10v10H70zM90 270h10v10H90zM110 270h10v10h-10zM120 270h10v10h-10zM130 270h10v10h-10zM140 270h10v10h-10zM150 270h10v10h-10zM160 270h10v10h-10zM210 270h10v10h-10zM240 270h10v10h-10zM260 270h10v10h-10zM270 270h10v10h-10zM280 270h10v10h-10zM300 270h10v10h-10zM310 270h10v10h-10zM320 270h10v10h-10zM330 270h10v10h-10zM340 270h10v10h-10zM350 270h10v10h-10zM0 280h10v10H0zM10 280h10v10H10zM30 280h10v10H30zM60 280h10v10H60zM90 280h10v10H90zM120 280h10v10h-10zM140 280h10v10h-10zM160 280h10v10h-10zM170 280h10v10h-10zM180 280h10v10h-10zM210 280h10v10h-10zM220 280h10v10h-10zM230 280h10v10h-10zM280 280h10v10h-10zM290 280h10v10h-10zM300 280h10v10h-10zM310 280h10v10h-10zM320 280h10v10h-10zM360 280h10v10h-10zM80 290h10v10H80zM120 290h10v10h-10zM140 290h10v10h-10zM150 290h10v10h-10zM160 290h10v10h-10zM180 290h10v10h-10zM200 290h10v10h-10zM220 290h10v10h-10zM230 290h10v10h-10zM280 290h10v10h-10zM320 290h10v10h-10zM330 290h10v10h-10zM0 300h10v10H0zM10 300h10v10H10zM20 300h10v10H20zM30 300h10v10H30zM40 300h10v10H40zM50 300h10v10H50zM60 300h10v10H60zM90 300h10v10H90zM100 300h10v10h-10zM120 300h10v10h-10zM140 300h10v10h-10zM170 300h10v10h-10zM190 300h10v10h-10zM210 300h10v10h-10zM220 300h10v10h-10zM230 300h10v10h-10zM240 300h10v10h-10zM260 300h10v10h-10zM280 300h10v10h-10zM300 300h10v10h-10zM320 300h10v10h-10zM330 300h10v10h-10zM340 300h10v10h-10zM0 310h10v10H0zM60 310h10v10H60zM100 310h10v10h-10zM150 310h10v10h-10zM210 310h10v10h-10zM240 310h10v10h-10zM260 310h10v10h-10zM280 310h10v10h-10zM320 310h10v10h-10zM340 310h10v10h-10zM0 320h10v10H0zM20 320h10v10H20zM30 320h10v10H30zM40 320h10v10H40zM60 320h10v10H60zM80 320h10v10H80zM90 320h10v10H90zM100 320h10v10h-10zM130 320h10v10h-10zM150 320h10v10h-10zM160 320h10v10h-10zM170 320h10v10h-10zM180 320h10v10h-10zM190 320h10v10h-10zM200 320h10v10h-10zM260 320h10v10h-10zM280 320h10v10h-10zM290 320h10v10h-10zM300 320h10v10h-10zM310 320h10v10h-10zM320 320h10v10h-10zM330 320h10v10h-10zM340 320h10v10h-10zM0 330h10v10H0zM20 330h10v10H20zM30 330h10v10H30zM40 330h10v10H40zM60 330h10v10H60zM110 330h10v10h-10zM170 330h10v10h-10zM190 330h10v10h-10zM220 330h10v10h-10zM240 330h10v10h-10zM260 330h10v10h-10zM270 330h10v10h-10zM300 330h10v10h-10zM310 330h10v10h-10zM330 330h10v10h-10zM0 340h10v10H0zM20 340h10v10H20zM30 340h10v10H30zM40 340h10v10H40zM60 340h10v10H60zM90 340h10v10H90zM150 340h10v10h-10zM160 340h10v10h-10zM180 340h10v10h-10zM190 340h10v10h-10zM220 340h10v10h-10zM230 340h10v10h-10zM240 340h10v10h-10zM260 340h10v10h-10zM270 340h10v10h-10zM280 340h10v10h-10zM300 340h10v10h-10zM340 340h10v10h-10zM350 340h10v10h-10zM0 350h10v10H0zM60 350h10v10H60zM80 350h10v10H80zM90 350h10v10H90zM110 350h10v10h-10zM120 350h10v10h-10zM130 350h10v10h-10zM140 350h10v10h-10zM150 350h10v10h-10zM170 350h10v10h-10zM190 350h10v10h-10zM200 350h10v10h-10zM210 350h10v10h-10zM230 350h10v10h-10zM260 350h10v10h-10zM270 350h10v10h-10zM300 350h10v10h-10zM310 350h10v10h-10zM340 350h10v10h-10zM350 350h10v10h-10zM0 360h10v10H0zM10 360h10v10H10zM20 360h10v10H20zM30 360h10v10H30zM40 360h10v10H40zM50 360h10v10H50zM60 360h10v10H60zM90 360h10v10H90zM100 360h10v10h-10zM120 360h10v10h-10zM140 360h10v10h-10zM200 360h10v10h-10zM210 360h10v10h-10zM220 360h10v10h-10zM240 360h10v10h-10zM310 360h10v10h-10zM340 360h10v10h-10zM350 360h10v10h-10zM360 360h10v10h-10z"/></svg>