<svg xmlns="http://www.w3.org/2000/svg" width="85mm" height="55mm" viewBox="0 0 85 55"><style>text{font-family:-apple-system,system-ui,&quot;Public Sans&quot;,sans-serif;fill:#2b4e5a}</style><path fill="#fff" d="M0 0h85v55H0z"/><text x="22.5" y="18" font-size="4.2" font-weight="500" letter-spacing=".2">
    Dr. Raphael Heeb
  </text><text x="22.5" y="24" font-size="3.4">
    Founder &amp; Managing Partner
  </text><text x="22.5" y="34" font-size="3">+41 76 463 06 83</text><text x="22.5" y="38" font-size="3">raphael.heeb@vaira.ch</text><text x="22.5" y="42" font-size="3" letter-spacing=".3">www.vaira.ch</text><g id="qr" transform="translate(62.7 29)"><rect width="15" height="15" fill="#fff" stroke="#2b4e5a" stroke-width=".6" rx="1.6" ry="1.6"/><g transform="translate(1.25 1.25)"><g id="qr-content" fill="#2b4e5a" transform="scale(.0338)"><g id="elements" fill="#000" stroke="none"><path d="M0 0h10v10H0zM10 0h10v10H10zM20 0h10v10H20zM30 0h10v10H30zM40 0h10v10H40zM50 0h10v10H50zM60 0h10v10H60zM80 0h10v10H80zM90 0h10v10H90zM130 0h10v10h-10zM150 0h10v10h-10zM160 0h10v10h-10zM190 0h10v10h-10zM200 0h10v10h-10zM220 0h10v10h-10zM230 0h10v10h-10zM250 0h10v10h-10zM260 0h10v10h-10zM300 0h10v10h-10zM310 0h10v10h-10zM320 0h10v10h-10zM330 0h10v10h-10zM340 0h10v10h-10zM350 0h10v10h-10zM360 0h10v10h-10zM0 10h10v10H0zM60 10h10v10H60zM80 10h10v10H80zM90 10h10v10H90zM100 10h10v10h-10zM130 10h10v10h-10zM160 10h10v10h-10zM180 10h10v10h-10zM190 10h10v10h-10zM210 10h10v10h-10zM220 10h10v10h-10zM230 10h10v10h-10zM240 10h10v10h-10zM250 10h10v10h-10zM280 10h10v10h-10zM300 10h10v10h-10zM360 10h10v10h-10zM0 20h10v10H0zM20 20h10v10H20zM30 20h10v10H30zM40 20h10v10H40zM60 20h10v10H60zM100 20h10v10h-10zM110 20h10v10h-10zM140 20h10v10h-10zM160 20h10v10h-10zM180 20h10v10h-10zM190 20h10v10h-10zM200 20h10v10h-10zM210 20h10v10h-10zM230 20h10v10h-10zM300 20h10v10h-10zM320 20h10v10h-10zM330 20h10v10h-10zM340 20h10v10h-10zM360 20h10v10h-10zM0 30h10v10H0zM20 30h10v10H20zM30 30h10v10H30zM40 30h10v10H40zM60 30h10v10H60zM100 30h10v10h-10zM110 30h10v10h-10zM120 30h10v10h-10zM150 30h10v10h-10zM160 30h10v10h-10zM170 30h10v10h-10zM190 30h10v10h-10zM210 30h10v10h-10zM230 30h10v10h-10zM240 30h10v10h-10zM250 30h10v10h-10zM280 30h10v10h-10zM300 30h10v10h-10zM320 30h10v10h-10zM330 30h10v10h-10zM340 30h10v10h-10zM360 30h10v10h-10zM0 40h10v10H0zM20 40h10v10H20zM30 40h10v10H30zM40 40h10v10H40zM60 40h10v10H60zM100 40h10v10h-10zM130 40h10v10h-10zM140 40h10v10h-10zM160 40h10v10h-10zM200 40h10v10h-10zM230 40h10v10h-10zM250 40h10v10h-10zM300 40h10v10h-10zM320 40h10v10h-10zM330 40h10v10h-10zM340 40h10v10h-10zM360 40h10v10h-10zM0 50h10v10H0zM60 50h10v10H60zM110 50h10v10h-10zM130 50h10v10h-10zM140 50h10v10h-10zM150 50h10v10h-10zM160 50h10v10h-10zM200 50h10v10h-10zM210 50h10v10h-10zM220 50h10v10h-10zM250 50h10v10h-10zM260 50h10v10h-10zM280 50h10v10h-10zM300 50h10v10h-10zM360 50h10v10h-10zM0 60h10v10H0zM10 60h10v10H10zM20 60h10v10H20zM30 60h10v10H30zM40 60h10v10H40zM50 60h10v10H50zM60 60h10v10H60zM80 60h10v10H80zM100 60h10v10h-10zM120 60h10v10h-10zM140 60h10v10h-10zM160 60h10v10h-10zM180 60h10v10h-10zM200 60h10v10h-10zM220 60h10v10h-10zM240 60h10v10h-10zM260 60h10v10h-10zM280 60h10v10h-10zM300 60h10v10h-10zM310 60h10v10h-10zM320 60h10v10h-10zM330 60h10v10h-10zM340 60h10v10h-10zM350 60h10v10h-10zM360 60h10v10h-10zM140 70h10v10h-10zM180 70h10v10h-10zM220 70h10v10h-10zM250 70h10v10h-10zM270 70h10v10h-10zM280 70h10v10h-10zM10 80h10v10H10zM60 80h10v10H60zM70 80h10v10H70zM80 80h10v10H80zM90 80h10v10H90zM110 80h10v10h-10zM120 80h10v10h-10zM130 80h10v10h-10zM150 80h10v10h-10zM160 80h10v10h-10zM170 80h10v10h-10zM220 80h10v10h-10zM240 80h10v10h-10zM260 80h10v10h-10zM280 80h10v10h-10zM290 80h10v10h-10zM350 80h10v10h-10zM360 80h10v10h-10zM20 90h10v10H20zM50 90h10v10H50zM100 90h10v10h-10zM110 90h10v10h-10zM130 90h10v10h-10zM150 90h10v10h-10zM170 90h10v10h-10zM200 90h10v10h-10zM220 90h10v10h-10zM230 90h10v10h-10zM250 90h10v10h-10zM260 90h10v10h-10zM280 90h10v10h-10zM320 90h10v10h-10zM330 90h10v10h-10zM0 100h10v10H0zM10 100h10v10H10zM30 100h10v10H30zM40 100h10v10H40zM50 100h10v10H50zM60 100h10v10H60zM120 100h10v10h-10zM150 100h10v10h-10zM160 100h10v10h-10zM180 100h10v10h-10zM190 100h10v10h-10zM200 100h10v10h-10zM250 100h10v10h-10zM260 100h10v10h-10zM270 100h10v10h-10zM280 100h10v10h-10zM300 100h10v10h-10zM310 100h10v10h-10zM330 100h10v10h-10zM350 100h10v10h-10zM360 100h10v10h-10zM30 110h10v10H30zM50 110h10v10H50zM100 110h10v10h-10zM120 110h10v10h-10zM140 110h10v10h-10zM150 110h10v10h-10zM160 110h10v10h-10zM170 110h10v10h-10zM180 110h10v10h-10zM190 110h10v10h-10zM200 110h10v10h-10zM220 110h10v10h-10zM230 110h10v10h-10zM240 110h10v10h-10zM260 110h10v10h-10zM300 110h10v10h-10zM320 110h10v10h-10zM330 110h10v10h-10zM350 110h10v10h-10zM360 110h10v10h-10zM10 120h10v10H10zM20 120h10v10H20zM30 120h10v10H30zM40 120h10v10H40zM60 120h10v10H60zM80 120h10v10H80zM100 120h10v10h-10zM160 120h10v10h-10zM190 120h10v10h-10zM200 120h10v10h-10zM230 120h10v10h-10zM240 120h10v10h-10zM270 120h10v10h-10zM300 120h10v10h-10zM330 120h10v10h-10zM350 120h10v10h-10zM360 120h10v10h-10zM30 130h10v10H30zM40 130h10v10H40zM50 130h10v10H50zM110 130h10v10h-10zM150 130h10v10h-10zM160 130h10v10h-10zM170 130h10v10h-10zM180 130h10v10h-10zM190 130h10v10h-10zM230 130h10v10h-10zM240 130h10v10h-10zM250 130h10v10h-10zM260 130h10v10h-10zM270 130h10v10h-10zM280 130h10v10h-10zM290 130h10v10h-10zM310 130h10v10h-10zM340 130h10v10h-10zM0 140h10v10H0zM30 140h10v10H30zM40 140h10v10H40zM60 140h10v10H60zM70 140h10v10H70zM100 140h10v10h-10zM140 140h10v10h-10zM150 140h10v10h-10zM160 140h10v10h-10zM190 140h10v10h-10zM200 140h10v10h-10zM210 140h10v10h-10zM250 140h10v10h-10zM260 140h10v10h-10zM270 140h10v10h-10zM280 140h10v10h-10zM310 140h10v10h-10zM320 140h10v10h-10zM330 140h10v10h-10zM350 140h10v10h-10zM360 140h10v10h-10zM20 150h10v10H20zM30 150h10v10H30zM80 150h10v10H80zM90 150h10v10H90zM110 150h10v10h-10zM120 150h10v10h-10zM150 150h10v10h-10zM180 150h10v10h-10zM190 150h10v10h-10zM230 150h10v10h-10zM280 150h10v10h-10zM290 150h10v10h-10zM300 150h10v10h-10zM310 150h10v10h-10zM330 150h10v10h-10zM340 150h10v10h-10zM0 160h10v10H0zM60 160h10v10H60zM70 160h10v10H70zM80 160h10v10H80zM90 160h10v10H90zM100 160h10v10h-10zM120 160h10v10h-10zM130 160h10v10h-10zM140 160h10v10h-10zM150 160h10v10h-10zM170 160h10v10h-10zM190 160h10v10h-10zM200 160h10v10h-10zM210 160h10v10h-10zM250 160h10v10h-10zM260 160h10v10h-10zM290 160h10v10h-10zM300 160h10v10h-10zM320 160h10v10h-10zM340 160h10v10h-10zM350 160h10v10h-10zM0 170h10v10H0zM80 170h10v10H80zM90 170h10v10H90zM130 170h10v10h-10zM150 170h10v10h-10zM210 170h10v10h-10zM220 170h10v10h-10zM240 170h10v10h-10zM270 170h10v10h-10zM280 170h10v10h-10zM310 170h10v10h-10zM340 170h10v10h-10zM0 180h10v10H0zM20 180h10v10H20zM50 180h10v10H50zM60 180h10v10H60zM120 180h10v10h-10zM130 180h10v10h-10zM140 180h10v10h-10zM150 180h10v10h-10zM170 180h10v10h-10zM190 180h10v10h-10zM210 180h10v10h-10zM230 180h10v10h-10zM250 180h10v10h-10zM260 180h10v10h-10zM270 180h10v10h-10zM280 180h10v10h-10zM300 180h10v10h-10zM310 180h10v10h-10zM320 180h10v10h-10zM360 180h10v10h-10zM30 190h10v10H30zM40 190h10v10H40zM50 190h10v10H50zM70 190h10v10H70zM100 190h10v10h-10zM150 190h10v10h-10zM170 190h10v10h-10zM240 190h10v10h-10zM260 190h10v10h-10zM270 190h10v10h-10zM280 190h10v10h-10zM310 190h10v10h-10zM330 190h10v10h-10zM0 200h10v10H0zM20 200h10v10H20zM60 200h10v10H60zM90 200h10v10H90zM130 200h10v10h-10zM160 200h10v10h-10zM190 200h10v10h-10zM200 200h10v10h-10zM220 200h10v10h-10zM240 200h10v10h-10zM250 200h10v10h-10zM290 200h10v10h-10zM300 200h10v10h-10zM310 200h10v10h-10zM320 200h10v10h-10zM330 200h10v10h-10zM340 200h10v10h-10zM360 200h10v10h-10zM10 210h10v10H10zM20 210h10v10H20zM50 210h10v10H50zM80 210h10v10H80zM90 210h10v10H90zM100 210h10v10h-10zM130 210h10v10h-10zM150 210h10v10h-10zM170 210h10v10h-10zM180 210h10v10h-10zM210 210h10v10h-10zM220 210h10v10h-10zM230 210h10v10h-10zM260 210h10v10h-10zM270 210h10v10h-10zM280 210h10v10h-10zM310 210h10v10h-10zM320 210h10v10h-10zM330 210h10v10h-10zM50 220h10v10H50zM60 220h10v10H60zM90 220h10v10H90zM100 220h10v10h-10zM160 220h10v10h-10zM170 220h10v10h-10zM180 220h10v10h-10zM190 220h10v10h-10zM200 220h10v10h-10zM210 220h10v10h-10zM220 220h10v10h-10zM240 220h10v10h-10zM270 220h10v10h-10zM290 220h10v10h-10zM330 220h10v10h-10zM340 220h10v10h-10zM350 220h10v10h-10zM360 220h10v10h-10zM0 230h10v10H0zM20 230h10v10H20zM30 230h10v10H30zM40 230h10v10H40zM50 230h10v10H50zM70 230h10v10H70zM90 230h10v10H90zM120 230h10v10h-10zM190 230h10v10h-10zM220 230h10v10h-10zM260 230h10v10h-10zM270 230h10v10h-10zM290 230h10v10h-10zM310 230h10v10h-10zM330 230h10v10h-10zM350 230h10v10h-10zM0 240h10v10H0zM20 240h10v10H20zM30 240h10v10H30zM50 240h10v10H50zM60 240h10v10H60zM80 240h10v10H80zM110 240h10v10h-10zM120 240h10v10h-10zM130 240h10v10h-10zM140 240h10v10h-10zM160 240h10v10h-10zM170 240h10v10h-10zM180 240h10v10h-10zM230 240h10v10h-10zM240 240h10v10h-10zM250 240h10v10h-10zM260 240h10v10h-10zM280 240h10v10h-10zM290 240h10v10h-10zM300 240h10v10h-10zM0 250h10v10H0zM20 250h10v10H20zM30 250h10v10H30zM40 250h10v10H40zM50 250h10v10H50zM90 250h10v10H90zM110 250h10v10h-10zM120 250h10v10h-10zM140 250h10v10h-10zM170 250h10v10h-10zM200 250h10v10h-10zM210 250h10v10h-10zM220 250h10v10h-10zM230 250h10v10h-10zM260 250h10v10h-10zM280 250h10v10h-10zM300 250h10v10h-10zM310 250h10v10h-10zM330 250h10v10h-10zM340 250h10v10h-10zM0 260h10v10H0zM50 260h10v10H50zM60 260h10v10H60zM90 260h10v10H90zM100 260h10v10h-10zM120 260h10v10h-10zM170 260h10v10h-10zM210 260h10v10h-10zM250 260h10v10h-10zM260 260h10v10h-10zM300 260h10v10h-10zM310 260h10v10h-10zM320 260h10v10h-10zM340 260h10v10h-10zM350 260h10v10h-10zM360 260h10v10h-10zM0 270h10v10H0zM20 270h10v10H20zM30 270h10v10H30zM50 270h10v10H50zM70 270h10v10H70zM80 270h10v10H80zM100 270h10v10h-10zM150 270h10v10h-10zM170 270h10v10h-10zM200 270h10v10h-10zM220 270h10v10h-10zM230 270h10v10h-10zM270 270h10v10h-10zM290 270h10v10h-10zM310 270h10v10h-10zM320 270h10v10h-10zM330 270h10v10h-10zM340 270h10v10h-10zM360 270h10v10h-10zM0 280h10v10H0zM20 280h10v10H20zM60 280h10v10H60zM70 280h10v10H70zM130 280h10v10h-10zM150 280h10v10h-10zM160 280h10v10h-10zM190 280h10v10h-10zM220 280h10v10h-10zM230 280h10v10h-10zM250 280h10v10h-10zM260 280h10v10h-10zM280 280h10v10h-10zM290 280h10v10h-10zM300 280h10v10h-10zM310 280h10v10h-10zM320 280h10v10h-10zM330 280h10v10h-10zM340 280h10v10h-10zM360 280h10v10h-10zM80 290h10v10H80zM90 290h10v10H90zM100 290h10v10h-10zM120 290h10v10h-10zM130 290h10v10h-10zM150 290h10v10h-10zM160 290h10v10h-10zM180 290h10v10h-10zM190 290h10v10h-10zM210 290h10v10h-10zM230 290h10v10h-10zM250 290h10v10h-10zM260 290h10v10h-10zM280 290h10v10h-10zM320 290h10v10h-10zM330 290h10v10h-10zM0 300h10v10H0zM10 300h10v10H10zM20 300h10v10H20zM30 300h10v10H30zM40 300h10v10H40zM50 300h10v10H50zM60 300h10v10H60zM80 300h10v10H80zM110 300h10v10h-10zM130 300h10v10h-10zM190 300h10v10h-10zM200 300h10v10h-10zM230 300h10v10h-10zM250 300h10v10h-10zM280 300h10v10h-10zM300 300h10v10h-10zM320 300h10v10h-10zM330 300h10v10h-10zM340 300h10v10h-10zM360 300h10v10h-10zM0 310h10v10H0zM60 310h10v10H60zM100 310h10v10h-10zM150 310h10v10h-10zM200 310h10v10h-10zM210 310h10v10h-10zM230 310h10v10h-10zM260 310h10v10h-10zM270 310h10v10h-10zM280 310h10v10h-10zM320 310h10v10h-10zM330 310h10v10h-10zM350 310h10v10h-10zM360 310h10v10h-10zM0 320h10v10H0zM20 320h10v10H20zM30 320h10v10H30zM40 320h10v10H40zM60 320h10v10H60zM90 320h10v10H90zM110 320h10v10h-10zM120 320h10v10h-10zM140 320h10v10h-10zM160 320h10v10h-10zM170 320h10v10h-10zM180 320h10v10h-10zM190 320h10v10h-10zM200 320h10v10h-10zM210 320h10v10h-10zM220 320h10v10h-10zM240 320h10v10h-10zM250 320h10v10h-10zM270 320h10v10h-10zM280 320h10v10h-10zM290 320h10v10h-10zM300 320h10v10h-10zM310 320h10v10h-10zM320 320h10v10h-10zM340 320h10v10h-10zM0 330h10v10H0zM20 330h10v10H20zM30 330h10v10H30zM40 330h10v10H40zM60 330h10v10H60zM100 330h10v10h-10zM110 330h10v10h-10zM130 330h10v10h-10zM160 330h10v10h-10zM170 330h10v10h-10zM180 330h10v10h-10zM200 330h10v10h-10zM210 330h10v10h-10zM220 330h10v10h-10zM250 330h10v10h-10zM260 330h10v10h-10zM270 330h10v10h-10zM280 330h10v10h-10zM300 330h10v10h-10zM330 330h10v10h-10zM340 330h10v10h-10zM350 330h10v10h-10zM0 340h10v10H0zM20 340h10v10H20zM30 340h10v10H30zM40 340h10v10H40zM60 340h10v10H60zM110 340h10v10h-10zM140 340h10v10h-10zM150 340h10v10h-10zM180 340h10v10h-10zM200 340h10v10h-10zM220 340h10v10h-10zM230 340h10v10h-10zM240 340h10v10h-10zM260 340h10v10h-10zM270 340h10v10h-10zM290 340h10v10h-10zM360 340h10v10h-10zM0 350h10v10H0zM60 350h10v10H60zM80 350h10v10H80zM120 350h10v10h-10zM130 350h10v10h-10zM160 350h10v10h-10zM180 350h10v10h-10zM230 350h10v10h-10zM260 350h10v10h-10zM280 350h10v10h-10zM290 350h10v10h-10zM310 350h10v10h-10zM330 350h10v10h-10zM360 350h10v10h-10zM0 360h10v10H0zM10 360h10v10H10zM20 360h10v10H20zM30 360h10v10H30zM40 360h10v10H40zM50 360h10v10H50zM60 360h10v10H60zM90 360h10v10H90zM100 360h10v10h-10zM120 360h10v10h-10zM130 360h10v10h-10zM150 360h10v10h-10zM160 360h10v10h-10zM170 360h10v10h-10zM180 360h10v10h-10zM190 360h10v10h-10zM200 360h10v10h-10zM270 360h10v10h-10zM280 360h10v10h-10zM290 360h10v10h-10zM310 360h10v10h-10zM330 360h10v10h-10zM360 360h10v10h-10z"/></g></g></g></g></svg>