<svg xmlns="http://www.w3.org/2000/svg" width="370" height="370" viewBox="0 0 370 370"><desc>https://www.aptika.com/</desc><title>Aptika - FREE QR Code Generator</title><path d="M0 0h10v10H0zM10 0h10v10H10zM20 0h10v10H20zM30 0h10v10H30zM40 0h10v10H40zM50 0h10v10H50zM60 0h10v10H60zM80 0h10v10H80zM90 0h10v10H90zM100 0h10v10h-10zM110 0h10v10h-10zM140 0h10v10h-10zM160 0h10v10h-10zM180 0h10v10h-10zM240 0h10v10h-10zM260 0h10v10h-10zM270 0h10v10h-10zM300 0h10v10h-10zM310 0h10v10h-10zM320 0h10v10h-10zM330 0h10v10h-10zM340 0h10v10h-10zM350 0h10v10h-10zM360 0h10v10h-10zM0 10h10v10H0zM60 10h10v10H60zM90 10h10v10H90zM170 10h10v10h-10zM190 10h10v10h-10zM200 10h10v10h-10zM210 10h10v10h-10zM220 10h10v10h-10zM230 10h10v10h-10zM240 10h10v10h-10zM270 10h10v10h-10zM300 10h10v10h-10zM360 10h10v10h-10zM0 20h10v10H0zM20 20h10v10H20zM30 20h10v10H30zM40 20h10v10H40zM60 20h10v10H60zM80 20h10v10H80zM90 20h10v10H90zM100 20h10v10h-10zM130 20h10v10h-10zM150 20h10v10h-10zM160 20h10v10h-10zM170 20h10v10h-10zM220 20h10v10h-10zM230 20h10v10h-10zM240 20h10v10h-10zM280 20h10v10h-10zM300 20h10v10h-10zM320 20h10v10h-10zM330 20h10v10h-10zM340 20h10v10h-10zM360 20h10v10h-10zM0 30h10v10H0zM20 30h10v10H20zM30 30h10v10H30zM40 30h10v10H40zM60 30h10v10H60zM80 30h10v10H80zM100 30h10v10h-10zM110 30h10v10h-10zM140 30h10v10h-10zM160 30h10v10h-10zM180 30h10v10h-10zM220 30h10v10h-10zM230 30h10v10h-10zM240 30h10v10h-10zM260 30h10v10h-10zM300 30h10v10h-10zM320 30h10v10h-10zM330 30h10v10h-10zM340 30h10v10h-10zM360 30h10v10h-10zM0 40h10v10H0zM20 40h10v10H20zM30 40h10v10H30zM40 40h10v10H40zM60 40h10v10H60zM90 40h10v10H90zM100 40h10v10h-10zM120 40h10v10h-10zM130 40h10v10h-10zM140 40h10v10h-10zM170 40h10v10h-10zM200 40h10v10h-10zM210 40h10v10h-10zM220 40h10v10h-10zM230 40h10v10h-10zM260 40h10v10h-10zM270 40h10v10h-10zM300 40h10v10h-10zM320 40h10v10h-10zM330 40h10v10h-10zM340 40h10v10h-10zM360 40h10v10h-10zM0 50h10v10H0zM60 50h10v10H60zM80 50h10v10H80zM90 50h10v10H90zM120 50h10v10h-10zM140 50h10v10h-10zM150 50h10v10h-10zM180 50h10v10h-10zM190 50h10v10h-10zM200 50h10v10h-10zM210 50h10v10h-10zM240 50h10v10h-10zM270 50h10v10h-10zM280 50h10v10h-10zM300 50h10v10h-10zM360 50h10v10h-10zM0 60h10v10H0zM10 60h10v10H10zM20 60h10v10H20zM30 60h10v10H30zM40 60h10v10H40zM50 60h10v10H50zM60 60h10v10H60zM80 60h10v10H80zM100 60h10v10h-10zM120 60h10v10h-10zM140 60h10v10h-10zM160 60h10v10h-10zM180 60h10v10h-10zM200 60h10v10h-10zM220 60h10v10h-10zM240 60h10v10h-10zM260 60h10v10h-10zM280 60h10v10h-10zM300 60h10v10h-10zM310 60h10v10h-10zM320 60h10v10h-10zM330 60h10v10h-10zM340 60h10v10h-10zM350 60h10v10h-10zM360 60h10v10h-10zM80 70h10v10H80zM100 70h10v10h-10zM150 70h10v10h-10zM160 70h10v10h-10zM170 70h10v10h-10zM180 70h10v10h-10zM200 70h10v10h-10zM210 70h10v10h-10zM240 70h10v10h-10zM260 70h10v10h-10zM10 80h10v10H10zM30 80h10v10H30zM50 80h10v10H50zM60 80h10v10H60zM70 80h10v10H70zM80 80h10v10H80zM90 80h10v10H90zM100 80h10v10h-10zM110 80h10v10h-10zM130 80h10v10h-10zM150 80h10v10h-10zM170 80h10v10h-10zM180 80h10v10h-10zM190 80h10v10h-10zM200 80h10v10h-10zM210 80h10v10h-10zM240 80h10v10h-10zM250 80h10v10h-10zM260 80h10v10h-10zM270 80h10v10h-10zM280 80h10v10h-10zM290 80h10v10h-10zM300 80h10v10h-10zM310 80h10v10h-10zM330 80h10v10h-10zM340 80h10v10h-10zM360 80h10v10h-10zM20 90h10v10H20zM30 90h10v10H30zM40 90h10v10H40zM70 90h10v10H70zM80 90h10v10H80zM100 90h10v10h-10zM110 90h10v10h-10zM120 90h10v10h-10zM150 90h10v10h-10zM170 90h10v10h-10zM180 90h10v10h-10zM210 90h10v10h-10zM240 90h10v10h-10zM260 90h10v10h-10zM280 90h10v10h-10zM300 90h10v10h-10zM330 90h10v10h-10zM350 90h10v10h-10zM360 90h10v10h-10zM60 100h10v10H60zM80 100h10v10H80zM90 100h10v10H90zM100 100h10v10h-10zM110 100h10v10h-10zM120 100h10v10h-10zM150 100h10v10h-10zM160 100h10v10h-10zM190 100h10v10h-10zM210 100h10v10h-10zM220 100h10v10h-10zM240 100h10v10h-10zM280 100h10v10h-10zM300 100h10v10h-10zM310 100h10v10h-10zM320 100h10v10h-10zM330 100h10v10h-10zM350 100h10v10h-10zM360 100h10v10h-10zM0 110h10v10H0zM10 110h10v10H10zM40 110h10v10H40zM70 110h10v10H70zM80 110h10v10H80zM90 110h10v10H90zM100 110h10v10h-10zM130 110h10v10h-10zM180 110h10v10h-10zM210 110h10v10h-10zM240 110h10v10h-10zM250 110h10v10h-10zM320 110h10v10h-10zM330 110h10v10h-10zM350 110h10v10h-10zM360 110h10v10h-10zM0 120h10v10H0zM20 120h10v10H20zM50 120h10v10H50zM60 120h10v10H60zM70 120h10v10H70zM100 120h10v10h-10zM110 120h10v10h-10zM140 120h10v10h-10zM150 120h10v10h-10zM210 120h10v10h-10zM250 120h10v10h-10zM290 120h10v10h-10zM300 120h10v10h-10zM360 120h10v10h-10zM20 130h10v10H20zM50 130h10v10H50zM80 130h10v10H80zM90 130h10v10H90zM100 130h10v10h-10zM110 130h10v10h-10zM130 130h10v10h-10zM160 130h10v10h-10zM180 130h10v10h-10zM200 130h10v10h-10zM220 130h10v10h-10zM240 130h10v10h-10zM250 130h10v10h-10zM300 130h10v10h-10zM310 130h10v10h-10zM330 130h10v10h-10zM350 130h10v10h-10zM360 130h10v10h-10zM10 140h10v10H10zM20 140h10v10H20zM60 140h10v10H60zM80 140h10v10H80zM110 140h10v10h-10zM130 140h10v10h-10zM140 140h10v10h-10zM170 140h10v10h-10zM190 140h10v10h-10zM210 140h10v10h-10zM230 140h10v10h-10zM240 140h10v10h-10zM250 140h10v10h-10zM260 140h10v10h-10zM300 140h10v10h-10zM310 140h10v10h-10zM320 140h10v10h-10zM340 140h10v10h-10zM350 140h10v10h-10zM360 140h10v10h-10zM10 150h10v10H10zM20 150h10v10H20zM40 150h10v10H40zM80 150h10v10H80zM90 150h10v10H90zM100 150h10v10h-10zM120 150h10v10h-10zM130 150h10v10h-10zM160 150h10v10h-10zM170 150h10v10h-10zM230 150h10v10h-10zM240 150h10v10h-10zM250 150h10v10h-10zM270 150h10v10h-10zM280 150h10v10h-10zM300 150h10v10h-10zM320 150h10v10h-10zM360 150h10v10h-10zM10 160h10v10H10zM50 160h10v10H50zM60 160h10v10H60zM70 160h10v10H70zM90 160h10v10H90zM100 160h10v10h-10zM110 160h10v10h-10zM140 160h10v10h-10zM150 160h10v10h-10zM160 160h10v10h-10zM180 160h10v10h-10zM190 160h10v10h-10zM220 160h10v10h-10zM240 160h10v10h-10zM270 160h10v10h-10zM300 160h10v10h-10zM330 160h10v10h-10zM340 160h10v10h-10zM350 160h10v10h-10zM0 170h10v10H0zM40 170h10v10H40zM50 170h10v10H50zM80 170h10v10H80zM100 170h10v10h-10zM120 170h10v10h-10zM130 170h10v10h-10zM140 170h10v10h-10zM150 170h10v10h-10zM170 170h10v10h-10zM180 170h10v10h-10zM200 170h10v10h-10zM210 170h10v10h-10zM240 170h10v10h-10zM250 170h10v10h-10zM260 170h10v10h-10zM280 170h10v10h-10zM300 170h10v10h-10zM320 170h10v10h-10zM340 170h10v10h-10zM360 170h10v10h-10zM20 180h10v10H20zM40 180h10v10H40zM60 180h10v10H60zM90 180h10v10H90zM100 180h10v10h-10zM130 180h10v10h-10zM140 180h10v10h-10zM150 180h10v10h-10zM160 180h10v10h-10zM170 180h10v10h-10zM190 180h10v10h-10zM210 180h10v10h-10zM220 180h10v10h-10zM230 180h10v10h-10zM240 180h10v10h-10zM260 180h10v10h-10zM280 180h10v10h-10zM300 180h10v10h-10zM310 180h10v10h-10zM330 180h10v10h-10zM350 180h10v10h-10zM360 180h10v10h-10zM0 190h10v10H0zM20 190h10v10H20zM30 190h10v10H30zM40 190h10v10H40zM50 190h10v10H50zM120 190h10v10h-10zM140 190h10v10h-10zM160 190h10v10h-10zM170 190h10v10h-10zM180 190h10v10h-10zM190 190h10v10h-10zM200 190h10v10h-10zM210 190h10v10h-10zM240 190h10v10h-10zM260 190h10v10h-10zM270 190h10v10h-10zM300 190h10v10h-10zM310 190h10v10h-10zM340 190h10v10h-10zM360 190h10v10h-10zM10 200h10v10H10zM40 200h10v10H40zM50 200h10v10H50zM60 200h10v10H60zM70 200h10v10H70zM90 200h10v10H90zM110 200h10v10h-10zM140 200h10v10h-10zM170 200h10v10h-10zM190 200h10v10h-10zM210 200h10v10h-10zM220 200h10v10h-10zM240 200h10v10h-10zM250 200h10v10h-10zM260 200h10v10h-10zM270 200h10v10h-10zM280 200h10v10h-10zM300 200h10v10h-10zM310 200h10v10h-10zM320 200h10v10h-10zM330 200h10v10h-10zM360 200h10v10h-10zM0 210h10v10H0zM40 210h10v10H40zM70 210h10v10H70zM80 210h10v10H80zM110 210h10v10h-10zM130 210h10v10h-10zM150 210h10v10h-10zM160 210h10v10h-10zM170 210h10v10h-10zM180 210h10v10h-10zM190 210h10v10h-10zM220 210h10v10h-10zM250 210h10v10h-10zM290 210h10v10h-10zM300 210h10v10h-10zM340 210h10v10h-10zM350 210h10v10h-10zM360 210h10v10h-10zM0 220h10v10H0zM10 220h10v10H10zM20 220h10v10H20zM40 220h10v10H40zM50 220h10v10H50zM60 220h10v10H60zM90 220h10v10H90zM100 220h10v10h-10zM130 220h10v10h-10zM140 220h10v10h-10zM180 220h10v10h-10zM200 220h10v10h-10zM210 220h10v10h-10zM220 220h10v10h-10zM260 220h10v10h-10zM290 220h10v10h-10zM300 220h10v10h-10zM310 220h10v10h-10zM320 220h10v10h-10zM330 220h10v10h-10zM340 220h10v10h-10zM350 220h10v10h-10zM360 220h10v10h-10zM30 230h10v10H30zM40 230h10v10H40zM120 230h10v10h-10zM130 230h10v10h-10zM140 230h10v10h-10zM150 230h10v10h-10zM170 230h10v10h-10zM180 230h10v10h-10zM190 230h10v10h-10zM200 230h10v10h-10zM210 230h10v10h-10zM250 230h10v10h-10zM260 230h10v10h-10zM300 230h10v10h-10zM320 230h10v10h-10zM360 230h10v10h-10zM10 240h10v10H10zM60 240h10v10H60zM80 240h10v10H80zM90 240h10v10H90zM100 240h10v10h-10zM120 240h10v10h-10zM140 240h10v10h-10zM160 240h10v10h-10zM180 240h10v10h-10zM190 240h10v10h-10zM210 240h10v10h-10zM220 240h10v10h-10zM230 240h10v10h-10zM240 240h10v10h-10zM250 240h10v10h-10zM270 240h10v10h-10zM290 240h10v10h-10zM300 240h10v10h-10zM360 240h10v10h-10zM10 250h10v10H10zM20 250h10v10H20zM40 250h10v10H40zM70 250h10v10H70zM80 250h10v10H80zM110 250h10v10h-10zM120 250h10v10h-10zM130 250h10v10h-10zM140 250h10v10h-10zM180 250h10v10h-10zM190 250h10v10h-10zM200 250h10v10h-10zM210 250h10v10h-10zM220 250h10v10h-10zM240 250h10v10h-10zM250 250h10v10h-10zM260 250h10v10h-10zM290 250h10v10h-10zM300 250h10v10h-10zM310 250h10v10h-10zM350 250h10v10h-10zM360 250h10v10h-10zM0 260h10v10H0zM50 260h10v10H50zM60 260h10v10H60zM90 260h10v10H90zM140 260h10v10h-10zM150 260h10v10h-10zM170 260h10v10h-10zM220 260h10v10h-10zM230 260h10v10h-10zM290 260h10v10h-10zM300 260h10v10h-10zM310 260h10v10h-10zM330 260h10v10h-10zM340 260h10v10h-10zM360 260h10v10h-10zM10 270h10v10H10zM20 270h10v10H20zM30 270h10v10H30zM50 270h10v10H50zM80 270h10v10H80zM90 270h10v10H90zM100 270h10v10h-10zM110 270h10v10h-10zM130 270h10v10h-10zM160 270h10v10h-10zM170 270h10v10h-10zM190 270h10v10h-10zM200 270h10v10h-10zM210 270h10v10h-10zM220 270h10v10h-10zM230 270h10v10h-10zM240 270h10v10h-10zM250 270h10v10h-10zM270 270h10v10h-10zM300 270h10v10h-10zM310 270h10v10h-10zM350 270h10v10h-10zM360 270h10v10h-10zM0 280h10v10H0zM10 280h10v10H10zM20 280h10v10H20zM50 280h10v10H50zM60 280h10v10H60zM70 280h10v10H70zM120 280h10v10h-10zM130 280h10v10h-10zM150 280h10v10h-10zM170 280h10v10h-10zM190 280h10v10h-10zM200 280h10v10h-10zM210 280h10v10h-10zM220 280h10v10h-10zM270 280h10v10h-10zM280 280h10v10h-10zM290 280h10v10h-10zM300 280h10v10h-10zM310 280h10v10h-10zM320 280h10v10h-10zM340 280h10v10h-10zM350 280h10v10h-10zM80 290h10v10H80zM90 290h10v10H90zM110 290h10v10h-10zM120 290h10v10h-10zM210 290h10v10h-10zM230 290h10v10h-10zM240 290h10v10h-10zM270 290h10v10h-10zM280 290h10v10h-10zM320 290h10v10h-10zM360 290h10v10h-10zM0 300h10v10H0zM10 300h10v10H10zM20 300h10v10H20zM30 300h10v10H30zM40 300h10v10H40zM50 300h10v10H50zM60 300h10v10H60zM80 300h10v10H80zM100 300h10v10h-10zM130 300h10v10h-10zM140 300h10v10h-10zM160 300h10v10h-10zM170 300h10v10h-10zM190 300h10v10h-10zM220 300h10v10h-10zM240 300h10v10h-10zM250 300h10v10h-10zM260 300h10v10h-10zM270 300h10v10h-10zM280 300h10v10h-10zM300 300h10v10h-10zM320 300h10v10h-10zM340 300h10v10h-10zM360 300h10v10h-10zM0 310h10v10H0zM60 310h10v10H60zM80 310h10v10H80zM120 310h10v10h-10zM130 310h10v10h-10zM140 310h10v10h-10zM150 310h10v10h-10zM160 310h10v10h-10zM210 310h10v10h-10zM230 310h10v10h-10zM240 310h10v10h-10zM260 310h10v10h-10zM280 310h10v10h-10zM320 310h10v10h-10zM340 310h10v10h-10zM350 310h10v10h-10zM360 310h10v10h-10zM0 320h10v10H0zM20 320h10v10H20zM30 320h10v10H30zM40 320h10v10H40zM60 320h10v10H60zM120 320h10v10h-10zM140 320h10v10h-10zM160 320h10v10h-10zM170 320h10v10h-10zM180 320h10v10h-10zM220 320h10v10h-10zM230 320h10v10h-10zM240 320h10v10h-10zM250 320h10v10h-10zM260 320h10v10h-10zM280 320h10v10h-10zM290 320h10v10h-10zM300 320h10v10h-10zM310 320h10v10h-10zM320 320h10v10h-10zM330 320h10v10h-10zM350 320h10v10h-10zM0 330h10v10H0zM20 330h10v10H20zM30 330h10v10H30zM40 330h10v10H40zM60 330h10v10H60zM80 330h10v10H80zM120 330h10v10h-10zM150 330h10v10h-10zM170 330h10v10h-10zM190 330h10v10h-10zM200 330h10v10h-10zM220 330h10v10h-10zM230 330h10v10h-10zM280 330h10v10h-10zM290 330h10v10h-10zM310 330h10v10h-10zM320 330h10v10h-10zM360 330h10v10h-10zM0 340h10v10H0zM20 340h10v10H20zM30 340h10v10H30zM40 340h10v10H40zM60 340h10v10H60zM100 340h10v10h-10zM130 340h10v10h-10zM140 340h10v10h-10zM160 340h10v10h-10zM170 340h10v10h-10zM200 340h10v10h-10zM270 340h10v10h-10zM280 340h10v10h-10zM290 340h10v10h-10zM310 340h10v10h-10zM320 340h10v10h-10zM330 340h10v10h-10zM340 340h10v10h-10zM360 340h10v10h-10zM0 350h10v10H0zM60 350h10v10H60zM80 350h10v10H80zM90 350h10v10H90zM100 350h10v10h-10zM130 350h10v10h-10zM140 350h10v10h-10zM150 350h10v10h-10zM160 350h10v10h-10zM170 350h10v10h-10zM210 350h10v10h-10zM220 350h10v10h-10zM250 350h10v10h-10zM260 350h10v10h-10zM270 350h10v10h-10zM280 350h10v10h-10zM290 350h10v10h-10zM300 350h10v10h-10zM320 350h10v10h-10zM0 360h10v10H0zM10 360h10v10H10zM20 360h10v10H20zM30 360h10v10H30zM40 360h10v10H40zM50 360h10v10H50zM60 360h10v10H60zM100 360h10v10h-10zM110 360h10v10h-10zM120 360h10v10h-10zM150 360h10v10h-10zM160 360h10v10h-10zM190 360h10v10h-10zM210 360h10v10h-10zM230 360h10v10h-10zM250 360h10v10h-10zM270 360h10v10h-10zM280 360h10v10h-10zM310 360h10v10h-10zM330 360h10v10h-10zM350 360h10v10h-10zM360 360h10v10h-10z"/></svg>