<svg xmlns="http://www.w3.org/2000/svg" viewBox="0 0 210 210"><path fill="#fff" d="M0 0h210v210H0z"/><path fill="#2b4e5a" d="M23.115 85.537 6.21 49.564h6.007l14.54 30.749 14.54-30.749h6.006l-16.87 35.973Zm23.598 0 17.166-35.973h6.86l17.165 35.973h-6.203l-4.66-9.851H57.576l-4.694 9.851zm12.472-14.08h16.181l-8.074-17.39Zm32.821 14.08V49.564h6.072v35.973zm17.08 0V49.564h18.38q5.12 0 8.567 1.194 3.446 1.17 5.153 3.384 1.707 2.189 1.707 5.249 0 2.935-1.379 4.876-1.345 1.94-3.446 3.134-2.1 1.17-4.365 1.816l9.321 16.32h-6.433l-8.665-15.499h-12.768v15.5zm6.072-19.305h10.34q5.35 0 8.27-1.642 2.922-1.667 2.922-4.926 0-3.184-2.626-4.751-2.593-1.592-7.123-1.592h-11.783zm33.295 19.305 17.165-35.973h6.86l17.166 35.973h-6.203l-4.661-9.851h-19.463l-4.694 9.851zm12.472-14.08h16.181l-8.074-17.39z"/></svg>