<svg viewBox="2 2 206 206" xmlns="http://www.w3.org/2000/svg">

  <!-- Monochrome badge outline (white, transparent fill) -->
  <path
    d="
      M 20 5
      H 190
      A 15 15 0 0 1 205 20
      V 190
      A 15 15 0 0 1 190 205
      H 20
      A 15 15 0 0 1 5 190
      V 20
      A 15 15 0 0 1 20 5
      Z"
    fill="none"
    stroke="#000000"
    stroke-width="6"
  />

  <!-- VAIRA wordmark (white) -->
  <g transform="translate(7, 16) scale(1.01)">
    <path fill="#000000"
      d="M 26.957886,97.719615 11.306715,64.411182 h 5.561484 L 30.331245,92.882294 43.794292,64.411182 h 5.561484 L 33.734995,97.719615 Z m 21.850224,0 15.894295,-33.308433 h 6.351641 L 86.948342,97.719615 H 81.204514 L 76.889046,88.5978 h -18.02164 l -4.34586,9.121815 z M 60.356547,84.681874 H 75.339124 L 67.863031,68.580495 Z M 90.746442,97.719615 V 64.411182 h 5.622266 v 33.308433 z m 15.815008,0 V 64.411182 h 17.01875 q 4.74093,0 7.93195,1.105674 3.19101,1.08264 4.77133,3.132744 1.58031,2.027068 1.58031,4.860358 0,2.718116 -1.27641,4.514836 -1.24601,1.79672 -3.19102,2.902395 -1.94499,1.082638 -4.04195,1.681545 l 8.63094,15.110881 h -5.95656 l -8.02313,-14.350729 h -11.82195 v 14.350729 z m 5.62226,-17.875066 h 9.57305 q 4.95367,0 7.65844,-1.520302 2.70476,-1.543336 2.70476,-4.560905 0,-2.948465 -2.43125,-4.399662 -2.40086,-1.474232 -6.59477,-1.474232 h -10.91023 z m 30.82793,17.875066 15.8943,-33.308433 h 6.35164 l 15.8943,33.308433 h -5.74383 L 171.09258,88.5978 h -18.02164 l -4.34586,9.121815 z m 11.54844,-13.037741 h 14.98258 l -7.4761,-16.101379 z"
    />
  </g>

</svg>


