<?xml version="1.0" encoding="UTF-8"?>
<svg version="1.1" viewBox="2 2 206 206" xmlns="http://www.w3.org/2000/svg">
 <!-- Dark badge -->
 <path d="m20 5h170a15 15 0 0 1 15 15v170a15 15 0 0 1-15 15h-170a15 15 0 0 1-15-15v-170a15 15 0 0 1 15-15z" fill="#2b4e5a" stroke="#2b4e5a" stroke-width="6"/>
 <!-- VAIRA wordmark -->
 <g transform="translate(7 16) scale(1.01)">
  <path d="m26.958 97.72-15.651-33.308h5.5615l13.463 28.471 13.463-28.471h5.5615l-15.621 33.308zm21.85 0 15.894-33.308h6.3516l15.894 33.308h-5.7438l-4.3155-9.1218h-18.022l-4.3459 9.1218zm11.548-13.038h14.983l-7.4761-16.101zm30.39 13.038v-33.308h5.6223v33.308zm15.815 0v-33.308h17.019q4.7409 0 7.932 1.1057 3.191 1.0826 4.7713 3.1327 1.5803 2.0271 1.5803 4.8604 0 2.7181-1.2764 4.5148-1.246 1.7967-3.191 2.9024-1.945 1.0826-4.042 1.6815l8.6309 15.111h-5.9566l-8.0231-14.351h-11.822v14.351zm5.6223-17.875h9.573q4.9537 0 7.6584-1.5203 2.7048-1.5433 2.7048-4.5609 0-2.9485-2.4312-4.3997-2.4009-1.4742-6.5948-1.4742h-10.91zm30.828 17.875 15.894-33.308h6.3516l15.894 33.308h-5.7438l-4.3155-9.1218h-18.022l-4.3459 9.1218zm11.548-13.038h14.983l-7.4761-16.101z" fill="#fff"/>
 </g>
</svg>
