<svg xmlns="http://www.w3.org/2000/svg" width="330" height="330" viewBox="0 0 330 330"><desc>https://www.aptika.com/</desc><title>Aptika - FREE QR Code Generator</title><path d="M0 0h10v10H0zM10 0h10v10H10zM20 0h10v10H20zM30 0h10v10H30zM40 0h10v10H40zM50 0h10v10H50zM60 0h10v10H60zM110 0h10v10h-10zM120 0h10v10h-10zM130 0h10v10h-10zM150 0h10v10h-10zM160 0h10v10h-10zM180 0h10v10h-10zM210 0h10v10h-10zM220 0h10v10h-10zM260 0h10v10h-10zM270 0h10v10h-10zM280 0h10v10h-10zM290 0h10v10h-10zM300 0h10v10h-10zM310 0h10v10h-10zM320 0h10v10h-10zM0 10h10v10H0zM60 10h10v10H60zM80 10h10v10H80zM110 10h10v10h-10zM120 10h10v10h-10zM160 10h10v10h-10zM170 10h10v10h-10zM190 10h10v10h-10zM200 10h10v10h-10zM220 10h10v10h-10zM240 10h10v10h-10zM260 10h10v10h-10zM320 10h10v10h-10zM0 20h10v10H0zM20 20h10v10H20zM30 20h10v10H30zM40 20h10v10H40zM60 20h10v10H60zM100 20h10v10h-10zM150 20h10v10h-10zM160 20h10v10h-10zM170 20h10v10h-10zM180 20h10v10h-10zM200 20h10v10h-10zM210 20h10v10h-10zM260 20h10v10h-10zM280 20h10v10h-10zM290 20h10v10h-10zM300 20h10v10h-10zM320 20h10v10h-10zM0 30h10v10H0zM20 30h10v10H20zM30 30h10v10H30zM40 30h10v10H40zM60 30h10v10H60zM80 30h10v10H80zM110 30h10v10h-10zM140 30h10v10h-10zM190 30h10v10h-10zM210 30h10v10h-10zM230 30h10v10h-10zM240 30h10v10h-10zM260 30h10v10h-10zM280 30h10v10h-10zM290 30h10v10h-10zM300 30h10v10h-10zM320 30h10v10h-10zM0 40h10v10H0zM20 40h10v10H20zM30 40h10v10H30zM40 40h10v10H40zM60 40h10v10H60zM80 40h10v10H80zM120 40h10v10h-10zM130 40h10v10h-10zM150 40h10v10h-10zM160 40h10v10h-10zM170 40h10v10h-10zM180 40h10v10h-10zM200 40h10v10h-10zM260 40h10v10h-10zM280 40h10v10h-10zM290 40h10v10h-10zM300 40h10v10h-10zM320 40h10v10h-10zM0 50h10v10H0zM60 50h10v10H60zM100 50h10v10h-10zM120 50h10v10h-10zM180 50h10v10h-10zM200 50h10v10h-10zM220 50h10v10h-10zM230 50h10v10h-10zM240 50h10v10h-10zM260 50h10v10h-10zM320 50h10v10h-10zM0 60h10v10H0zM10 60h10v10H10zM20 60h10v10H20zM30 60h10v10H30zM40 60h10v10H40zM50 60h10v10H50zM60 60h10v10H60zM80 60h10v10H80zM100 60h10v10h-10zM120 60h10v10h-10zM140 60h10v10h-10zM160 60h10v10h-10zM180 60h10v10h-10zM200 60h10v10h-10zM220 60h10v10h-10zM240 60h10v10h-10zM260 60h10v10h-10zM270 60h10v10h-10zM280 60h10v10h-10zM290 60h10v10h-10zM300 60h10v10h-10zM310 60h10v10h-10zM320 60h10v10h-10zM80 70h10v10H80zM90 70h10v10H90zM100 70h10v10h-10zM120 70h10v10h-10zM140 70h10v10h-10zM150 70h10v10h-10zM190 70h10v10h-10zM200 70h10v10h-10zM220 70h10v10h-10zM240 70h10v10h-10zM10 80h10v10H10zM30 80h10v10H30zM40 80h10v10H40zM50 80h10v10H50zM60 80h10v10H60zM80 80h10v10H80zM110 80h10v10h-10zM120 80h10v10h-10zM130 80h10v10h-10zM140 80h10v10h-10zM160 80h10v10h-10zM170 80h10v10h-10zM190 80h10v10h-10zM230 80h10v10h-10zM240 80h10v10h-10zM250 80h10v10h-10zM260 80h10v10h-10zM280 80h10v10h-10zM290 80h10v10h-10zM310 80h10v10h-10zM30 90h10v10H30zM40 90h10v10H40zM90 90h10v10H90zM130 90h10v10h-10zM160 90h10v10h-10zM180 90h10v10h-10zM190 90h10v10h-10zM200 90h10v10h-10zM220 90h10v10h-10zM230 90h10v10h-10zM280 90h10v10h-10zM290 90h10v10h-10zM300 90h10v10h-10zM10 100h10v10H10zM20 100h10v10H20zM30 100h10v10H30zM50 100h10v10H50zM60 100h10v10H60zM80 100h10v10H80zM110 100h10v10h-10zM120 100h10v10h-10zM150 100h10v10h-10zM160 100h10v10h-10zM170 100h10v10h-10zM180 100h10v10h-10zM200 100h10v10h-10zM210 100h10v10h-10zM220 100h10v10h-10zM230 100h10v10h-10zM240 100h10v10h-10zM260 100h10v10h-10zM280 100h10v10h-10zM290 100h10v10h-10zM300 100h10v10h-10zM310 100h10v10h-10zM320 100h10v10h-10zM0 110h10v10H0zM30 110h10v10H30zM40 110h10v10H40zM90 110h10v10H90zM110 110h10v10h-10zM130 110h10v10h-10zM150 110h10v10h-10zM160 110h10v10h-10zM170 110h10v10h-10zM190 110h10v10h-10zM200 110h10v10h-10zM270 110h10v10h-10zM300 110h10v10h-10zM310 110h10v10h-10zM320 110h10v10h-10zM0 120h10v10H0zM10 120h10v10H10zM20 120h10v10H20zM60 120h10v10H60zM70 120h10v10H70zM80 120h10v10H80zM100 120h10v10h-10zM110 120h10v10h-10zM130 120h10v10h-10zM140 120h10v10h-10zM160 120h10v10h-10zM170 120h10v10h-10zM180 120h10v10h-10zM200 120h10v10h-10zM240 120h10v10h-10zM260 120h10v10h-10zM0 130h10v10H0zM20 130h10v10H20zM30 130h10v10H30zM40 130h10v10H40zM50 130h10v10H50zM80 130h10v10H80zM100 130h10v10h-10zM130 130h10v10h-10zM140 130h10v10h-10zM160 130h10v10h-10zM170 130h10v10h-10zM190 130h10v10h-10zM210 130h10v10h-10zM230 130h10v10h-10zM250 130h10v10h-10zM270 130h10v10h-10zM10 140h10v10H10zM40 140h10v10H40zM60 140h10v10H60zM90 140h10v10H90zM120 140h10v10h-10zM140 140h10v10h-10zM150 140h10v10h-10zM160 140h10v10h-10zM180 140h10v10h-10zM240 140h10v10h-10zM260 140h10v10h-10zM280 140h10v10h-10zM290 140h10v10h-10zM300 140h10v10h-10zM0 150h10v10H0zM80 150h10v10H80zM100 150h10v10h-10zM120 150h10v10h-10zM130 150h10v10h-10zM150 150h10v10h-10zM190 150h10v10h-10zM220 150h10v10h-10zM250 150h10v10h-10zM280 150h10v10h-10zM290 150h10v10h-10zM300 150h10v10h-10zM320 150h10v10h-10zM10 160h10v10H10zM30 160h10v10H30zM40 160h10v10H40zM50 160h10v10H50zM60 160h10v10H60zM90 160h10v10H90zM110 160h10v10h-10zM130 160h10v10h-10zM180 160h10v10h-10zM190 160h10v10h-10zM200 160h10v10h-10zM220 160h10v10h-10zM240 160h10v10h-10zM250 160h10v10h-10zM260 160h10v10h-10zM270 160h10v10h-10zM280 160h10v10h-10zM290 160h10v10h-10zM0 170h10v10H0zM10 170h10v10H10zM30 170h10v10H30zM40 170h10v10H40zM80 170h10v10H80zM120 170h10v10h-10zM130 170h10v10h-10zM140 170h10v10h-10zM170 170h10v10h-10zM180 170h10v10h-10zM190 170h10v10h-10zM200 170h10v10h-10zM220 170h10v10h-10zM240 170h10v10h-10zM250 170h10v10h-10zM260 170h10v10h-10zM280 170h10v10h-10zM300 170h10v10h-10zM320 170h10v10h-10zM0 180h10v10H0zM20 180h10v10H20zM30 180h10v10H30zM50 180h10v10H50zM60 180h10v10H60zM80 180h10v10H80zM100 180h10v10h-10zM150 180h10v10h-10zM160 180h10v10h-10zM170 180h10v10h-10zM180 180h10v10h-10zM190 180h10v10h-10zM220 180h10v10h-10zM230 180h10v10h-10zM250 180h10v10h-10zM270 180h10v10h-10zM290 180h10v10h-10zM300 180h10v10h-10zM310 180h10v10h-10zM320 180h10v10h-10zM10 190h10v10H10zM20 190h10v10H20zM40 190h10v10H40zM70 190h10v10H70zM100 190h10v10h-10zM110 190h10v10h-10zM120 190h10v10h-10zM130 190h10v10h-10zM150 190h10v10h-10zM190 190h10v10h-10zM200 190h10v10h-10zM230 190h10v10h-10zM250 190h10v10h-10zM260 190h10v10h-10zM280 190h10v10h-10zM290 190h10v10h-10zM300 190h10v10h-10zM320 190h10v10h-10zM0 200h10v10H0zM20 200h10v10H20zM60 200h10v10H60zM70 200h10v10H70zM100 200h10v10h-10zM110 200h10v10h-10zM130 200h10v10h-10zM150 200h10v10h-10zM160 200h10v10h-10zM200 200h10v10h-10zM220 200h10v10h-10zM240 200h10v10h-10zM270 200h10v10h-10zM290 200h10v10h-10zM320 200h10v10h-10zM0 210h10v10H0zM20 210h10v10H20zM30 210h10v10H30zM40 210h10v10H40zM50 210h10v10H50zM70 210h10v10H70zM80 210h10v10H80zM120 210h10v10h-10zM130 210h10v10h-10zM170 210h10v10h-10zM200 210h10v10h-10zM210 210h10v10h-10zM220 210h10v10h-10zM230 210h10v10h-10zM270 210h10v10h-10zM280 210h10v10h-10zM290 210h10v10h-10zM0 220h10v10H0zM20 220h10v10H20zM60 220h10v10H60zM70 220h10v10H70zM100 220h10v10h-10zM120 220h10v10h-10zM130 220h10v10h-10zM180 220h10v10h-10zM230 220h10v10h-10zM250 220h10v10h-10zM260 220h10v10h-10zM270 220h10v10h-10zM280 220h10v10h-10zM290 220h10v10h-10zM310 220h10v10h-10zM320 220h10v10h-10zM0 230h10v10H0zM20 230h10v10H20zM30 230h10v10H30zM80 230h10v10H80zM90 230h10v10H90zM120 230h10v10h-10zM130 230h10v10h-10zM140 230h10v10h-10zM170 230h10v10h-10zM230 230h10v10h-10zM250 230h10v10h-10zM260 230h10v10h-10zM280 230h10v10h-10zM290 230h10v10h-10zM300 230h10v10h-10zM0 240h10v10H0zM10 240h10v10H10zM40 240h10v10H40zM50 240h10v10H50zM60 240h10v10H60zM80 240h10v10H80zM90 240h10v10H90zM100 240h10v10h-10zM110 240h10v10h-10zM130 240h10v10h-10zM150 240h10v10h-10zM170 240h10v10h-10zM180 240h10v10h-10zM190 240h10v10h-10zM200 240h10v10h-10zM230 240h10v10h-10zM240 240h10v10h-10zM250 240h10v10h-10zM260 240h10v10h-10zM270 240h10v10h-10zM280 240h10v10h-10zM290 240h10v10h-10zM310 240h10v10h-10zM80 250h10v10H80zM90 250h10v10H90zM100 250h10v10h-10zM120 250h10v10h-10zM160 250h10v10h-10zM170 250h10v10h-10zM210 250h10v10h-10zM230 250h10v10h-10zM240 250h10v10h-10zM280 250h10v10h-10zM300 250h10v10h-10zM310 250h10v10h-10zM0 260h10v10H0zM10 260h10v10H10zM20 260h10v10H20zM30 260h10v10H30zM40 260h10v10H40zM50 260h10v10H50zM60 260h10v10H60zM90 260h10v10H90zM100 260h10v10h-10zM110 260h10v10h-10zM120 260h10v10h-10zM130 260h10v10h-10zM140 260h10v10h-10zM150 260h10v10h-10zM160 260h10v10h-10zM170 260h10v10h-10zM190 260h10v10h-10zM230 260h10v10h-10zM240 260h10v10h-10zM260 260h10v10h-10zM280 260h10v10h-10zM300 260h10v10h-10zM0 270h10v10H0zM60 270h10v10H60zM80 270h10v10H80zM100 270h10v10h-10zM120 270h10v10h-10zM130 270h10v10h-10zM160 270h10v10h-10zM170 270h10v10h-10zM180 270h10v10h-10zM230 270h10v10h-10zM240 270h10v10h-10zM280 270h10v10h-10zM290 270h10v10h-10zM300 270h10v10h-10zM310 270h10v10h-10zM0 280h10v10H0zM20 280h10v10H20zM30 280h10v10H30zM40 280h10v10H40zM60 280h10v10H60zM80 280h10v10H80zM90 280h10v10H90zM100 280h10v10h-10zM120 280h10v10h-10zM130 280h10v10h-10zM160 280h10v10h-10zM170 280h10v10h-10zM180 280h10v10h-10zM200 280h10v10h-10zM210 280h10v10h-10zM230 280h10v10h-10zM240 280h10v10h-10zM250 280h10v10h-10zM260 280h10v10h-10zM270 280h10v10h-10zM280 280h10v10h-10zM310 280h10v10h-10zM0 290h10v10H0zM20 290h10v10H20zM30 290h10v10H30zM40 290h10v10H40zM60 290h10v10H60zM80 290h10v10H80zM110 290h10v10h-10zM140 290h10v10h-10zM150 290h10v10h-10zM160 290h10v10h-10zM180 290h10v10h-10zM200 290h10v10h-10zM220 290h10v10h-10zM250 290h10v10h-10zM270 290h10v10h-10zM320 290h10v10h-10zM0 300h10v10H0zM20 300h10v10H20zM30 300h10v10H30zM40 300h10v10H40zM60 300h10v10H60zM120 300h10v10h-10zM130 300h10v10h-10zM160 300h10v10h-10zM170 300h10v10h-10zM180 300h10v10h-10zM200 300h10v10h-10zM210 300h10v10h-10zM240 300h10v10h-10zM270 300h10v10h-10zM280 300h10v10h-10zM310 300h10v10h-10zM320 300h10v10h-10zM0 310h10v10H0zM60 310h10v10H60zM80 310h10v10H80zM130 310h10v10h-10zM160 310h10v10h-10zM170 310h10v10h-10zM180 310h10v10h-10zM220 310h10v10h-10zM250 310h10v10h-10zM260 310h10v10h-10zM270 310h10v10h-10zM280 310h10v10h-10zM290 310h10v10h-10zM300 310h10v10h-10zM310 310h10v10h-10zM320 310h10v10h-10zM0 320h10v10H0zM10 320h10v10H10zM20 320h10v10H20zM30 320h10v10H30zM40 320h10v10H40zM50 320h10v10H50zM60 320h10v10H60zM110 320h10v10h-10zM130 320h10v10h-10zM140 320h10v10h-10zM150 320h10v10h-10zM180 320h10v10h-10zM230 320h10v10h-10zM240 320h10v10h-10zM270 320h10v10h-10zM280 320h10v10h-10zM290 320h10v10h-10z"/></svg>