<svg xmlns="http://www.w3.org/2000/svg" width="210mm" height="297mm" viewBox="0 0 210 297"><g stroke="#000" stroke-dasharray="2,2" stroke-width=".1" opacity=".4"><path d="M25 0v297M105 0v297M185 0v297M0 7.8h210M0 57.8h210M0 115.6h210M0 173.4h210M0 231.2h210M0 289h210"/></g><g transform="translate(25 7.8)"><g id="CARD_FRONT"><style>text{font-family:-apple-system,system-ui,&quot;Public Sans&quot;,sans-serif}</style><path fill="#2b4e5a" d="M0 0h80v50H0z"/><defs><linearGradient id="gridCombinedFade" x1="0" x2="80" y1="0" y2="50" gradientUnits="userSpaceOnUse"><stop offset="0%" stop-color="#fff" stop-opacity=".015"/><stop offset="20%" stop-color="#fff" stop-opacity=".045"/><stop offset="50%" stop-color="#fff" stop-opacity=".045"/><stop offset="80%" stop-color="#fff" stop-opacity=".045"/><stop offset="100%" stop-color="#fff" stop-opacity=".015"/></linearGradient><linearGradient id="centerCombinedFade" x1="0" x2="80" y1="0" y2="50" gradientUnits="userSpaceOnUse"><stop offset="0%" stop-color="#fff" stop-opacity=".06"/><stop offset="20%" stop-color="#fff" stop-opacity=".16"/><stop offset="50%" stop-color="#fff" stop-opacity=".16"/><stop offset="80%" stop-color="#fff" stop-opacity=".16"/><stop offset="100%" stop-color="#fff" stop-opacity=".06"/></linearGradient></defs><g stroke-width=".25"><path stroke="url(#gridCombinedFade)" d="M10 0v50"/><path stroke="url(#gridCombinedFade)" d="M20 0v50"/><path stroke="url(#gridCombinedFade)" d="M30 0v50"/><path stroke="url(#centerCombinedFade)" d="M40 0v50"/><path stroke="url(#gridCombinedFade)" d="M50 0v50"/><path stroke="url(#gridCombinedFade)" d="M60 0v50"/><path stroke="url(#gridCombinedFade)" d="M70 0v50"/></g><rect width="35" height="13.2" x="21" y="16.4" fill="#2b4e5a" rx="4" ry="4"/><path fill="#2b4e5a" d="M0 36.33h80v5.5H0z"/><path fill="#2b4e5a" d="M14.77 40.93h50.47v5.5H14.77z"/><path fill="#fff" d="m29.088 26.331-2.942-6.262h1.045l2.531 5.353 2.531-5.353H33.3l-2.937 6.262Zm4.108 0 2.988-6.262h1.194l2.988 6.262h-1.08l-.81-1.715h-3.389l-.817 1.715zm2.171-2.45h2.817l-1.406-3.028Zm5.713 2.45V20.07h1.057v6.262zm2.974 0V20.07h3.2q.89 0 1.49.208.6.204.897.59.297.38.297.913 0 .51-.24.849-.234.337-.6.545-.365.204-.76.316l1.623 2.841h-1.12l-1.508-2.698h-2.222v2.698zm1.057-3.36h1.8q.93 0 1.44-.286.508-.29.508-.857 0-.555-.458-.828-.45-.277-1.24-.277h-2.05zm5.795 3.36 2.988-6.262h1.194l2.989 6.262h-1.08l-.812-1.715h-3.388l-.817 1.715zm2.171-2.45h2.817l-1.405-3.028z"/><text x="40" y="40.4" fill="#fff" font-size="3.6" letter-spacing=".35" text-anchor="middle">
    Technology from Early Concept
  </text><text x="40" y="45" fill="#fff" font-size="3.6" letter-spacing=".35" text-anchor="middle">
    to Industrial Scale
  </text></g></g><g transform="translate(25 65.6)"><path fill="#2b4e5a" d="M0 0h80v50H0z"/><g stroke-width=".25"><path stroke="url(#gridCombinedFade)" d="M10 0v50"/><path stroke="url(#gridCombinedFade)" d="M20 0v50"/><path stroke="url(#gridCombinedFade)" d="M30 0v50"/><path stroke="url(#centerCombinedFade)" d="M40 0v50"/><path stroke="url(#gridCombinedFade)" d="M50 0v50"/><path stroke="url(#gridCombinedFade)" d="M60 0v50"/><path stroke="url(#gridCombinedFade)" d="M70 0v50"/></g><rect width="35" height="13.2" x="21" y="16.4" fill="#2b4e5a" rx="4" ry="4"/><path fill="#2b4e5a" d="M0 36.33h80v5.5H0z"/><path fill="#2b4e5a" d="M14.77 40.93h50.47v5.5H14.77z"/><path fill="#fff" d="m29.088 26.331-2.942-6.262h1.045l2.531 5.353 2.531-5.353H33.3l-2.937 6.262Zm4.108 0 2.988-6.262h1.194l2.988 6.262h-1.08l-.81-1.715h-3.389l-.817 1.715zm2.171-2.45h2.817l-1.406-3.028Zm5.713 2.45V20.07h1.057v6.262zm2.974 0V20.07h3.2q.89 0 1.49.208.6.204.897.59.297.38.297.913 0 .51-.24.849-.234.337-.6.545-.365.204-.76.316l1.623 2.841h-1.12l-1.508-2.698h-2.222v2.698zm1.057-3.36h1.8q.93 0 1.44-.286.508-.29.508-.857 0-.555-.458-.828-.45-.277-1.24-.277h-2.05zm5.795 3.36 2.988-6.262h1.194l2.989 6.262h-1.08l-.812-1.715h-3.388l-.817 1.715zm2.171-2.45h2.817l-1.405-3.028z"/><text x="40" y="40.4" fill="#fff" font-size="3.6" letter-spacing=".35" text-anchor="middle">
    Technology from Early Concept
  </text><text x="40" y="45" fill="#fff" font-size="3.6" letter-spacing=".35" text-anchor="middle">
    to Industrial Scale
  </text></g><g transform="translate(25 123.4)"><path fill="#2b4e5a" d="M0 0h80v50H0z"/><g stroke-width=".25"><path stroke="url(#gridCombinedFade)" d="M10 0v50"/><path stroke="url(#gridCombinedFade)" d="M20 0v50"/><path stroke="url(#gridCombinedFade)" d="M30 0v50"/><path stroke="url(#centerCombinedFade)" d="M40 0v50"/><path stroke="url(#gridCombinedFade)" d="M50 0v50"/><path stroke="url(#gridCombinedFade)" d="M60 0v50"/><path stroke="url(#gridCombinedFade)" d="M70 0v50"/></g><rect width="35" height="13.2" x="21" y="16.4" fill="#2b4e5a" rx="4" ry="4"/><path fill="#2b4e5a" d="M0 36.33h80v5.5H0z"/><path fill="#2b4e5a" d="M14.77 40.93h50.47v5.5H14.77z"/><path fill="#fff" d="m29.088 26.331-2.942-6.262h1.045l2.531 5.353 2.531-5.353H33.3l-2.937 6.262Zm4.108 0 2.988-6.262h1.194l2.988 6.262h-1.08l-.81-1.715h-3.389l-.817 1.715zm2.171-2.45h2.817l-1.406-3.028Zm5.713 2.45V20.07h1.057v6.262zm2.974 0V20.07h3.2q.89 0 1.49.208.6.204.897.59.297.38.297.913 0 .51-.24.849-.234.337-.6.545-.365.204-.76.316l1.623 2.841h-1.12l-1.508-2.698h-2.222v2.698zm1.057-3.36h1.8q.93 0 1.44-.286.508-.29.508-.857 0-.555-.458-.828-.45-.277-1.24-.277h-2.05zm5.795 3.36 2.988-6.262h1.194l2.989 6.262h-1.08l-.812-1.715h-3.388l-.817 1.715zm2.171-2.45h2.817l-1.405-3.028z"/><text x="40" y="40.4" fill="#fff" font-size="3.6" letter-spacing=".35" text-anchor="middle">
    Technology from Early Concept
  </text><text x="40" y="45" fill="#fff" font-size="3.6" letter-spacing=".35" text-anchor="middle">
    to Industrial Scale
  </text></g><g transform="translate(25 181.2)"><path fill="#2b4e5a" d="M0 0h80v50H0z"/><g stroke-width=".25"><path stroke="url(#gridCombinedFade)" d="M10 0v50"/><path stroke="url(#gridCombinedFade)" d="M20 0v50"/><path stroke="url(#gridCombinedFade)" d="M30 0v50"/><path stroke="url(#centerCombinedFade)" d="M40 0v50"/><path stroke="url(#gridCombinedFade)" d="M50 0v50"/><path stroke="url(#gridCombinedFade)" d="M60 0v50"/><path stroke="url(#gridCombinedFade)" d="M70 0v50"/></g><rect width="35" height="13.2" x="21" y="16.4" fill="#2b4e5a" rx="4" ry="4"/><path fill="#2b4e5a" d="M0 36.33h80v5.5H0z"/><path fill="#2b4e5a" d="M14.77 40.93h50.47v5.5H14.77z"/><path fill="#fff" d="m29.088 26.331-2.942-6.262h1.045l2.531 5.353 2.531-5.353H33.3l-2.937 6.262Zm4.108 0 2.988-6.262h1.194l2.988 6.262h-1.08l-.81-1.715h-3.389l-.817 1.715zm2.171-2.45h2.817l-1.406-3.028Zm5.713 2.45V20.07h1.057v6.262zm2.974 0V20.07h3.2q.89 0 1.49.208.6.204.897.59.297.38.297.913 0 .51-.24.849-.234.337-.6.545-.365.204-.76.316l1.623 2.841h-1.12l-1.508-2.698h-2.222v2.698zm1.057-3.36h1.8q.93 0 1.44-.286.508-.29.508-.857 0-.555-.458-.828-.45-.277-1.24-.277h-2.05zm5.795 3.36 2.988-6.262h1.194l2.989 6.262h-1.08l-.812-1.715h-3.388l-.817 1.715zm2.171-2.45h2.817l-1.405-3.028z"/><text x="40" y="40.4" fill="#fff" font-size="3.6" letter-spacing=".35" text-anchor="middle">
    Technology from Early Concept
  </text><text x="40" y="45" fill="#fff" font-size="3.6" letter-spacing=".35" text-anchor="middle">
    to Industrial Scale
  </text></g><g transform="translate(25 239)"><path fill="#2b4e5a" d="M0 0h80v50H0z"/><g stroke-width=".25"><path stroke="url(#gridCombinedFade)" d="M10 0v50"/><path stroke="url(#gridCombinedFade)" d="M20 0v50"/><path stroke="url(#gridCombinedFade)" d="M30 0v50"/><path stroke="url(#centerCombinedFade)" d="M40 0v50"/><path stroke="url(#gridCombinedFade)" d="M50 0v50"/><path stroke="url(#gridCombinedFade)" d="M60 0v50"/><path stroke="url(#gridCombinedFade)" d="M70 0v50"/></g><rect width="35" height="13.2" x="21" y="16.4" fill="#2b4e5a" rx="4" ry="4"/><path fill="#2b4e5a" d="M0 36.33h80v5.5H0z"/><path fill="#2b4e5a" d="M14.77 40.93h50.47v5.5H14.77z"/><path fill="#fff" d="m29.088 26.331-2.942-6.262h1.045l2.531 5.353 2.531-5.353H33.3l-2.937 6.262Zm4.108 0 2.988-6.262h1.194l2.988 6.262h-1.08l-.81-1.715h-3.389l-.817 1.715zm2.171-2.45h2.817l-1.406-3.028Zm5.713 2.45V20.07h1.057v6.262zm2.974 0V20.07h3.2q.89 0 1.49.208.6.204.897.59.297.38.297.913 0 .51-.24.849-.234.337-.6.545-.365.204-.76.316l1.623 2.841h-1.12l-1.508-2.698h-2.222v2.698zm1.057-3.36h1.8q.93 0 1.44-.286.508-.29.508-.857 0-.555-.458-.828-.45-.277-1.24-.277h-2.05zm5.795 3.36 2.988-6.262h1.194l2.989 6.262h-1.08l-.812-1.715h-3.388l-.817 1.715zm2.171-2.45h2.817l-1.405-3.028z"/><text x="40" y="40.4" fill="#fff" font-size="3.6" letter-spacing=".35" text-anchor="middle">
    Technology from Early Concept
  </text><text x="40" y="45" fill="#fff" font-size="3.6" letter-spacing=".35" text-anchor="middle">
    to Industrial Scale
  </text></g><g transform="translate(105 7.8)"><path fill="#2b4e5a" d="M0 0h80v50H0z"/><g stroke-width=".25"><path stroke="url(#gridCombinedFade)" d="M10 0v50"/><path stroke="url(#gridCombinedFade)" d="M20 0v50"/><path stroke="url(#gridCombinedFade)" d="M30 0v50"/><path stroke="url(#centerCombinedFade)" d="M40 0v50"/><path stroke="url(#gridCombinedFade)" d="M50 0v50"/><path stroke="url(#gridCombinedFade)" d="M60 0v50"/><path stroke="url(#gridCombinedFade)" d="M70 0v50"/></g><rect width="35" height="13.2" x="21" y="16.4" fill="#2b4e5a" rx="4" ry="4"/><path fill="#2b4e5a" d="M0 36.33h80v5.5H0z"/><path fill="#2b4e5a" d="M14.77 40.93h50.47v5.5H14.77z"/><path fill="#fff" d="m29.088 26.331-2.942-6.262h1.045l2.531 5.353 2.531-5.353H33.3l-2.937 6.262Zm4.108 0 2.988-6.262h1.194l2.988 6.262h-1.08l-.81-1.715h-3.389l-.817 1.715zm2.171-2.45h2.817l-1.406-3.028Zm5.713 2.45V20.07h1.057v6.262zm2.974 0V20.07h3.2q.89 0 1.49.208.6.204.897.59.297.38.297.913 0 .51-.24.849-.234.337-.6.545-.365.204-.76.316l1.623 2.841h-1.12l-1.508-2.698h-2.222v2.698zm1.057-3.36h1.8q.93 0 1.44-.286.508-.29.508-.857 0-.555-.458-.828-.45-.277-1.24-.277h-2.05zm5.795 3.36 2.988-6.262h1.194l2.989 6.262h-1.08l-.812-1.715h-3.388l-.817 1.715zm2.171-2.45h2.817l-1.405-3.028z"/><text x="40" y="40.4" fill="#fff" font-size="3.6" letter-spacing=".35" text-anchor="middle">
    Technology from Early Concept
  </text><text x="40" y="45" fill="#fff" font-size="3.6" letter-spacing=".35" text-anchor="middle">
    to Industrial Scale
  </text></g><g transform="translate(105 65.6)"><path fill="#2b4e5a" d="M0 0h80v50H0z"/><g stroke-width=".25"><path stroke="url(#gridCombinedFade)" d="M10 0v50"/><path stroke="url(#gridCombinedFade)" d="M20 0v50"/><path stroke="url(#gridCombinedFade)" d="M30 0v50"/><path stroke="url(#centerCombinedFade)" d="M40 0v50"/><path stroke="url(#gridCombinedFade)" d="M50 0v50"/><path stroke="url(#gridCombinedFade)" d="M60 0v50"/><path stroke="url(#gridCombinedFade)" d="M70 0v50"/></g><rect width="35" height="13.2" x="21" y="16.4" fill="#2b4e5a" rx="4" ry="4"/><path fill="#2b4e5a" d="M0 36.33h80v5.5H0z"/><path fill="#2b4e5a" d="M14.77 40.93h50.47v5.5H14.77z"/><path fill="#fff" d="m29.088 26.331-2.942-6.262h1.045l2.531 5.353 2.531-5.353H33.3l-2.937 6.262Zm4.108 0 2.988-6.262h1.194l2.988 6.262h-1.08l-.81-1.715h-3.389l-.817 1.715zm2.171-2.45h2.817l-1.406-3.028Zm5.713 2.45V20.07h1.057v6.262zm2.974 0V20.07h3.2q.89 0 1.49.208.6.204.897.59.297.38.297.913 0 .51-.24.849-.234.337-.6.545-.365.204-.76.316l1.623 2.841h-1.12l-1.508-2.698h-2.222v2.698zm1.057-3.36h1.8q.93 0 1.44-.286.508-.29.508-.857 0-.555-.458-.828-.45-.277-1.24-.277h-2.05zm5.795 3.36 2.988-6.262h1.194l2.989 6.262h-1.08l-.812-1.715h-3.388l-.817 1.715zm2.171-2.45h2.817l-1.405-3.028z"/><text x="40" y="40.4" fill="#fff" font-size="3.6" letter-spacing=".35" text-anchor="middle">
    Technology from Early Concept
  </text><text x="40" y="45" fill="#fff" font-size="3.6" letter-spacing=".35" text-anchor="middle">
    to Industrial Scale
  </text></g><g transform="translate(105 123.4)"><path fill="#2b4e5a" d="M0 0h80v50H0z"/><g stroke-width=".25"><path stroke="url(#gridCombinedFade)" d="M10 0v50"/><path stroke="url(#gridCombinedFade)" d="M20 0v50"/><path stroke="url(#gridCombinedFade)" d="M30 0v50"/><path stroke="url(#centerCombinedFade)" d="M40 0v50"/><path stroke="url(#gridCombinedFade)" d="M50 0v50"/><path stroke="url(#gridCombinedFade)" d="M60 0v50"/><path stroke="url(#gridCombinedFade)" d="M70 0v50"/></g><rect width="35" height="13.2" x="21" y="16.4" fill="#2b4e5a" rx="4" ry="4"/><path fill="#2b4e5a" d="M0 36.33h80v5.5H0z"/><path fill="#2b4e5a" d="M14.77 40.93h50.47v5.5H14.77z"/><path fill="#fff" d="m29.088 26.331-2.942-6.262h1.045l2.531 5.353 2.531-5.353H33.3l-2.937 6.262Zm4.108 0 2.988-6.262h1.194l2.988 6.262h-1.08l-.81-1.715h-3.389l-.817 1.715zm2.171-2.45h2.817l-1.406-3.028Zm5.713 2.45V20.07h1.057v6.262zm2.974 0V20.07h3.2q.89 0 1.49.208.6.204.897.59.297.38.297.913 0 .51-.24.849-.234.337-.6.545-.365.204-.76.316l1.623 2.841h-1.12l-1.508-2.698h-2.222v2.698zm1.057-3.36h1.8q.93 0 1.44-.286.508-.29.508-.857 0-.555-.458-.828-.45-.277-1.24-.277h-2.05zm5.795 3.36 2.988-6.262h1.194l2.989 6.262h-1.08l-.812-1.715h-3.388l-.817 1.715zm2.171-2.45h2.817l-1.405-3.028z"/><text x="40" y="40.4" fill="#fff" font-size="3.6" letter-spacing=".35" text-anchor="middle">
    Technology from Early Concept
  </text><text x="40" y="45" fill="#fff" font-size="3.6" letter-spacing=".35" text-anchor="middle">
    to Industrial Scale
  </text></g><g transform="translate(105 181.2)"><path fill="#2b4e5a" d="M0 0h80v50H0z"/><g stroke-width=".25"><path stroke="url(#gridCombinedFade)" d="M10 0v50"/><path stroke="url(#gridCombinedFade)" d="M20 0v50"/><path stroke="url(#gridCombinedFade)" d="M30 0v50"/><path stroke="url(#centerCombinedFade)" d="M40 0v50"/><path stroke="url(#gridCombinedFade)" d="M50 0v50"/><path stroke="url(#gridCombinedFade)" d="M60 0v50"/><path stroke="url(#gridCombinedFade)" d="M70 0v50"/></g><rect width="35" height="13.2" x="21" y="16.4" fill="#2b4e5a" rx="4" ry="4"/><path fill="#2b4e5a" d="M0 36.33h80v5.5H0z"/><path fill="#2b4e5a" d="M14.77 40.93h50.47v5.5H14.77z"/><path fill="#fff" d="m29.088 26.331-2.942-6.262h1.045l2.531 5.353 2.531-5.353H33.3l-2.937 6.262Zm4.108 0 2.988-6.262h1.194l2.988 6.262h-1.08l-.81-1.715h-3.389l-.817 1.715zm2.171-2.45h2.817l-1.406-3.028Zm5.713 2.45V20.07h1.057v6.262zm2.974 0V20.07h3.2q.89 0 1.49.208.6.204.897.59.297.38.297.913 0 .51-.24.849-.234.337-.6.545-.365.204-.76.316l1.623 2.841h-1.12l-1.508-2.698h-2.222v2.698zm1.057-3.36h1.8q.93 0 1.44-.286.508-.29.508-.857 0-.555-.458-.828-.45-.277-1.24-.277h-2.05zm5.795 3.36 2.988-6.262h1.194l2.989 6.262h-1.08l-.812-1.715h-3.388l-.817 1.715zm2.171-2.45h2.817l-1.405-3.028z"/><text x="40" y="40.4" fill="#fff" font-size="3.6" letter-spacing=".35" text-anchor="middle">
    Technology from Early Concept
  </text><text x="40" y="45" fill="#fff" font-size="3.6" letter-spacing=".35" text-anchor="middle">
    to Industrial Scale
  </text></g><g transform="translate(105 239)"><path fill="#2b4e5a" d="M0 0h80v50H0z"/><g stroke-width=".25"><path stroke="url(#gridCombinedFade)" d="M10 0v50"/><path stroke="url(#gridCombinedFade)" d="M20 0v50"/><path stroke="url(#gridCombinedFade)" d="M30 0v50"/><path stroke="url(#centerCombinedFade)" d="M40 0v50"/><path stroke="url(#gridCombinedFade)" d="M50 0v50"/><path stroke="url(#gridCombinedFade)" d="M60 0v50"/><path stroke="url(#gridCombinedFade)" d="M70 0v50"/></g><rect width="35" height="13.2" x="21" y="16.4" fill="#2b4e5a" rx="4" ry="4"/><path fill="#2b4e5a" d="M0 36.33h80v5.5H0z"/><path fill="#2b4e5a" d="M14.77 40.93h50.47v5.5H14.77z"/><path fill="#fff" d="m29.088 26.331-2.942-6.262h1.045l2.531 5.353 2.531-5.353H33.3l-2.937 6.262Zm4.108 0 2.988-6.262h1.194l2.988 6.262h-1.08l-.81-1.715h-3.389l-.817 1.715zm2.171-2.45h2.817l-1.406-3.028Zm5.713 2.45V20.07h1.057v6.262zm2.974 0V20.07h3.2q.89 0 1.49.208.6.204.897.59.297.38.297.913 0 .51-.24.849-.234.337-.6.545-.365.204-.76.316l1.623 2.841h-1.12l-1.508-2.698h-2.222v2.698zm1.057-3.36h1.8q.93 0 1.44-.286.508-.29.508-.857 0-.555-.458-.828-.45-.277-1.24-.277h-2.05zm5.795 3.36 2.988-6.262h1.194l2.989 6.262h-1.08l-.812-1.715h-3.388l-.817 1.715zm2.171-2.45h2.817l-1.405-3.028z"/><text x="40" y="40.4" fill="#fff" font-size="3.6" letter-spacing=".35" text-anchor="middle">
    Technology from Early Concept
  </text><text x="40" y="45" fill="#fff" font-size="3.6" letter-spacing=".35" text-anchor="middle">
    to Industrial Scale
  </text></g></svg>