<svg width="80mm" height="50mm" viewBox="0 0 80 50" xmlns="http://www.w3.org/2000/svg">
  <style>
    text {
      font-family: -apple-system, system-ui, "Public Sans", sans-serif;
      fill: #2B4E5A;
    }
  </style>

  <!-- Background -->
  <rect width="80" height="50" fill="#FFFFFF"/>

  <!-- NAME + TITLE -->
  <text x="21" y="16" font-size="4.2" font-weight="500" letter-spacing="0.2">
    Dr. Raphael Heeb
  </text>

  <text x="21" y="22" font-size="3.4">
    Founder &amp; Managing Partner
  </text>

  <!-- CONTACT BLOCK -->
  <text x="21" y="32" font-size="3.0">+41 76 463 06 83</text>
  <text x="21" y="36" font-size="3.0">raphael.heeb@vaira.ch</text>
  <text x="21" y="40" font-size="3.0" letter-spacing="0.3">www.vaira.ch</text>

  <!-- QR CODE: right-aligned, vertically centered on contact block -->
  <g id="qr" transform="translate(60, 29)">
    <!-- Placeholder frame -->
    <rect width="14" height="14" fill="#FFFFFF" stroke="#2B4E5A" stroke-width="0.6" rx="2" ry="2"/>
	  
 
    <!-- Correct scale for a 370x370 QR: 14/370 = 0.0378378 -->
    <g id="qr-content" transform="scale(0.038)">

		<g id="elements" fill="#000000" stroke="none">
		<rect x="0" y="0" width="10" height="10" />
		<rect x="10" y="0" width="10" height="10" />
		<rect x="20" y="0" width="10" height="10" />
		<rect x="30" y="0" width="10" height="10" />
		<rect x="40" y="0" width="10" height="10" />
		<rect x="50" y="0" width="10" height="10" />
		<rect x="60" y="0" width="10" height="10" />
		<rect x="80" y="0" width="10" height="10" />
		<rect x="90" y="0" width="10" height="10" />
		<rect x="100" y="0" width="10" height="10" />
		<rect x="110" y="0" width="10" height="10" />
		<rect x="140" y="0" width="10" height="10" />
		<rect x="160" y="0" width="10" height="10" />
		<rect x="180" y="0" width="10" height="10" />
		<rect x="240" y="0" width="10" height="10" />
		<rect x="260" y="0" width="10" height="10" />
		<rect x="270" y="0" width="10" height="10" />
		<rect x="300" y="0" width="10" height="10" />
		<rect x="310" y="0" width="10" height="10" />
		<rect x="320" y="0" width="10" height="10" />
		<rect x="330" y="0" width="10" height="10" />
		<rect x="340" y="0" width="10" height="10" />
		<rect x="350" y="0" width="10" height="10" />
		<rect x="360" y="0" width="10" height="10" />
		<rect x="0" y="10" width="10" height="10" />
		<rect x="60" y="10" width="10" height="10" />
		<rect x="90" y="10" width="10" height="10" />
		<rect x="170" y="10" width="10" height="10" />
		<rect x="190" y="10" width="10" height="10" />
		<rect x="200" y="10" width="10" height="10" />
		<rect x="210" y="10" width="10" height="10" />
		<rect x="220" y="10" width="10" height="10" />
		<rect x="230" y="10" width="10" height="10" />
		<rect x="240" y="10" width="10" height="10" />
		<rect x="270" y="10" width="10" height="10" />
		<rect x="300" y="10" width="10" height="10" />
		<rect x="360" y="10" width="10" height="10" />
		<rect x="0" y="20" width="10" height="10" />
		<rect x="20" y="20" width="10" height="10" />
		<rect x="30" y="20" width="10" height="10" />
		<rect x="40" y="20" width="10" height="10" />
		<rect x="60" y="20" width="10" height="10" />
		<rect x="80" y="20" width="10" height="10" />
		<rect x="90" y="20" width="10" height="10" />
		<rect x="100" y="20" width="10" height="10" />
		<rect x="130" y="20" width="10" height="10" />
		<rect x="150" y="20" width="10" height="10" />
		<rect x="160" y="20" width="10" height="10" />
		<rect x="170" y="20" width="10" height="10" />
		<rect x="220" y="20" width="10" height="10" />
		<rect x="230" y="20" width="10" height="10" />
		<rect x="240" y="20" width="10" height="10" />
		<rect x="280" y="20" width="10" height="10" />
		<rect x="300" y="20" width="10" height="10" />
		<rect x="320" y="20" width="10" height="10" />
		<rect x="330" y="20" width="10" height="10" />
		<rect x="340" y="20" width="10" height="10" />
		<rect x="360" y="20" width="10" height="10" />
		<rect x="0" y="30" width="10" height="10" />
		<rect x="20" y="30" width="10" height="10" />
		<rect x="30" y="30" width="10" height="10" />
		<rect x="40" y="30" width="10" height="10" />
		<rect x="60" y="30" width="10" height="10" />
		<rect x="80" y="30" width="10" height="10" />
		<rect x="100" y="30" width="10" height="10" />
		<rect x="110" y="30" width="10" height="10" />
		<rect x="140" y="30" width="10" height="10" />
		<rect x="160" y="30" width="10" height="10" />
		<rect x="180" y="30" width="10" height="10" />
		<rect x="220" y="30" width="10" height="10" />
		<rect x="230" y="30" width="10" height="10" />
		<rect x="240" y="30" width="10" height="10" />
		<rect x="260" y="30" width="10" height="10" />
		<rect x="300" y="30" width="10" height="10" />
		<rect x="320" y="30" width="10" height="10" />
		<rect x="330" y="30" width="10" height="10" />
		<rect x="340" y="30" width="10" height="10" />
		<rect x="360" y="30" width="10" height="10" />
		<rect x="0" y="40" width="10" height="10" />
		<rect x="20" y="40" width="10" height="10" />
		<rect x="30" y="40" width="10" height="10" />
		<rect x="40" y="40" width="10" height="10" />
		<rect x="60" y="40" width="10" height="10" />
		<rect x="90" y="40" width="10" height="10" />
		<rect x="100" y="40" width="10" height="10" />
		<rect x="120" y="40" width="10" height="10" />
		<rect x="130" y="40" width="10" height="10" />
		<rect x="140" y="40" width="10" height="10" />
		<rect x="170" y="40" width="10" height="10" />
		<rect x="200" y="40" width="10" height="10" />
		<rect x="210" y="40" width="10" height="10" />
		<rect x="220" y="40" width="10" height="10" />
		<rect x="230" y="40" width="10" height="10" />
		<rect x="260" y="40" width="10" height="10" />
		<rect x="270" y="40" width="10" height="10" />
		<rect x="300" y="40" width="10" height="10" />
		<rect x="320" y="40" width="10" height="10" />
		<rect x="330" y="40" width="10" height="10" />
		<rect x="340" y="40" width="10" height="10" />
		<rect x="360" y="40" width="10" height="10" />
		<rect x="0" y="50" width="10" height="10" />
		<rect x="60" y="50" width="10" height="10" />
		<rect x="80" y="50" width="10" height="10" />
		<rect x="90" y="50" width="10" height="10" />
		<rect x="120" y="50" width="10" height="10" />
		<rect x="140" y="50" width="10" height="10" />
		<rect x="150" y="50" width="10" height="10" />
		<rect x="180" y="50" width="10" height="10" />
		<rect x="190" y="50" width="10" height="10" />
		<rect x="200" y="50" width="10" height="10" />
		<rect x="210" y="50" width="10" height="10" />
		<rect x="240" y="50" width="10" height="10" />
		<rect x="270" y="50" width="10" height="10" />
		<rect x="280" y="50" width="10" height="10" />
		<rect x="300" y="50" width="10" height="10" />
		<rect x="360" y="50" width="10" height="10" />
		<rect x="0" y="60" width="10" height="10" />
		<rect x="10" y="60" width="10" height="10" />
		<rect x="20" y="60" width="10" height="10" />
		<rect x="30" y="60" width="10" height="10" />
		<rect x="40" y="60" width="10" height="10" />
		<rect x="50" y="60" width="10" height="10" />
		<rect x="60" y="60" width="10" height="10" />
		<rect x="80" y="60" width="10" height="10" />
		<rect x="100" y="60" width="10" height="10" />
		<rect x="120" y="60" width="10" height="10" />
		<rect x="140" y="60" width="10" height="10" />
		<rect x="160" y="60" width="10" height="10" />
		<rect x="180" y="60" width="10" height="10" />
		<rect x="200" y="60" width="10" height="10" />
		<rect x="220" y="60" width="10" height="10" />
		<rect x="240" y="60" width="10" height="10" />
		<rect x="260" y="60" width="10" height="10" />
		<rect x="280" y="60" width="10" height="10" />
		<rect x="300" y="60" width="10" height="10" />
		<rect x="310" y="60" width="10" height="10" />
		<rect x="320" y="60" width="10" height="10" />
		<rect x="330" y="60" width="10" height="10" />
		<rect x="340" y="60" width="10" height="10" />
		<rect x="350" y="60" width="10" height="10" />
		<rect x="360" y="60" width="10" height="10" />
		<rect x="80" y="70" width="10" height="10" />
		<rect x="100" y="70" width="10" height="10" />
		<rect x="150" y="70" width="10" height="10" />
		<rect x="160" y="70" width="10" height="10" />
		<rect x="170" y="70" width="10" height="10" />
		<rect x="180" y="70" width="10" height="10" />
		<rect x="200" y="70" width="10" height="10" />
		<rect x="210" y="70" width="10" height="10" />
		<rect x="240" y="70" width="10" height="10" />
		<rect x="260" y="70" width="10" height="10" />
		<rect x="10" y="80" width="10" height="10" />
		<rect x="30" y="80" width="10" height="10" />
		<rect x="50" y="80" width="10" height="10" />
		<rect x="60" y="80" width="10" height="10" />
		<rect x="70" y="80" width="10" height="10" />
		<rect x="80" y="80" width="10" height="10" />
		<rect x="90" y="80" width="10" height="10" />
		<rect x="100" y="80" width="10" height="10" />
		<rect x="110" y="80" width="10" height="10" />
		<rect x="130" y="80" width="10" height="10" />
		<rect x="150" y="80" width="10" height="10" />
		<rect x="170" y="80" width="10" height="10" />
		<rect x="180" y="80" width="10" height="10" />
		<rect x="190" y="80" width="10" height="10" />
		<rect x="200" y="80" width="10" height="10" />
		<rect x="210" y="80" width="10" height="10" />
		<rect x="240" y="80" width="10" height="10" />
		<rect x="250" y="80" width="10" height="10" />
		<rect x="260" y="80" width="10" height="10" />
		<rect x="270" y="80" width="10" height="10" />
		<rect x="280" y="80" width="10" height="10" />
		<rect x="290" y="80" width="10" height="10" />
		<rect x="300" y="80" width="10" height="10" />
		<rect x="310" y="80" width="10" height="10" />
		<rect x="330" y="80" width="10" height="10" />
		<rect x="340" y="80" width="10" height="10" />
		<rect x="360" y="80" width="10" height="10" />
		<rect x="20" y="90" width="10" height="10" />
		<rect x="30" y="90" width="10" height="10" />
		<rect x="40" y="90" width="10" height="10" />
		<rect x="70" y="90" width="10" height="10" />
		<rect x="80" y="90" width="10" height="10" />
		<rect x="100" y="90" width="10" height="10" />
		<rect x="110" y="90" width="10" height="10" />
		<rect x="120" y="90" width="10" height="10" />
		<rect x="150" y="90" width="10" height="10" />
		<rect x="170" y="90" width="10" height="10" />
		<rect x="180" y="90" width="10" height="10" />
		<rect x="210" y="90" width="10" height="10" />
		<rect x="240" y="90" width="10" height="10" />
		<rect x="260" y="90" width="10" height="10" />
		<rect x="280" y="90" width="10" height="10" />
		<rect x="300" y="90" width="10" height="10" />
		<rect x="330" y="90" width="10" height="10" />
		<rect x="350" y="90" width="10" height="10" />
		<rect x="360" y="90" width="10" height="10" />
		<rect x="60" y="100" width="10" height="10" />
		<rect x="80" y="100" width="10" height="10" />
		<rect x="90" y="100" width="10" height="10" />
		<rect x="100" y="100" width="10" height="10" />
		<rect x="110" y="100" width="10" height="10" />
		<rect x="120" y="100" width="10" height="10" />
		<rect x="150" y="100" width="10" height="10" />
		<rect x="160" y="100" width="10" height="10" />
		<rect x="190" y="100" width="10" height="10" />
		<rect x="210" y="100" width="10" height="10" />
		<rect x="220" y="100" width="10" height="10" />
		<rect x="240" y="100" width="10" height="10" />
		<rect x="280" y="100" width="10" height="10" />
		<rect x="300" y="100" width="10" height="10" />
		<rect x="310" y="100" width="10" height="10" />
		<rect x="320" y="100" width="10" height="10" />
		<rect x="330" y="100" width="10" height="10" />
		<rect x="350" y="100" width="10" height="10" />
		<rect x="360" y="100" width="10" height="10" />
		<rect x="0" y="110" width="10" height="10" />
		<rect x="10" y="110" width="10" height="10" />
		<rect x="40" y="110" width="10" height="10" />
		<rect x="70" y="110" width="10" height="10" />
		<rect x="80" y="110" width="10" height="10" />
		<rect x="90" y="110" width="10" height="10" />
		<rect x="100" y="110" width="10" height="10" />
		<rect x="130" y="110" width="10" height="10" />
		<rect x="180" y="110" width="10" height="10" />
		<rect x="210" y="110" width="10" height="10" />
		<rect x="240" y="110" width="10" height="10" />
		<rect x="250" y="110" width="10" height="10" />
		<rect x="320" y="110" width="10" height="10" />
		<rect x="330" y="110" width="10" height="10" />
		<rect x="350" y="110" width="10" height="10" />
		<rect x="360" y="110" width="10" height="10" />
		<rect x="0" y="120" width="10" height="10" />
		<rect x="20" y="120" width="10" height="10" />
		<rect x="50" y="120" width="10" height="10" />
		<rect x="60" y="120" width="10" height="10" />
		<rect x="70" y="120" width="10" height="10" />
		<rect x="100" y="120" width="10" height="10" />
		<rect x="110" y="120" width="10" height="10" />
		<rect x="140" y="120" width="10" height="10" />
		<rect x="150" y="120" width="10" height="10" />
		<rect x="210" y="120" width="10" height="10" />
		<rect x="250" y="120" width="10" height="10" />
		<rect x="290" y="120" width="10" height="10" />
		<rect x="300" y="120" width="10" height="10" />
		<rect x="360" y="120" width="10" height="10" />
		<rect x="20" y="130" width="10" height="10" />
		<rect x="50" y="130" width="10" height="10" />
		<rect x="80" y="130" width="10" height="10" />
		<rect x="90" y="130" width="10" height="10" />
		<rect x="100" y="130" width="10" height="10" />
		<rect x="110" y="130" width="10" height="10" />
		<rect x="130" y="130" width="10" height="10" />
		<rect x="160" y="130" width="10" height="10" />
		<rect x="180" y="130" width="10" height="10" />
		<rect x="200" y="130" width="10" height="10" />
		<rect x="220" y="130" width="10" height="10" />
		<rect x="240" y="130" width="10" height="10" />
		<rect x="250" y="130" width="10" height="10" />
		<rect x="300" y="130" width="10" height="10" />
		<rect x="310" y="130" width="10" height="10" />
		<rect x="330" y="130" width="10" height="10" />
		<rect x="350" y="130" width="10" height="10" />
		<rect x="360" y="130" width="10" height="10" />
		<rect x="10" y="140" width="10" height="10" />
		<rect x="20" y="140" width="10" height="10" />
		<rect x="60" y="140" width="10" height="10" />
		<rect x="80" y="140" width="10" height="10" />
		<rect x="110" y="140" width="10" height="10" />
		<rect x="130" y="140" width="10" height="10" />
		<rect x="140" y="140" width="10" height="10" />
		<rect x="170" y="140" width="10" height="10" />
		<rect x="190" y="140" width="10" height="10" />
		<rect x="210" y="140" width="10" height="10" />
		<rect x="230" y="140" width="10" height="10" />
		<rect x="240" y="140" width="10" height="10" />
		<rect x="250" y="140" width="10" height="10" />
		<rect x="260" y="140" width="10" height="10" />
		<rect x="300" y="140" width="10" height="10" />
		<rect x="310" y="140" width="10" height="10" />
		<rect x="320" y="140" width="10" height="10" />
		<rect x="340" y="140" width="10" height="10" />
		<rect x="350" y="140" width="10" height="10" />
		<rect x="360" y="140" width="10" height="10" />
		<rect x="10" y="150" width="10" height="10" />
		<rect x="20" y="150" width="10" height="10" />
		<rect x="40" y="150" width="10" height="10" />
		<rect x="80" y="150" width="10" height="10" />
		<rect x="90" y="150" width="10" height="10" />
		<rect x="100" y="150" width="10" height="10" />
		<rect x="120" y="150" width="10" height="10" />
		<rect x="130" y="150" width="10" height="10" />
		<rect x="160" y="150" width="10" height="10" />
		<rect x="170" y="150" width="10" height="10" />
		<rect x="230" y="150" width="10" height="10" />
		<rect x="240" y="150" width="10" height="10" />
		<rect x="250" y="150" width="10" height="10" />
		<rect x="270" y="150" width="10" height="10" />
		<rect x="280" y="150" width="10" height="10" />
		<rect x="300" y="150" width="10" height="10" />
		<rect x="320" y="150" width="10" height="10" />
		<rect x="360" y="150" width="10" height="10" />
		<rect x="10" y="160" width="10" height="10" />
		<rect x="50" y="160" width="10" height="10" />
		<rect x="60" y="160" width="10" height="10" />
		<rect x="70" y="160" width="10" height="10" />
		<rect x="90" y="160" width="10" height="10" />
		<rect x="100" y="160" width="10" height="10" />
		<rect x="110" y="160" width="10" height="10" />
		<rect x="140" y="160" width="10" height="10" />
		<rect x="150" y="160" width="10" height="10" />
		<rect x="160" y="160" width="10" height="10" />
		<rect x="180" y="160" width="10" height="10" />
		<rect x="190" y="160" width="10" height="10" />
		<rect x="220" y="160" width="10" height="10" />
		<rect x="240" y="160" width="10" height="10" />
		<rect x="270" y="160" width="10" height="10" />
		<rect x="300" y="160" width="10" height="10" />
		<rect x="330" y="160" width="10" height="10" />
		<rect x="340" y="160" width="10" height="10" />
		<rect x="350" y="160" width="10" height="10" />
		<rect x="0" y="170" width="10" height="10" />
		<rect x="40" y="170" width="10" height="10" />
		<rect x="50" y="170" width="10" height="10" />
		<rect x="80" y="170" width="10" height="10" />
		<rect x="100" y="170" width="10" height="10" />
		<rect x="120" y="170" width="10" height="10" />
		<rect x="130" y="170" width="10" height="10" />
		<rect x="140" y="170" width="10" height="10" />
		<rect x="150" y="170" width="10" height="10" />
		<rect x="170" y="170" width="10" height="10" />
		<rect x="180" y="170" width="10" height="10" />
		<rect x="200" y="170" width="10" height="10" />
		<rect x="210" y="170" width="10" height="10" />
		<rect x="240" y="170" width="10" height="10" />
		<rect x="250" y="170" width="10" height="10" />
		<rect x="260" y="170" width="10" height="10" />
		<rect x="280" y="170" width="10" height="10" />
		<rect x="300" y="170" width="10" height="10" />
		<rect x="320" y="170" width="10" height="10" />
		<rect x="340" y="170" width="10" height="10" />
		<rect x="360" y="170" width="10" height="10" />
		<rect x="20" y="180" width="10" height="10" />
		<rect x="40" y="180" width="10" height="10" />
		<rect x="60" y="180" width="10" height="10" />
		<rect x="90" y="180" width="10" height="10" />
		<rect x="100" y="180" width="10" height="10" />
		<rect x="130" y="180" width="10" height="10" />
		<rect x="140" y="180" width="10" height="10" />
		<rect x="150" y="180" width="10" height="10" />
		<rect x="160" y="180" width="10" height="10" />
		<rect x="170" y="180" width="10" height="10" />
		<rect x="190" y="180" width="10" height="10" />
		<rect x="210" y="180" width="10" height="10" />
		<rect x="220" y="180" width="10" height="10" />
		<rect x="230" y="180" width="10" height="10" />
		<rect x="240" y="180" width="10" height="10" />
		<rect x="260" y="180" width="10" height="10" />
		<rect x="280" y="180" width="10" height="10" />
		<rect x="300" y="180" width="10" height="10" />
		<rect x="310" y="180" width="10" height="10" />
		<rect x="330" y="180" width="10" height="10" />
		<rect x="350" y="180" width="10" height="10" />
		<rect x="360" y="180" width="10" height="10" />
		<rect x="0" y="190" width="10" height="10" />
		<rect x="20" y="190" width="10" height="10" />
		<rect x="30" y="190" width="10" height="10" />
		<rect x="40" y="190" width="10" height="10" />
		<rect x="50" y="190" width="10" height="10" />
		<rect x="120" y="190" width="10" height="10" />
		<rect x="140" y="190" width="10" height="10" />
		<rect x="160" y="190" width="10" height="10" />
		<rect x="170" y="190" width="10" height="10" />
		<rect x="180" y="190" width="10" height="10" />
		<rect x="190" y="190" width="10" height="10" />
		<rect x="200" y="190" width="10" height="10" />
		<rect x="210" y="190" width="10" height="10" />
		<rect x="240" y="190" width="10" height="10" />
		<rect x="260" y="190" width="10" height="10" />
		<rect x="270" y="190" width="10" height="10" />
		<rect x="300" y="190" width="10" height="10" />
		<rect x="310" y="190" width="10" height="10" />
		<rect x="340" y="190" width="10" height="10" />
		<rect x="360" y="190" width="10" height="10" />
		<rect x="10" y="200" width="10" height="10" />
		<rect x="40" y="200" width="10" height="10" />
		<rect x="50" y="200" width="10" height="10" />
		<rect x="60" y="200" width="10" height="10" />
		<rect x="70" y="200" width="10" height="10" />
		<rect x="90" y="200" width="10" height="10" />
		<rect x="110" y="200" width="10" height="10" />
		<rect x="140" y="200" width="10" height="10" />
		<rect x="170" y="200" width="10" height="10" />
		<rect x="190" y="200" width="10" height="10" />
		<rect x="210" y="200" width="10" height="10" />
		<rect x="220" y="200" width="10" height="10" />
		<rect x="240" y="200" width="10" height="10" />
		<rect x="250" y="200" width="10" height="10" />
		<rect x="260" y="200" width="10" height="10" />
		<rect x="270" y="200" width="10" height="10" />
		<rect x="280" y="200" width="10" height="10" />
		<rect x="300" y="200" width="10" height="10" />
		<rect x="310" y="200" width="10" height="10" />
		<rect x="320" y="200" width="10" height="10" />
		<rect x="330" y="200" width="10" height="10" />
		<rect x="360" y="200" width="10" height="10" />
		<rect x="0" y="210" width="10" height="10" />
		<rect x="40" y="210" width="10" height="10" />
		<rect x="70" y="210" width="10" height="10" />
		<rect x="80" y="210" width="10" height="10" />
		<rect x="110" y="210" width="10" height="10" />
		<rect x="130" y="210" width="10" height="10" />
		<rect x="150" y="210" width="10" height="10" />
		<rect x="160" y="210" width="10" height="10" />
		<rect x="170" y="210" width="10" height="10" />
		<rect x="180" y="210" width="10" height="10" />
		<rect x="190" y="210" width="10" height="10" />
		<rect x="220" y="210" width="10" height="10" />
		<rect x="250" y="210" width="10" height="10" />
		<rect x="290" y="210" width="10" height="10" />
		<rect x="300" y="210" width="10" height="10" />
		<rect x="340" y="210" width="10" height="10" />
		<rect x="350" y="210" width="10" height="10" />
		<rect x="360" y="210" width="10" height="10" />
		<rect x="0" y="220" width="10" height="10" />
		<rect x="10" y="220" width="10" height="10" />
		<rect x="20" y="220" width="10" height="10" />
		<rect x="40" y="220" width="10" height="10" />
		<rect x="50" y="220" width="10" height="10" />
		<rect x="60" y="220" width="10" height="10" />
		<rect x="90" y="220" width="10" height="10" />
		<rect x="100" y="220" width="10" height="10" />
		<rect x="130" y="220" width="10" height="10" />
		<rect x="140" y="220" width="10" height="10" />
		<rect x="180" y="220" width="10" height="10" />
		<rect x="200" y="220" width="10" height="10" />
		<rect x="210" y="220" width="10" height="10" />
		<rect x="220" y="220" width="10" height="10" />
		<rect x="260" y="220" width="10" height="10" />
		<rect x="290" y="220" width="10" height="10" />
		<rect x="300" y="220" width="10" height="10" />
		<rect x="310" y="220" width="10" height="10" />
		<rect x="320" y="220" width="10" height="10" />
		<rect x="330" y="220" width="10" height="10" />
		<rect x="340" y="220" width="10" height="10" />
		<rect x="350" y="220" width="10" height="10" />
		<rect x="360" y="220" width="10" height="10" />
		<rect x="30" y="230" width="10" height="10" />
		<rect x="40" y="230" width="10" height="10" />
		<rect x="120" y="230" width="10" height="10" />
		<rect x="130" y="230" width="10" height="10" />
		<rect x="140" y="230" width="10" height="10" />
		<rect x="150" y="230" width="10" height="10" />
		<rect x="170" y="230" width="10" height="10" />
		<rect x="180" y="230" width="10" height="10" />
		<rect x="190" y="230" width="10" height="10" />
		<rect x="200" y="230" width="10" height="10" />
		<rect x="210" y="230" width="10" height="10" />
		<rect x="250" y="230" width="10" height="10" />
		<rect x="260" y="230" width="10" height="10" />
		<rect x="300" y="230" width="10" height="10" />
		<rect x="320" y="230" width="10" height="10" />
		<rect x="360" y="230" width="10" height="10" />
		<rect x="10" y="240" width="10" height="10" />
		<rect x="60" y="240" width="10" height="10" />
		<rect x="80" y="240" width="10" height="10" />
		<rect x="90" y="240" width="10" height="10" />
		<rect x="100" y="240" width="10" height="10" />
		<rect x="120" y="240" width="10" height="10" />
		<rect x="140" y="240" width="10" height="10" />
		<rect x="160" y="240" width="10" height="10" />
		<rect x="180" y="240" width="10" height="10" />
		<rect x="190" y="240" width="10" height="10" />
		<rect x="210" y="240" width="10" height="10" />
		<rect x="220" y="240" width="10" height="10" />
		<rect x="230" y="240" width="10" height="10" />
		<rect x="240" y="240" width="10" height="10" />
		<rect x="250" y="240" width="10" height="10" />
		<rect x="270" y="240" width="10" height="10" />
		<rect x="290" y="240" width="10" height="10" />
		<rect x="300" y="240" width="10" height="10" />
		<rect x="360" y="240" width="10" height="10" />
		<rect x="10" y="250" width="10" height="10" />
		<rect x="20" y="250" width="10" height="10" />
		<rect x="40" y="250" width="10" height="10" />
		<rect x="70" y="250" width="10" height="10" />
		<rect x="80" y="250" width="10" height="10" />
		<rect x="110" y="250" width="10" height="10" />
		<rect x="120" y="250" width="10" height="10" />
		<rect x="130" y="250" width="10" height="10" />
		<rect x="140" y="250" width="10" height="10" />
		<rect x="180" y="250" width="10" height="10" />
		<rect x="190" y="250" width="10" height="10" />
		<rect x="200" y="250" width="10" height="10" />
		<rect x="210" y="250" width="10" height="10" />
		<rect x="220" y="250" width="10" height="10" />
		<rect x="240" y="250" width="10" height="10" />
		<rect x="250" y="250" width="10" height="10" />
		<rect x="260" y="250" width="10" height="10" />
		<rect x="290" y="250" width="10" height="10" />
		<rect x="300" y="250" width="10" height="10" />
		<rect x="310" y="250" width="10" height="10" />
		<rect x="350" y="250" width="10" height="10" />
		<rect x="360" y="250" width="10" height="10" />
		<rect x="0" y="260" width="10" height="10" />
		<rect x="50" y="260" width="10" height="10" />
		<rect x="60" y="260" width="10" height="10" />
		<rect x="90" y="260" width="10" height="10" />
		<rect x="140" y="260" width="10" height="10" />
		<rect x="150" y="260" width="10" height="10" />
		<rect x="170" y="260" width="10" height="10" />
		<rect x="220" y="260" width="10" height="10" />
		<rect x="230" y="260" width="10" height="10" />
		<rect x="290" y="260" width="10" height="10" />
		<rect x="300" y="260" width="10" height="10" />
		<rect x="310" y="260" width="10" height="10" />
		<rect x="330" y="260" width="10" height="10" />
		<rect x="340" y="260" width="10" height="10" />
		<rect x="360" y="260" width="10" height="10" />
		<rect x="10" y="270" width="10" height="10" />
		<rect x="20" y="270" width="10" height="10" />
		<rect x="30" y="270" width="10" height="10" />
		<rect x="50" y="270" width="10" height="10" />
		<rect x="80" y="270" width="10" height="10" />
		<rect x="90" y="270" width="10" height="10" />
		<rect x="100" y="270" width="10" height="10" />
		<rect x="110" y="270" width="10" height="10" />
		<rect x="130" y="270" width="10" height="10" />
		<rect x="160" y="270" width="10" height="10" />
		<rect x="170" y="270" width="10" height="10" />
		<rect x="190" y="270" width="10" height="10" />
		<rect x="200" y="270" width="10" height="10" />
		<rect x="210" y="270" width="10" height="10" />
		<rect x="220" y="270" width="10" height="10" />
		<rect x="230" y="270" width="10" height="10" />
		<rect x="240" y="270" width="10" height="10" />
		<rect x="250" y="270" width="10" height="10" />
		<rect x="270" y="270" width="10" height="10" />
		<rect x="300" y="270" width="10" height="10" />
		<rect x="310" y="270" width="10" height="10" />
		<rect x="350" y="270" width="10" height="10" />
		<rect x="360" y="270" width="10" height="10" />
		<rect x="0" y="280" width="10" height="10" />
		<rect x="10" y="280" width="10" height="10" />
		<rect x="20" y="280" width="10" height="10" />
		<rect x="50" y="280" width="10" height="10" />
		<rect x="60" y="280" width="10" height="10" />
		<rect x="70" y="280" width="10" height="10" />
		<rect x="120" y="280" width="10" height="10" />
		<rect x="130" y="280" width="10" height="10" />
		<rect x="150" y="280" width="10" height="10" />
		<rect x="170" y="280" width="10" height="10" />
		<rect x="190" y="280" width="10" height="10" />
		<rect x="200" y="280" width="10" height="10" />
		<rect x="210" y="280" width="10" height="10" />
		<rect x="220" y="280" width="10" height="10" />
		<rect x="270" y="280" width="10" height="10" />
		<rect x="280" y="280" width="10" height="10" />
		<rect x="290" y="280" width="10" height="10" />
		<rect x="300" y="280" width="10" height="10" />
		<rect x="310" y="280" width="10" height="10" />
		<rect x="320" y="280" width="10" height="10" />
		<rect x="340" y="280" width="10" height="10" />
		<rect x="350" y="280" width="10" height="10" />
		<rect x="80" y="290" width="10" height="10" />
		<rect x="90" y="290" width="10" height="10" />
		<rect x="110" y="290" width="10" height="10" />
		<rect x="120" y="290" width="10" height="10" />
		<rect x="210" y="290" width="10" height="10" />
		<rect x="230" y="290" width="10" height="10" />
		<rect x="240" y="290" width="10" height="10" />
		<rect x="270" y="290" width="10" height="10" />
		<rect x="280" y="290" width="10" height="10" />
		<rect x="320" y="290" width="10" height="10" />
		<rect x="360" y="290" width="10" height="10" />
		<rect x="0" y="300" width="10" height="10" />
		<rect x="10" y="300" width="10" height="10" />
		<rect x="20" y="300" width="10" height="10" />
		<rect x="30" y="300" width="10" height="10" />
		<rect x="40" y="300" width="10" height="10" />
		<rect x="50" y="300" width="10" height="10" />
		<rect x="60" y="300" width="10" height="10" />
		<rect x="80" y="300" width="10" height="10" />
		<rect x="100" y="300" width="10" height="10" />
		<rect x="130" y="300" width="10" height="10" />
		<rect x="140" y="300" width="10" height="10" />
		<rect x="160" y="300" width="10" height="10" />
		<rect x="170" y="300" width="10" height="10" />
		<rect x="190" y="300" width="10" height="10" />
		<rect x="220" y="300" width="10" height="10" />
		<rect x="240" y="300" width="10" height="10" />
		<rect x="250" y="300" width="10" height="10" />
		<rect x="260" y="300" width="10" height="10" />
		<rect x="270" y="300" width="10" height="10" />
		<rect x="280" y="300" width="10" height="10" />
		<rect x="300" y="300" width="10" height="10" />
		<rect x="320" y="300" width="10" height="10" />
		<rect x="340" y="300" width="10" height="10" />
		<rect x="360" y="300" width="10" height="10" />
		<rect x="0" y="310" width="10" height="10" />
		<rect x="60" y="310" width="10" height="10" />
		<rect x="80" y="310" width="10" height="10" />
		<rect x="120" y="310" width="10" height="10" />
		<rect x="130" y="310" width="10" height="10" />
		<rect x="140" y="310" width="10" height="10" />
		<rect x="150" y="310" width="10" height="10" />
		<rect x="160" y="310" width="10" height="10" />
		<rect x="210" y="310" width="10" height="10" />
		<rect x="230" y="310" width="10" height="10" />
		<rect x="240" y="310" width="10" height="10" />
		<rect x="260" y="310" width="10" height="10" />
		<rect x="280" y="310" width="10" height="10" />
		<rect x="320" y="310" width="10" height="10" />
		<rect x="340" y="310" width="10" height="10" />
		<rect x="350" y="310" width="10" height="10" />
		<rect x="360" y="310" width="10" height="10" />
		<rect x="0" y="320" width="10" height="10" />
		<rect x="20" y="320" width="10" height="10" />
		<rect x="30" y="320" width="10" height="10" />
		<rect x="40" y="320" width="10" height="10" />
		<rect x="60" y="320" width="10" height="10" />
		<rect x="120" y="320" width="10" height="10" />
		<rect x="140" y="320" width="10" height="10" />
		<rect x="160" y="320" width="10" height="10" />
		<rect x="170" y="320" width="10" height="10" />
		<rect x="180" y="320" width="10" height="10" />
		<rect x="220" y="320" width="10" height="10" />
		<rect x="230" y="320" width="10" height="10" />
		<rect x="240" y="320" width="10" height="10" />
		<rect x="250" y="320" width="10" height="10" />
		<rect x="260" y="320" width="10" height="10" />
		<rect x="280" y="320" width="10" height="10" />
		<rect x="290" y="320" width="10" height="10" />
		<rect x="300" y="320" width="10" height="10" />
		<rect x="310" y="320" width="10" height="10" />
		<rect x="320" y="320" width="10" height="10" />
		<rect x="330" y="320" width="10" height="10" />
		<rect x="350" y="320" width="10" height="10" />
		<rect x="0" y="330" width="10" height="10" />
		<rect x="20" y="330" width="10" height="10" />
		<rect x="30" y="330" width="10" height="10" />
		<rect x="40" y="330" width="10" height="10" />
		<rect x="60" y="330" width="10" height="10" />
		<rect x="80" y="330" width="10" height="10" />
		<rect x="120" y="330" width="10" height="10" />
		<rect x="150" y="330" width="10" height="10" />
		<rect x="170" y="330" width="10" height="10" />
		<rect x="190" y="330" width="10" height="10" />
		<rect x="200" y="330" width="10" height="10" />
		<rect x="220" y="330" width="10" height="10" />
		<rect x="230" y="330" width="10" height="10" />
		<rect x="280" y="330" width="10" height="10" />
		<rect x="290" y="330" width="10" height="10" />
		<rect x="310" y="330" width="10" height="10" />
		<rect x="320" y="330" width="10" height="10" />
		<rect x="360" y="330" width="10" height="10" />
		<rect x="0" y="340" width="10" height="10" />
		<rect x="20" y="340" width="10" height="10" />
		<rect x="30" y="340" width="10" height="10" />
		<rect x="40" y="340" width="10" height="10" />
		<rect x="60" y="340" width="10" height="10" />
		<rect x="100" y="340" width="10" height="10" />
		<rect x="130" y="340" width="10" height="10" />
		<rect x="140" y="340" width="10" height="10" />
		<rect x="160" y="340" width="10" height="10" />
		<rect x="170" y="340" width="10" height="10" />
		<rect x="200" y="340" width="10" height="10" />
		<rect x="270" y="340" width="10" height="10" />
		<rect x="280" y="340" width="10" height="10" />
		<rect x="290" y="340" width="10" height="10" />
		<rect x="310" y="340" width="10" height="10" />
		<rect x="320" y="340" width="10" height="10" />
		<rect x="330" y="340" width="10" height="10" />
		<rect x="340" y="340" width="10" height="10" />
		<rect x="360" y="340" width="10" height="10" />
		<rect x="0" y="350" width="10" height="10" />
		<rect x="60" y="350" width="10" height="10" />
		<rect x="80" y="350" width="10" height="10" />
		<rect x="90" y="350" width="10" height="10" />
		<rect x="100" y="350" width="10" height="10" />
		<rect x="130" y="350" width="10" height="10" />
		<rect x="140" y="350" width="10" height="10" />
		<rect x="150" y="350" width="10" height="10" />
		<rect x="160" y="350" width="10" height="10" />
		<rect x="170" y="350" width="10" height="10" />
		<rect x="210" y="350" width="10" height="10" />
		<rect x="220" y="350" width="10" height="10" />
		<rect x="250" y="350" width="10" height="10" />
		<rect x="260" y="350" width="10" height="10" />
		<rect x="270" y="350" width="10" height="10" />
		<rect x="280" y="350" width="10" height="10" />
		<rect x="290" y="350" width="10" height="10" />
		<rect x="300" y="350" width="10" height="10" />
		<rect x="320" y="350" width="10" height="10" />
		<rect x="0" y="360" width="10" height="10" />
		<rect x="10" y="360" width="10" height="10" />
		<rect x="20" y="360" width="10" height="10" />
		<rect x="30" y="360" width="10" height="10" />
		<rect x="40" y="360" width="10" height="10" />
		<rect x="50" y="360" width="10" height="10" />
		<rect x="60" y="360" width="10" height="10" />
		<rect x="100" y="360" width="10" height="10" />
		<rect x="110" y="360" width="10" height="10" />
		<rect x="120" y="360" width="10" height="10" />
		<rect x="150" y="360" width="10" height="10" />
		<rect x="160" y="360" width="10" height="10" />
		<rect x="190" y="360" width="10" height="10" />
		<rect x="210" y="360" width="10" height="10" />
		<rect x="230" y="360" width="10" height="10" />
		<rect x="250" y="360" width="10" height="10" />
		<rect x="270" y="360" width="10" height="10" />
		<rect x="280" y="360" width="10" height="10" />
		<rect x="310" y="360" width="10" height="10" />
		<rect x="330" y="360" width="10" height="10" />
		<rect x="350" y="360" width="10" height="10" />
		<rect x="360" y="360" width="10" height="10" />
	</g>
  </g>

</svg>
