<svg width="160mm" height="50mm" viewBox="0 0 160 50" xmlns="http://www.w3.org/2000/svg">

  <!-- LEFT: FRONT SIDE -->
  <g transform="translate(0,0)">
    <rect width="80" height="50" fill="#2B4E5A"/>

    <!-- VAIRA badge centered -->
    <g transform="translate(40,22)">
      <g transform="translate(-15,-15) scale(0.145)">
        <path d="M 20 5 H 190 A 15 15 0 0 1 205 20 V 190 A 15 15 0 0 1 190 205 H 20 A 15 15 0 0 1 5 190 V 20 A 15 15 0 0 1 20 5 Z"
              fill="#2b4e5a" stroke="#ffffff" stroke-width="6"/>
        <g transform="translate(7, 16) scale(1.01)">
          <path fill="#ffffff"
            d="M 26.957886,97.719615 11.306715,64.411182 h 5.561484 L 30.331245,92.882294 43.794292,64.411182 h 5.561484 L 33.734995,97.719615 Z m 21.850224,0 15.894295,-33.308433 h 6.351641 L 86.948342,97.719615 H 81.204514 L 76.889046,88.5978 h -18.02164 l -4.34586,9.121815 z M 60.356547,84.681874 H 75.339124 L 67.863031,68.580495 Z M 90.746442,97.719615 V 64.411182 h 5.622266 v 33.308433 z m 15.815008,0 V 64.411182 h 17.01875 q 4.74093,0 7.93195,1.105674 3.19101,1.08264 4.77133,3.132744 1.58031,2.027068 1.58031,4.860358 0,2.718116 -1.27641,4.514836 -1.24601,1.79672 -3.19102,2.902395 -1.94499,1.082638 -4.04195,1.681545 l 8.63094,15.110881 h -5.95656 l -8.02313,-14.350729 h -11.82195 v 14.350729 z m 5.62226,-17.875066 h 9.57305 q 4.95367,0 7.65844,-1.520302 2.70476,-1.543336 2.70476,-4.560905 0,-2.948465 -2.43125,-4.399662 -2.40086,-1.474232 -6.59477,-1.474232 h -10.91023 z m 30.82793,17.875066 15.8943,-33.308433 h 6.35164 l 15.8943,33.308433 h -5.74383 L 171.09258,88.5978 h -18.02164 l -4.34586,9.121815 z m 11.54844,-13.037741 h 14.98258 l -7.4761,-16.101379 z"/>
        </g>
      </g>
    </g>

    <!-- Subtle outer arc motif -->
    <path d="M 70 10 A 22 22 0 0 1 60 0"
          fill="none" stroke="white" stroke-width="0.4" stroke-opacity="0.20"/>
  </g>

  <!-- RIGHT: BACK SIDE -->
  <g transform="translate(80,0)">
    <rect width="80" height="50" fill="white"/>

    <!-- Text block -->
    <g font-family="Public Sans" fill="#2B4E5A">
      <text x="6" y="12" font-size="4.2" font-weight="500" letter-spacing="0.2">Dr. Raphael Heeb</text>
      <text x="6" y="18" font-size="3.4" font-weight="400">Founder & Managing Partner</text>

      <text x="6" y="27" font-size="3.0">+41 76 463 06 83</text>
      <text x="6" y="32" font-size="3.0">raphael.heeb@vaira.ch</text>
      <text x="6" y="37" font-size="3.0" letter-spacing="0.3">www.vaira.ch</text>
    </g>

    <!-- Subtle inner arc motif -->
    <path d="M 80 50 A 16 16 0 0 0 64 34"
          fill="none" stroke="#2B4E5A" stroke-width="0.35" stroke-opacity="0.12"/>
    <line x1="72" y1="42" x2="74" y2="44"
          stroke="#2B4E5A" stroke-width="0.3" stroke-opacity="0.12"/>
  </g>

</svg>
