<svg xmlns="http://www.w3.org/2000/svg" width="85mm" height="55mm" viewBox="0 0 85 55"><style>text{font-family:-apple-system,system-ui,&quot;Public Sans&quot;,sans-serif}</style><path fill="#2b4e5a" d="M0 0h85v55H0z"/><defs><linearGradient id="gridCombinedFade" x1="0" x2="85" y1="0" y2="55" gradientUnits="userSpaceOnUse"><stop offset="0%" stop-color="#fff" stop-opacity=".015"/><stop offset="20%" stop-color="#fff" stop-opacity=".045"/><stop offset="50%" stop-color="#fff" stop-opacity=".045"/><stop offset="80%" stop-color="#fff" stop-opacity=".045"/><stop offset="100%" stop-color="#fff" stop-opacity=".015"/></linearGradient><linearGradient id="centerCombinedFade" x1="0" x2="85" y1="0" y2="55" gradientUnits="userSpaceOnUse"><stop offset="0%" stop-color="#fff" stop-opacity=".06"/><stop offset="20%" stop-color="#fff" stop-opacity=".1"/><stop offset="50%" stop-color="#fff" stop-opacity=".1"/><stop offset="80%" stop-color="#fff" stop-opacity=".1"/><stop offset="100%" stop-color="#fff" stop-opacity=".06"/></linearGradient></defs><g stroke-width=".25"><path stroke="url(#gridCombinedFade)" d="M12.5 0v55"/><path stroke="url(#gridCombinedFade)" d="M22.5 0v55"/><path stroke="url(#gridCombinedFade)" d="M32.5 0v55"/><path stroke="url(#centerCombinedFade)" d="M42.5 0v55"/><path stroke="url(#gridCombinedFade)" d="M52.5 0v55"/><path stroke="url(#gridCombinedFade)" d="M62.5 0v55"/><path stroke="url(#gridCombinedFade)" d="M72.5 0v55"/></g><rect width="35" height="13.2" x="25" y="16.4" fill="#2b4e5a" rx="4" ry="4"/><path fill="#2b4e5a" d="M2.5 36.33h80v5.5h-80z"/><path fill="#2b4e5a" d="M17.27 40.93h50.47v5.5H17.27z"/><path fill="#fff" d="M30.423 26.331 27.48 20.07h1.046l2.53 5.353 2.532-5.353h1.045l-2.936 6.262Zm4.107 0 2.989-6.262h1.194l2.988 6.262h-1.08l-.811-1.715h-3.388l-.817 1.715zm2.171-2.45h2.817l-1.405-3.028Zm5.714 2.45V20.07h1.057v6.262zm2.973 0V20.07h3.2q.89 0 1.49.208.6.204.898.59.297.38.297.913 0 .51-.24.849-.234.337-.6.545-.366.204-.76.316l1.623 2.841h-1.12l-1.508-2.698h-2.223v2.698zm1.057-3.36h1.8q.931 0 1.44-.286.508-.29.508-.857 0-.555-.457-.828-.451-.277-1.24-.277h-2.051zm5.796 3.36 2.988-6.262h1.194l2.988 6.262h-1.08l-.811-1.715h-3.388l-.817 1.715zm2.17-2.45h2.817l-1.405-3.028z"/><text x="42.5" y="40.4" fill="#fff" font-size="3.8" letter-spacing=".35" text-anchor="middle">
    Technology from Early Concept
  </text><text x="42.5" y="45" fill="#fff" font-size="3.8" letter-spacing=".35" text-anchor="middle">
    to Industrial Scale
  </text></svg>