<svg width="85mm" height="55mm" viewBox="0 0 85 55" xmlns="http://www.w3.org/2000/svg">
  <style>
    text {
      font-family: -apple-system, system-ui, "Public Sans", sans-serif;
      fill: #2B4E5A;
    }
  </style>

  <!-- Background -->
  <rect width="85" height="55" fill="#FFFFFF"/>

  <!-- NAME + TITLE -->
  <text x="22.5" y="18" font-size="4.2" font-weight="500" letter-spacing="0.2">
    Dr. Raphael Heeb
  </text>

  <text x="22.5" y="24" font-size="3.4">
    Founder &amp; Managing Partner
  </text>

  <!-- CONTACT BLOCK -->
  <text x="22.5" y="34" font-size="3.0">+41 76 463 06 83</text>
  <text x="22.5" y="38" font-size="3.0">raphael.heeb@vaira.ch</text>
  <text x="22.5" y="42" font-size="3.0" letter-spacing="0.3">www.vaira.ch</text>

  <!-- QR CODE: right-aligned, vertically centered on contact block -->
  <g id="qr" transform="translate(62.7, 29)">
    
    <!-- 15×15 mm frame with rounded corners -->
    <rect width="15" height="15"
          fill="#FFFFFF"
          stroke="#2B4E5A"
          stroke-width="0.6"
          rx="1.6" ry="1.6"/>

    <!-- Center the 12.5×12.5 mm QR inside the 15×15 frame -->
    <g transform="translate(1.25, 1.25)">
      <!-- Scale 370×370 QR to 12.5 mm -->
      <g id="qr-content" transform="scale(0.0338)" fill="#2B4E5A">
        
        <!-- PASTE ONLY THE INNER CONTENT OF YOUR QR SVG HERE -->
	  
		<g id="elements" fill="#000000" stroke="none">
		<rect x="0" y="0" width="10" height="10" />
		<rect x="10" y="0" width="10" height="10" />
		<rect x="20" y="0" width="10" height="10" />
		<rect x="30" y="0" width="10" height="10" />
		<rect x="40" y="0" width="10" height="10" />
		<rect x="50" y="0" width="10" height="10" />
		<rect x="60" y="0" width="10" height="10" />
		<rect x="110" y="0" width="10" height="10" />
		<rect x="130" y="0" width="10" height="10" />
		<rect x="170" y="0" width="10" height="10" />
		<rect x="180" y="0" width="10" height="10" />
		<rect x="200" y="0" width="10" height="10" />
		<rect x="210" y="0" width="10" height="10" />
		<rect x="220" y="0" width="10" height="10" />
		<rect x="240" y="0" width="10" height="10" />
		<rect x="250" y="0" width="10" height="10" />
		<rect x="260" y="0" width="10" height="10" />
		<rect x="270" y="0" width="10" height="10" />
		<rect x="280" y="0" width="10" height="10" />
		<rect x="300" y="0" width="10" height="10" />
		<rect x="310" y="0" width="10" height="10" />
		<rect x="320" y="0" width="10" height="10" />
		<rect x="330" y="0" width="10" height="10" />
		<rect x="340" y="0" width="10" height="10" />
		<rect x="350" y="0" width="10" height="10" />
		<rect x="360" y="0" width="10" height="10" />
		<rect x="0" y="10" width="10" height="10" />
		<rect x="60" y="10" width="10" height="10" />
		<rect x="90" y="10" width="10" height="10" />
		<rect x="100" y="10" width="10" height="10" />
		<rect x="130" y="10" width="10" height="10" />
		<rect x="140" y="10" width="10" height="10" />
		<rect x="160" y="10" width="10" height="10" />
		<rect x="170" y="10" width="10" height="10" />
		<rect x="210" y="10" width="10" height="10" />
		<rect x="220" y="10" width="10" height="10" />
		<rect x="260" y="10" width="10" height="10" />
		<rect x="280" y="10" width="10" height="10" />
		<rect x="300" y="10" width="10" height="10" />
		<rect x="360" y="10" width="10" height="10" />
		<rect x="0" y="20" width="10" height="10" />
		<rect x="20" y="20" width="10" height="10" />
		<rect x="30" y="20" width="10" height="10" />
		<rect x="40" y="20" width="10" height="10" />
		<rect x="60" y="20" width="10" height="10" />
		<rect x="80" y="20" width="10" height="10" />
		<rect x="90" y="20" width="10" height="10" />
		<rect x="120" y="20" width="10" height="10" />
		<rect x="140" y="20" width="10" height="10" />
		<rect x="180" y="20" width="10" height="10" />
		<rect x="190" y="20" width="10" height="10" />
		<rect x="200" y="20" width="10" height="10" />
		<rect x="210" y="20" width="10" height="10" />
		<rect x="220" y="20" width="10" height="10" />
		<rect x="230" y="20" width="10" height="10" />
		<rect x="280" y="20" width="10" height="10" />
		<rect x="300" y="20" width="10" height="10" />
		<rect x="320" y="20" width="10" height="10" />
		<rect x="330" y="20" width="10" height="10" />
		<rect x="340" y="20" width="10" height="10" />
		<rect x="360" y="20" width="10" height="10" />
		<rect x="0" y="30" width="10" height="10" />
		<rect x="20" y="30" width="10" height="10" />
		<rect x="30" y="30" width="10" height="10" />
		<rect x="40" y="30" width="10" height="10" />
		<rect x="60" y="30" width="10" height="10" />
		<rect x="100" y="30" width="10" height="10" />
		<rect x="110" y="30" width="10" height="10" />
		<rect x="140" y="30" width="10" height="10" />
		<rect x="170" y="30" width="10" height="10" />
		<rect x="190" y="30" width="10" height="10" />
		<rect x="230" y="30" width="10" height="10" />
		<rect x="240" y="30" width="10" height="10" />
		<rect x="250" y="30" width="10" height="10" />
		<rect x="260" y="30" width="10" height="10" />
		<rect x="270" y="30" width="10" height="10" />
		<rect x="280" y="30" width="10" height="10" />
		<rect x="300" y="30" width="10" height="10" />
		<rect x="320" y="30" width="10" height="10" />
		<rect x="330" y="30" width="10" height="10" />
		<rect x="340" y="30" width="10" height="10" />
		<rect x="360" y="30" width="10" height="10" />
		<rect x="0" y="40" width="10" height="10" />
		<rect x="20" y="40" width="10" height="10" />
		<rect x="30" y="40" width="10" height="10" />
		<rect x="40" y="40" width="10" height="10" />
		<rect x="60" y="40" width="10" height="10" />
		<rect x="80" y="40" width="10" height="10" />
		<rect x="90" y="40" width="10" height="10" />
		<rect x="150" y="40" width="10" height="10" />
		<rect x="180" y="40" width="10" height="10" />
		<rect x="210" y="40" width="10" height="10" />
		<rect x="230" y="40" width="10" height="10" />
		<rect x="250" y="40" width="10" height="10" />
		<rect x="260" y="40" width="10" height="10" />
		<rect x="270" y="40" width="10" height="10" />
		<rect x="300" y="40" width="10" height="10" />
		<rect x="320" y="40" width="10" height="10" />
		<rect x="330" y="40" width="10" height="10" />
		<rect x="340" y="40" width="10" height="10" />
		<rect x="360" y="40" width="10" height="10" />
		<rect x="0" y="50" width="10" height="10" />
		<rect x="60" y="50" width="10" height="10" />
		<rect x="80" y="50" width="10" height="10" />
		<rect x="120" y="50" width="10" height="10" />
		<rect x="130" y="50" width="10" height="10" />
		<rect x="140" y="50" width="10" height="10" />
		<rect x="160" y="50" width="10" height="10" />
		<rect x="200" y="50" width="10" height="10" />
		<rect x="210" y="50" width="10" height="10" />
		<rect x="220" y="50" width="10" height="10" />
		<rect x="240" y="50" width="10" height="10" />
		<rect x="250" y="50" width="10" height="10" />
		<rect x="260" y="50" width="10" height="10" />
		<rect x="280" y="50" width="10" height="10" />
		<rect x="300" y="50" width="10" height="10" />
		<rect x="360" y="50" width="10" height="10" />
		<rect x="0" y="60" width="10" height="10" />
		<rect x="10" y="60" width="10" height="10" />
		<rect x="20" y="60" width="10" height="10" />
		<rect x="30" y="60" width="10" height="10" />
		<rect x="40" y="60" width="10" height="10" />
		<rect x="50" y="60" width="10" height="10" />
		<rect x="60" y="60" width="10" height="10" />
		<rect x="80" y="60" width="10" height="10" />
		<rect x="100" y="60" width="10" height="10" />
		<rect x="120" y="60" width="10" height="10" />
		<rect x="140" y="60" width="10" height="10" />
		<rect x="160" y="60" width="10" height="10" />
		<rect x="180" y="60" width="10" height="10" />
		<rect x="200" y="60" width="10" height="10" />
		<rect x="220" y="60" width="10" height="10" />
		<rect x="240" y="60" width="10" height="10" />
		<rect x="260" y="60" width="10" height="10" />
		<rect x="280" y="60" width="10" height="10" />
		<rect x="300" y="60" width="10" height="10" />
		<rect x="310" y="60" width="10" height="10" />
		<rect x="320" y="60" width="10" height="10" />
		<rect x="330" y="60" width="10" height="10" />
		<rect x="340" y="60" width="10" height="10" />
		<rect x="350" y="60" width="10" height="10" />
		<rect x="360" y="60" width="10" height="10" />
		<rect x="90" y="70" width="10" height="10" />
		<rect x="100" y="70" width="10" height="10" />
		<rect x="120" y="70" width="10" height="10" />
		<rect x="160" y="70" width="10" height="10" />
		<rect x="170" y="70" width="10" height="10" />
		<rect x="210" y="70" width="10" height="10" />
		<rect x="230" y="70" width="10" height="10" />
		<rect x="240" y="70" width="10" height="10" />
		<rect x="260" y="70" width="10" height="10" />
		<rect x="10" y="80" width="10" height="10" />
		<rect x="40" y="80" width="10" height="10" />
		<rect x="60" y="80" width="10" height="10" />
		<rect x="80" y="80" width="10" height="10" />
		<rect x="120" y="80" width="10" height="10" />
		<rect x="160" y="80" width="10" height="10" />
		<rect x="170" y="80" width="10" height="10" />
		<rect x="200" y="80" width="10" height="10" />
		<rect x="210" y="80" width="10" height="10" />
		<rect x="220" y="80" width="10" height="10" />
		<rect x="240" y="80" width="10" height="10" />
		<rect x="250" y="80" width="10" height="10" />
		<rect x="260" y="80" width="10" height="10" />
		<rect x="270" y="80" width="10" height="10" />
		<rect x="290" y="80" width="10" height="10" />
		<rect x="310" y="80" width="10" height="10" />
		<rect x="320" y="80" width="10" height="10" />
		<rect x="340" y="80" width="10" height="10" />
		<rect x="0" y="90" width="10" height="10" />
		<rect x="10" y="90" width="10" height="10" />
		<rect x="20" y="90" width="10" height="10" />
		<rect x="50" y="90" width="10" height="10" />
		<rect x="70" y="90" width="10" height="10" />
		<rect x="90" y="90" width="10" height="10" />
		<rect x="110" y="90" width="10" height="10" />
		<rect x="140" y="90" width="10" height="10" />
		<rect x="190" y="90" width="10" height="10" />
		<rect x="200" y="90" width="10" height="10" />
		<rect x="230" y="90" width="10" height="10" />
		<rect x="280" y="90" width="10" height="10" />
		<rect x="290" y="90" width="10" height="10" />
		<rect x="300" y="90" width="10" height="10" />
		<rect x="310" y="90" width="10" height="10" />
		<rect x="320" y="90" width="10" height="10" />
		<rect x="50" y="100" width="10" height="10" />
		<rect x="60" y="100" width="10" height="10" />
		<rect x="110" y="100" width="10" height="10" />
		<rect x="130" y="100" width="10" height="10" />
		<rect x="150" y="100" width="10" height="10" />
		<rect x="190" y="100" width="10" height="10" />
		<rect x="200" y="100" width="10" height="10" />
		<rect x="230" y="100" width="10" height="10" />
		<rect x="240" y="100" width="10" height="10" />
		<rect x="250" y="100" width="10" height="10" />
		<rect x="260" y="100" width="10" height="10" />
		<rect x="280" y="100" width="10" height="10" />
		<rect x="290" y="100" width="10" height="10" />
		<rect x="310" y="100" width="10" height="10" />
		<rect x="330" y="100" width="10" height="10" />
		<rect x="0" y="110" width="10" height="10" />
		<rect x="10" y="110" width="10" height="10" />
		<rect x="20" y="110" width="10" height="10" />
		<rect x="30" y="110" width="10" height="10" />
		<rect x="40" y="110" width="10" height="10" />
		<rect x="90" y="110" width="10" height="10" />
		<rect x="110" y="110" width="10" height="10" />
		<rect x="150" y="110" width="10" height="10" />
		<rect x="170" y="110" width="10" height="10" />
		<rect x="180" y="110" width="10" height="10" />
		<rect x="190" y="110" width="10" height="10" />
		<rect x="200" y="110" width="10" height="10" />
		<rect x="210" y="110" width="10" height="10" />
		<rect x="220" y="110" width="10" height="10" />
		<rect x="260" y="110" width="10" height="10" />
		<rect x="290" y="110" width="10" height="10" />
		<rect x="340" y="110" width="10" height="10" />
		<rect x="0" y="120" width="10" height="10" />
		<rect x="60" y="120" width="10" height="10" />
		<rect x="90" y="120" width="10" height="10" />
		<rect x="110" y="120" width="10" height="10" />
		<rect x="120" y="120" width="10" height="10" />
		<rect x="140" y="120" width="10" height="10" />
		<rect x="160" y="120" width="10" height="10" />
		<rect x="170" y="120" width="10" height="10" />
		<rect x="180" y="120" width="10" height="10" />
		<rect x="190" y="120" width="10" height="10" />
		<rect x="210" y="120" width="10" height="10" />
		<rect x="220" y="120" width="10" height="10" />
		<rect x="240" y="120" width="10" height="10" />
		<rect x="270" y="120" width="10" height="10" />
		<rect x="280" y="120" width="10" height="10" />
		<rect x="290" y="120" width="10" height="10" />
		<rect x="300" y="120" width="10" height="10" />
		<rect x="330" y="120" width="10" height="10" />
		<rect x="340" y="120" width="10" height="10" />
		<rect x="360" y="120" width="10" height="10" />
		<rect x="50" y="130" width="10" height="10" />
		<rect x="70" y="130" width="10" height="10" />
		<rect x="80" y="130" width="10" height="10" />
		<rect x="100" y="130" width="10" height="10" />
		<rect x="110" y="130" width="10" height="10" />
		<rect x="120" y="130" width="10" height="10" />
		<rect x="130" y="130" width="10" height="10" />
		<rect x="170" y="130" width="10" height="10" />
		<rect x="180" y="130" width="10" height="10" />
		<rect x="210" y="130" width="10" height="10" />
		<rect x="230" y="130" width="10" height="10" />
		<rect x="240" y="130" width="10" height="10" />
		<rect x="270" y="130" width="10" height="10" />
		<rect x="280" y="130" width="10" height="10" />
		<rect x="290" y="130" width="10" height="10" />
		<rect x="320" y="130" width="10" height="10" />
		<rect x="340" y="130" width="10" height="10" />
		<rect x="20" y="140" width="10" height="10" />
		<rect x="30" y="140" width="10" height="10" />
		<rect x="50" y="140" width="10" height="10" />
		<rect x="60" y="140" width="10" height="10" />
		<rect x="80" y="140" width="10" height="10" />
		<rect x="120" y="140" width="10" height="10" />
		<rect x="140" y="140" width="10" height="10" />
		<rect x="170" y="140" width="10" height="10" />
		<rect x="180" y="140" width="10" height="10" />
		<rect x="200" y="140" width="10" height="10" />
		<rect x="230" y="140" width="10" height="10" />
		<rect x="240" y="140" width="10" height="10" />
		<rect x="250" y="140" width="10" height="10" />
		<rect x="260" y="140" width="10" height="10" />
		<rect x="270" y="140" width="10" height="10" />
		<rect x="290" y="140" width="10" height="10" />
		<rect x="300" y="140" width="10" height="10" />
		<rect x="310" y="140" width="10" height="10" />
		<rect x="320" y="140" width="10" height="10" />
		<rect x="330" y="140" width="10" height="10" />
		<rect x="340" y="140" width="10" height="10" />
		<rect x="0" y="150" width="10" height="10" />
		<rect x="50" y="150" width="10" height="10" />
		<rect x="80" y="150" width="10" height="10" />
		<rect x="90" y="150" width="10" height="10" />
		<rect x="110" y="150" width="10" height="10" />
		<rect x="120" y="150" width="10" height="10" />
		<rect x="140" y="150" width="10" height="10" />
		<rect x="150" y="150" width="10" height="10" />
		<rect x="170" y="150" width="10" height="10" />
		<rect x="180" y="150" width="10" height="10" />
		<rect x="220" y="150" width="10" height="10" />
		<rect x="240" y="150" width="10" height="10" />
		<rect x="260" y="150" width="10" height="10" />
		<rect x="270" y="150" width="10" height="10" />
		<rect x="280" y="150" width="10" height="10" />
		<rect x="310" y="150" width="10" height="10" />
		<rect x="320" y="150" width="10" height="10" />
		<rect x="340" y="150" width="10" height="10" />
		<rect x="350" y="150" width="10" height="10" />
		<rect x="360" y="150" width="10" height="10" />
		<rect x="0" y="160" width="10" height="10" />
		<rect x="10" y="160" width="10" height="10" />
		<rect x="30" y="160" width="10" height="10" />
		<rect x="40" y="160" width="10" height="10" />
		<rect x="50" y="160" width="10" height="10" />
		<rect x="60" y="160" width="10" height="10" />
		<rect x="80" y="160" width="10" height="10" />
		<rect x="120" y="160" width="10" height="10" />
		<rect x="150" y="160" width="10" height="10" />
		<rect x="180" y="160" width="10" height="10" />
		<rect x="190" y="160" width="10" height="10" />
		<rect x="220" y="160" width="10" height="10" />
		<rect x="240" y="160" width="10" height="10" />
		<rect x="270" y="160" width="10" height="10" />
		<rect x="290" y="160" width="10" height="10" />
		<rect x="300" y="160" width="10" height="10" />
		<rect x="310" y="160" width="10" height="10" />
		<rect x="330" y="160" width="10" height="10" />
		<rect x="340" y="160" width="10" height="10" />
		<rect x="350" y="160" width="10" height="10" />
		<rect x="0" y="170" width="10" height="10" />
		<rect x="10" y="170" width="10" height="10" />
		<rect x="20" y="170" width="10" height="10" />
		<rect x="40" y="170" width="10" height="10" />
		<rect x="70" y="170" width="10" height="10" />
		<rect x="80" y="170" width="10" height="10" />
		<rect x="90" y="170" width="10" height="10" />
		<rect x="100" y="170" width="10" height="10" />
		<rect x="110" y="170" width="10" height="10" />
		<rect x="140" y="170" width="10" height="10" />
		<rect x="150" y="170" width="10" height="10" />
		<rect x="180" y="170" width="10" height="10" />
		<rect x="190" y="170" width="10" height="10" />
		<rect x="200" y="170" width="10" height="10" />
		<rect x="210" y="170" width="10" height="10" />
		<rect x="250" y="170" width="10" height="10" />
		<rect x="260" y="170" width="10" height="10" />
		<rect x="270" y="170" width="10" height="10" />
		<rect x="280" y="170" width="10" height="10" />
		<rect x="320" y="170" width="10" height="10" />
		<rect x="340" y="170" width="10" height="10" />
		<rect x="40" y="180" width="10" height="10" />
		<rect x="60" y="180" width="10" height="10" />
		<rect x="70" y="180" width="10" height="10" />
		<rect x="80" y="180" width="10" height="10" />
		<rect x="110" y="180" width="10" height="10" />
		<rect x="150" y="180" width="10" height="10" />
		<rect x="170" y="180" width="10" height="10" />
		<rect x="190" y="180" width="10" height="10" />
		<rect x="210" y="180" width="10" height="10" />
		<rect x="270" y="180" width="10" height="10" />
		<rect x="280" y="180" width="10" height="10" />
		<rect x="40" y="190" width="10" height="10" />
		<rect x="70" y="190" width="10" height="10" />
		<rect x="80" y="190" width="10" height="10" />
		<rect x="100" y="190" width="10" height="10" />
		<rect x="110" y="190" width="10" height="10" />
		<rect x="160" y="190" width="10" height="10" />
		<rect x="180" y="190" width="10" height="10" />
		<rect x="200" y="190" width="10" height="10" />
		<rect x="210" y="190" width="10" height="10" />
		<rect x="220" y="190" width="10" height="10" />
		<rect x="240" y="190" width="10" height="10" />
		<rect x="260" y="190" width="10" height="10" />
		<rect x="290" y="190" width="10" height="10" />
		<rect x="300" y="190" width="10" height="10" />
		<rect x="310" y="190" width="10" height="10" />
		<rect x="340" y="190" width="10" height="10" />
		<rect x="360" y="190" width="10" height="10" />
		<rect x="10" y="200" width="10" height="10" />
		<rect x="50" y="200" width="10" height="10" />
		<rect x="60" y="200" width="10" height="10" />
		<rect x="80" y="200" width="10" height="10" />
		<rect x="90" y="200" width="10" height="10" />
		<rect x="100" y="200" width="10" height="10" />
		<rect x="110" y="200" width="10" height="10" />
		<rect x="120" y="200" width="10" height="10" />
		<rect x="150" y="200" width="10" height="10" />
		<rect x="180" y="200" width="10" height="10" />
		<rect x="190" y="200" width="10" height="10" />
		<rect x="210" y="200" width="10" height="10" />
		<rect x="220" y="200" width="10" height="10" />
		<rect x="230" y="200" width="10" height="10" />
		<rect x="240" y="200" width="10" height="10" />
		<rect x="260" y="200" width="10" height="10" />
		<rect x="270" y="200" width="10" height="10" />
		<rect x="290" y="200" width="10" height="10" />
		<rect x="300" y="200" width="10" height="10" />
		<rect x="340" y="200" width="10" height="10" />
		<rect x="350" y="200" width="10" height="10" />
		<rect x="10" y="210" width="10" height="10" />
		<rect x="20" y="210" width="10" height="10" />
		<rect x="40" y="210" width="10" height="10" />
		<rect x="80" y="210" width="10" height="10" />
		<rect x="90" y="210" width="10" height="10" />
		<rect x="100" y="210" width="10" height="10" />
		<rect x="120" y="210" width="10" height="10" />
		<rect x="140" y="210" width="10" height="10" />
		<rect x="170" y="210" width="10" height="10" />
		<rect x="180" y="210" width="10" height="10" />
		<rect x="210" y="210" width="10" height="10" />
		<rect x="230" y="210" width="10" height="10" />
		<rect x="260" y="210" width="10" height="10" />
		<rect x="270" y="210" width="10" height="10" />
		<rect x="320" y="210" width="10" height="10" />
		<rect x="330" y="210" width="10" height="10" />
		<rect x="340" y="210" width="10" height="10" />
		<rect x="350" y="210" width="10" height="10" />
		<rect x="0" y="220" width="10" height="10" />
		<rect x="30" y="220" width="10" height="10" />
		<rect x="40" y="220" width="10" height="10" />
		<rect x="60" y="220" width="10" height="10" />
		<rect x="70" y="220" width="10" height="10" />
		<rect x="90" y="220" width="10" height="10" />
		<rect x="110" y="220" width="10" height="10" />
		<rect x="150" y="220" width="10" height="10" />
		<rect x="190" y="220" width="10" height="10" />
		<rect x="200" y="220" width="10" height="10" />
		<rect x="210" y="220" width="10" height="10" />
		<rect x="230" y="220" width="10" height="10" />
		<rect x="240" y="220" width="10" height="10" />
		<rect x="250" y="220" width="10" height="10" />
		<rect x="260" y="220" width="10" height="10" />
		<rect x="270" y="220" width="10" height="10" />
		<rect x="280" y="220" width="10" height="10" />
		<rect x="300" y="220" width="10" height="10" />
		<rect x="330" y="220" width="10" height="10" />
		<rect x="0" y="230" width="10" height="10" />
		<rect x="20" y="230" width="10" height="10" />
		<rect x="30" y="230" width="10" height="10" />
		<rect x="70" y="230" width="10" height="10" />
		<rect x="100" y="230" width="10" height="10" />
		<rect x="120" y="230" width="10" height="10" />
		<rect x="130" y="230" width="10" height="10" />
		<rect x="140" y="230" width="10" height="10" />
		<rect x="170" y="230" width="10" height="10" />
		<rect x="180" y="230" width="10" height="10" />
		<rect x="210" y="230" width="10" height="10" />
		<rect x="230" y="230" width="10" height="10" />
		<rect x="250" y="230" width="10" height="10" />
		<rect x="280" y="230" width="10" height="10" />
		<rect x="290" y="230" width="10" height="10" />
		<rect x="300" y="230" width="10" height="10" />
		<rect x="310" y="230" width="10" height="10" />
		<rect x="340" y="230" width="10" height="10" />
		<rect x="360" y="230" width="10" height="10" />
		<rect x="40" y="240" width="10" height="10" />
		<rect x="60" y="240" width="10" height="10" />
		<rect x="70" y="240" width="10" height="10" />
		<rect x="80" y="240" width="10" height="10" />
		<rect x="90" y="240" width="10" height="10" />
		<rect x="100" y="240" width="10" height="10" />
		<rect x="120" y="240" width="10" height="10" />
		<rect x="130" y="240" width="10" height="10" />
		<rect x="140" y="240" width="10" height="10" />
		<rect x="160" y="240" width="10" height="10" />
		<rect x="180" y="240" width="10" height="10" />
		<rect x="210" y="240" width="10" height="10" />
		<rect x="220" y="240" width="10" height="10" />
		<rect x="240" y="240" width="10" height="10" />
		<rect x="250" y="240" width="10" height="10" />
		<rect x="270" y="240" width="10" height="10" />
		<rect x="280" y="240" width="10" height="10" />
		<rect x="290" y="240" width="10" height="10" />
		<rect x="310" y="240" width="10" height="10" />
		<rect x="320" y="240" width="10" height="10" />
		<rect x="330" y="240" width="10" height="10" />
		<rect x="340" y="240" width="10" height="10" />
		<rect x="350" y="240" width="10" height="10" />
		<rect x="0" y="250" width="10" height="10" />
		<rect x="10" y="250" width="10" height="10" />
		<rect x="30" y="250" width="10" height="10" />
		<rect x="40" y="250" width="10" height="10" />
		<rect x="50" y="250" width="10" height="10" />
		<rect x="70" y="250" width="10" height="10" />
		<rect x="80" y="250" width="10" height="10" />
		<rect x="90" y="250" width="10" height="10" />
		<rect x="110" y="250" width="10" height="10" />
		<rect x="120" y="250" width="10" height="10" />
		<rect x="130" y="250" width="10" height="10" />
		<rect x="140" y="250" width="10" height="10" />
		<rect x="160" y="250" width="10" height="10" />
		<rect x="190" y="250" width="10" height="10" />
		<rect x="210" y="250" width="10" height="10" />
		<rect x="220" y="250" width="10" height="10" />
		<rect x="230" y="250" width="10" height="10" />
		<rect x="250" y="250" width="10" height="10" />
		<rect x="260" y="250" width="10" height="10" />
		<rect x="300" y="250" width="10" height="10" />
		<rect x="340" y="250" width="10" height="10" />
		<rect x="60" y="260" width="10" height="10" />
		<rect x="100" y="260" width="10" height="10" />
		<rect x="110" y="260" width="10" height="10" />
		<rect x="150" y="260" width="10" height="10" />
		<rect x="170" y="260" width="10" height="10" />
		<rect x="180" y="260" width="10" height="10" />
		<rect x="210" y="260" width="10" height="10" />
		<rect x="220" y="260" width="10" height="10" />
		<rect x="230" y="260" width="10" height="10" />
		<rect x="240" y="260" width="10" height="10" />
		<rect x="250" y="260" width="10" height="10" />
		<rect x="260" y="260" width="10" height="10" />
		<rect x="270" y="260" width="10" height="10" />
		<rect x="290" y="260" width="10" height="10" />
		<rect x="320" y="260" width="10" height="10" />
		<rect x="340" y="260" width="10" height="10" />
		<rect x="30" y="270" width="10" height="10" />
		<rect x="40" y="270" width="10" height="10" />
		<rect x="70" y="270" width="10" height="10" />
		<rect x="90" y="270" width="10" height="10" />
		<rect x="110" y="270" width="10" height="10" />
		<rect x="120" y="270" width="10" height="10" />
		<rect x="130" y="270" width="10" height="10" />
		<rect x="140" y="270" width="10" height="10" />
		<rect x="150" y="270" width="10" height="10" />
		<rect x="160" y="270" width="10" height="10" />
		<rect x="210" y="270" width="10" height="10" />
		<rect x="240" y="270" width="10" height="10" />
		<rect x="260" y="270" width="10" height="10" />
		<rect x="270" y="270" width="10" height="10" />
		<rect x="280" y="270" width="10" height="10" />
		<rect x="300" y="270" width="10" height="10" />
		<rect x="310" y="270" width="10" height="10" />
		<rect x="320" y="270" width="10" height="10" />
		<rect x="330" y="270" width="10" height="10" />
		<rect x="340" y="270" width="10" height="10" />
		<rect x="350" y="270" width="10" height="10" />
		<rect x="0" y="280" width="10" height="10" />
		<rect x="10" y="280" width="10" height="10" />
		<rect x="30" y="280" width="10" height="10" />
		<rect x="60" y="280" width="10" height="10" />
		<rect x="90" y="280" width="10" height="10" />
		<rect x="120" y="280" width="10" height="10" />
		<rect x="140" y="280" width="10" height="10" />
		<rect x="160" y="280" width="10" height="10" />
		<rect x="170" y="280" width="10" height="10" />
		<rect x="180" y="280" width="10" height="10" />
		<rect x="210" y="280" width="10" height="10" />
		<rect x="220" y="280" width="10" height="10" />
		<rect x="230" y="280" width="10" height="10" />
		<rect x="280" y="280" width="10" height="10" />
		<rect x="290" y="280" width="10" height="10" />
		<rect x="300" y="280" width="10" height="10" />
		<rect x="310" y="280" width="10" height="10" />
		<rect x="320" y="280" width="10" height="10" />
		<rect x="360" y="280" width="10" height="10" />
		<rect x="80" y="290" width="10" height="10" />
		<rect x="120" y="290" width="10" height="10" />
		<rect x="140" y="290" width="10" height="10" />
		<rect x="150" y="290" width="10" height="10" />
		<rect x="160" y="290" width="10" height="10" />
		<rect x="180" y="290" width="10" height="10" />
		<rect x="200" y="290" width="10" height="10" />
		<rect x="220" y="290" width="10" height="10" />
		<rect x="230" y="290" width="10" height="10" />
		<rect x="280" y="290" width="10" height="10" />
		<rect x="320" y="290" width="10" height="10" />
		<rect x="330" y="290" width="10" height="10" />
		<rect x="0" y="300" width="10" height="10" />
		<rect x="10" y="300" width="10" height="10" />
		<rect x="20" y="300" width="10" height="10" />
		<rect x="30" y="300" width="10" height="10" />
		<rect x="40" y="300" width="10" height="10" />
		<rect x="50" y="300" width="10" height="10" />
		<rect x="60" y="300" width="10" height="10" />
		<rect x="90" y="300" width="10" height="10" />
		<rect x="100" y="300" width="10" height="10" />
		<rect x="120" y="300" width="10" height="10" />
		<rect x="140" y="300" width="10" height="10" />
		<rect x="170" y="300" width="10" height="10" />
		<rect x="190" y="300" width="10" height="10" />
		<rect x="210" y="300" width="10" height="10" />
		<rect x="220" y="300" width="10" height="10" />
		<rect x="230" y="300" width="10" height="10" />
		<rect x="240" y="300" width="10" height="10" />
		<rect x="260" y="300" width="10" height="10" />
		<rect x="280" y="300" width="10" height="10" />
		<rect x="300" y="300" width="10" height="10" />
		<rect x="320" y="300" width="10" height="10" />
		<rect x="330" y="300" width="10" height="10" />
		<rect x="340" y="300" width="10" height="10" />
		<rect x="0" y="310" width="10" height="10" />
		<rect x="60" y="310" width="10" height="10" />
		<rect x="100" y="310" width="10" height="10" />
		<rect x="150" y="310" width="10" height="10" />
		<rect x="210" y="310" width="10" height="10" />
		<rect x="240" y="310" width="10" height="10" />
		<rect x="260" y="310" width="10" height="10" />
		<rect x="280" y="310" width="10" height="10" />
		<rect x="320" y="310" width="10" height="10" />
		<rect x="340" y="310" width="10" height="10" />
		<rect x="0" y="320" width="10" height="10" />
		<rect x="20" y="320" width="10" height="10" />
		<rect x="30" y="320" width="10" height="10" />
		<rect x="40" y="320" width="10" height="10" />
		<rect x="60" y="320" width="10" height="10" />
		<rect x="80" y="320" width="10" height="10" />
		<rect x="90" y="320" width="10" height="10" />
		<rect x="100" y="320" width="10" height="10" />
		<rect x="130" y="320" width="10" height="10" />
		<rect x="150" y="320" width="10" height="10" />
		<rect x="160" y="320" width="10" height="10" />
		<rect x="170" y="320" width="10" height="10" />
		<rect x="180" y="320" width="10" height="10" />
		<rect x="190" y="320" width="10" height="10" />
		<rect x="200" y="320" width="10" height="10" />
		<rect x="260" y="320" width="10" height="10" />
		<rect x="280" y="320" width="10" height="10" />
		<rect x="290" y="320" width="10" height="10" />
		<rect x="300" y="320" width="10" height="10" />
		<rect x="310" y="320" width="10" height="10" />
		<rect x="320" y="320" width="10" height="10" />
		<rect x="330" y="320" width="10" height="10" />
		<rect x="340" y="320" width="10" height="10" />
		<rect x="0" y="330" width="10" height="10" />
		<rect x="20" y="330" width="10" height="10" />
		<rect x="30" y="330" width="10" height="10" />
		<rect x="40" y="330" width="10" height="10" />
		<rect x="60" y="330" width="10" height="10" />
		<rect x="110" y="330" width="10" height="10" />
		<rect x="170" y="330" width="10" height="10" />
		<rect x="190" y="330" width="10" height="10" />
		<rect x="220" y="330" width="10" height="10" />
		<rect x="240" y="330" width="10" height="10" />
		<rect x="260" y="330" width="10" height="10" />
		<rect x="270" y="330" width="10" height="10" />
		<rect x="300" y="330" width="10" height="10" />
		<rect x="310" y="330" width="10" height="10" />
		<rect x="330" y="330" width="10" height="10" />
		<rect x="0" y="340" width="10" height="10" />
		<rect x="20" y="340" width="10" height="10" />
		<rect x="30" y="340" width="10" height="10" />
		<rect x="40" y="340" width="10" height="10" />
		<rect x="60" y="340" width="10" height="10" />
		<rect x="90" y="340" width="10" height="10" />
		<rect x="150" y="340" width="10" height="10" />
		<rect x="160" y="340" width="10" height="10" />
		<rect x="180" y="340" width="10" height="10" />
		<rect x="190" y="340" width="10" height="10" />
		<rect x="220" y="340" width="10" height="10" />
		<rect x="230" y="340" width="10" height="10" />
		<rect x="240" y="340" width="10" height="10" />
		<rect x="260" y="340" width="10" height="10" />
		<rect x="270" y="340" width="10" height="10" />
		<rect x="280" y="340" width="10" height="10" />
		<rect x="300" y="340" width="10" height="10" />
		<rect x="340" y="340" width="10" height="10" />
		<rect x="350" y="340" width="10" height="10" />
		<rect x="0" y="350" width="10" height="10" />
		<rect x="60" y="350" width="10" height="10" />
		<rect x="80" y="350" width="10" height="10" />
		<rect x="90" y="350" width="10" height="10" />
		<rect x="110" y="350" width="10" height="10" />
		<rect x="120" y="350" width="10" height="10" />
		<rect x="130" y="350" width="10" height="10" />
		<rect x="140" y="350" width="10" height="10" />
		<rect x="150" y="350" width="10" height="10" />
		<rect x="170" y="350" width="10" height="10" />
		<rect x="190" y="350" width="10" height="10" />
		<rect x="200" y="350" width="10" height="10" />
		<rect x="210" y="350" width="10" height="10" />
		<rect x="230" y="350" width="10" height="10" />
		<rect x="260" y="350" width="10" height="10" />
		<rect x="270" y="350" width="10" height="10" />
		<rect x="300" y="350" width="10" height="10" />
		<rect x="310" y="350" width="10" height="10" />
		<rect x="340" y="350" width="10" height="10" />
		<rect x="350" y="350" width="10" height="10" />
		<rect x="0" y="360" width="10" height="10" />
		<rect x="10" y="360" width="10" height="10" />
		<rect x="20" y="360" width="10" height="10" />
		<rect x="30" y="360" width="10" height="10" />
		<rect x="40" y="360" width="10" height="10" />
		<rect x="50" y="360" width="10" height="10" />
		<rect x="60" y="360" width="10" height="10" />
		<rect x="90" y="360" width="10" height="10" />
		<rect x="100" y="360" width="10" height="10" />
		<rect x="120" y="360" width="10" height="10" />
		<rect x="140" y="360" width="10" height="10" />
		<rect x="200" y="360" width="10" height="10" />
		<rect x="210" y="360" width="10" height="10" />
		<rect x="220" y="360" width="10" height="10" />
		<rect x="240" y="360" width="10" height="10" />
		<rect x="310" y="360" width="10" height="10" />
		<rect x="340" y="360" width="10" height="10" />
		<rect x="350" y="360" width="10" height="10" />
		<rect x="360" y="360" width="10" height="10" />
	</g>
  			</g>
		</g>
	</g>
</svg>
