<svg xmlns="http://www.w3.org/2000/svg" aria-label="Technical contour illustration" viewBox="0 0 600 600"><defs><style>.c{fill:none;stroke:url(#cadStroke);stroke-width:1.5;vector-effect:non-scaling-stroke}.dash{stroke-dasharray:6 8}</style></defs><g opacity=".2"><path d="M80 270c90-120 350-120 440 0" class="c"/><path d="M60 320c100-110 380-110 480 0" class="c"/><path d="M50 370c110-90 390-90 500 0" class="c"/><path d="M60 420c110-70 370-70 480 0" class="c"/><path d="M80 470c110-50 330-50 440 0" class="c"/><path d="M180 180c-20 80-20 180 0 260" class="c"/><path d="M240 160c-20 90-20 210 0 300" class="c"/><path d="M300 150c-20 100-20 230 0 330" class="c"/><path d="M360 160c-20 90-20 210 0 300" class="c"/><path d="M420 180c-20 80-20 180 0 260" class="c"/><g opacity=".45"><path d="M100 140h400" class="c dash"/><path d="M100 500h400" class="c dash"/><path d="M120 120v400" class="c dash"/><path d="M480 120v400" class="c dash"/></g></g></svg>