<svg width="1584" height="396" viewBox="0 0 1584 396" xmlns="http://www.w3.org/2000/svg">
  <defs>
    <!-- Solid teal -->
    <style>.bg { fill: #2B4E5A; }</style>

    <!-- Website radial fade -->
    <linearGradient id="radialFade" x1="210" y1="210" x2="400" y2="210" gradientUnits="userSpaceOnUse">
      <stop offset="0%" stop-color="white" stop-opacity="0.45" />
      <stop offset="100%" stop-color="white" stop-opacity="0.05" />
    </linearGradient>

    <!-- Vertical softening band behind text -->
    <linearGradient id="textFade" x1="0" y1="0" x2="1" y2="0">
      <stop offset="0%" stop-color="white" stop-opacity="0.06"/>
      <stop offset="100%" stop-color="white" stop-opacity="0"/>
    </linearGradient>

    <!-- CAD stroke gradient -->
    <linearGradient id="cadStroke" x1="0" y1="0" x2="1" y2="1">
      <stop offset="0" stop-color="#B8D4D0" stop-opacity="0.7"/>
      <stop offset="1" stop-color="#B8D4D0" stop-opacity="0.3"/>
    </linearGradient>

    <style>
      .cad { fill: none; stroke: url(#cadStroke); stroke-width: 1.5; vector-effect: non-scaling-stroke; }
      .cad-dash { stroke-dasharray: 6 8; }
    </style>
  </defs>

  <!-- Background -->
  <rect class="bg" x="0" y="0" width="1584" height="396"/>

  <!-- Full hero atmospheric fade -->
  <rect x="0" y="0" width="1584" height="396" fill="url(#radialFade)" opacity="0.22"/>

  <!-- Vertical soft fade behind text -->
  <rect x="480" y="0" width="600" height="396" fill="url(#textFade)" opacity="0.18"/>

  <!-- CAD illustration (right side, refined placement) -->
  <g opacity="0.24" transform="translate(980, -20) scale(0.85)">
    <g>
      <path class="cad" d="M80 270 C170 150, 430 150, 520 270"/>
      <path class="cad" d="M60 320 C160 210, 440 210, 540 320"/>
      <path class="cad" d="M50 370 C160 280, 440 280, 550 370"/>
      <path class="cad" d="M60 420 C170 350, 430 350, 540 420"/>
      <path class="cad" d="M80 470 C190 420, 410 420, 520 470"/>
    </g>

    <g>
      <path class="cad" d="M180 180 C160 260, 160 360, 180 440"/>
      <path class="cad" d="M240 160 C220 250, 220 370, 240 460"/>
      <path class="cad" d="M300 150 C280 250, 280 380, 300 480"/>
      <path class="cad" d="M360 160 C340 250, 340 370, 360 460"/>
      <path class="cad" d="M420 180 C400 260, 400 360, 420 440"/>
    </g>

    <g opacity="0.45">
      <path class="cad cad-dash" d="M100 140 L500 140"/>
      <path class="cad cad-dash" d="M100 500 L500 500"/>
      <path class="cad cad-dash" d="M120 120 L120 520"/>
      <path class="cad cad-dash" d="M480 120 L480 520"/>
    </g>
  </g>

  <!-- Two-line message -->
  <g font-family="Public Sans, system-ui, -apple-system, BlinkMacSystemFont, sans-serif"
     font-weight="500"
     font-size="52"
     letter-spacing="0.8"
     fill="#FFFFFF">
    <text x="520" y="155">Technology from Early Concept</text>
    <text x="520" y="220">to Industrial Scale</text>
  </g>

  <!-- VAIRA emblem (top-right) -->
  <g transform="translate(1424, 40)">
    <rect x="0" y="0" width="120" height="120" rx="14" ry="14" fill="#2B4E5A"/>
    <text x="60" y="72"
          font-family="Public Sans, system-ui, -apple-system, BlinkMacSystemFont, sans-serif"
          font-size="50"
          letter-spacing="3.6"
          text-anchor="middle"
          fill="#FFFFFF">
      VAIRA
    </text>
  </g>
</svg>
