<svg width="1584" height="396" viewBox="0 0 1584 396"
     xmlns="http://www.w3.org/2000/svg">

  <defs>
    <linearGradient id="heroFade" x1="0" y1="0" x2="1" y2="0">
      <stop offset="0%" stop-color="white" stop-opacity="0.24"/>
      <stop offset="20%" stop-color="white" stop-opacity="0.12"/>
      <stop offset="100%" stop-color="white" stop-opacity="0"/>
    </linearGradient>

    <!-- Bottom-left quadrant -->
    <clipPath id="bottomLeft">
      <rect x="0" y="210" width="210" height="210"/>
    </clipPath>
  </defs>

  <!-- Background -->
  <rect width="1584" height="396" fill="#2B4E5A"/>
  <rect width="1584" height="396" fill="url(#heroFade)" opacity="0.24"/>

  <!-- Compact technical motif -->
  <g transform="translate(1280, -40) scale(0.50)" fill="none" clip-path="url(#bottomLeft)">

    <!-- OUTER ARC (60°) -->
    <path d="
      M 210 20
      A 190 190 0 0 1
        210 + 190*sin(60°),
        210 - 190*cos(60°)
      "
      stroke="white" stroke-width="1.4" stroke-opacity="0.50"
      fill="none"
      transform="translate(0,0)
                 rotate(0 210 210)"
    />

    <!-- INNER ARC (45°) -->
    <path d="
      M 210 60
      A 150 150 0 0 1
        210 + 150*sin(45°),
        210 - 150*cos(45°)
      "
      stroke="white" stroke-width="1.0" stroke-opacity="0.35"
      fill="none"
    />

    <!-- RADIAL LINE at 45° (endpoint of inner arc) -->
    <!-- Endpoint: (210 + 150*sin45°, 210 - 150*cos45°) -->
    <line x1="210" y1="210"
          x2="316.06" y2="103.94"
          stroke="white" stroke-width="1.0" stroke-opacity="0.40"/>

    <!-- TICKS (×3 size), centered on radial line -->
    <!-- Perpendicular angle = 45° + 90° = 135° -->

    <!-- INNER TICK (larger) at 30% of radius -->
    <!-- Tick center: 210 + 57*sin45°, 210 - 57*cos45° -->
    <line x1="210 + 40.3 - 12.7" y1="210 - 40.3 + 12.7"
          x2="210 + 40.3 + 12.7" y2="210 - 40.3 - 12.7"
          stroke="white" stroke-width="0.9" stroke-opacity="0.35"/>

    <!-- OUTER TICK (smaller) at 60% of radius -->
    <!-- Tick center: 210 + 114*sin45°, 210 - 114*cos45° -->
    <line x1="210 + 80.6 - 8.5" y1="210 - 80.6 + 8.5"
          x2="210 + 80.6 + 8.5" y2="210 - 80.6 - 8.5"
          stroke="white" stroke-width="0.8" stroke-opacity="0.28"/>

  </g>

  <!-- Tagline -->
  <g font-family="Public Sans, system-ui, -apple-system, BlinkMacSystemFont, sans-serif"
     font-weight="400" font-size="44" fill="#FFFFFF" letter-spacing="0.8">
    <text x="360" y="200">Technology from Early Concept to Industrial Scale</text>
  </g>

</svg>
