<svg xmlns="http://www.w3.org/2000/svg" viewBox="2 2 206 206"><path fill="#2b4e5a" stroke="#2b4e5a" stroke-width="6" d="M20 5h170a15 15 0 0 1 15 15v170a15 15 0 0 1-15 15H20a15 15 0 0 1-15-15V20A15 15 0 0 1 20 5Z"/><path fill="#fff" d="M34.227 114.697 18.42 81.055h5.617l13.598 28.756 13.597-28.756h5.617l-15.777 33.642Zm22.07 0 16.052-33.642h6.416l16.053 33.642h-5.801l-4.36-9.213h-18.2l-4.39 9.213zm11.663-13.168h15.133l-7.551-16.263Zm30.694 13.168V81.055h5.678v33.642zm15.973 0V81.055h17.189q4.788 0 8.011 1.117 3.223 1.093 4.82 3.164 1.595 2.047 1.595 4.91 0 2.744-1.289 4.559-1.258 1.815-3.223 2.931-1.964 1.094-4.082 1.699l8.717 15.262h-6.016l-8.103-14.494h-11.94v14.494zm5.679-18.054h9.668q5.004 0 7.735-1.536 2.732-1.558 2.732-4.606 0-2.978-2.455-4.444-2.425-1.489-6.661-1.489h-11.02zm31.136 18.054 16.053-33.642h6.415l16.053 33.642h-5.8l-4.36-9.213h-18.201l-4.39 9.213zm11.664-13.168h15.132l-7.55-16.263z"/></svg>