<svg xmlns="http://www.w3.org/2000/svg" viewBox="2 2 206 206"><path fill="#2b4e5a" stroke="#2b4e5a" stroke-width="6" d="M20 5h170a15 15 0 0 1 15 15v170a15 15 0 0 1-15 15H20a15 15 0 0 1-15-15V20A15 15 0 0 1 20 5z"/><path fill="#fff" d="M34.228 114.697 18.42 81.057h5.617l13.598 28.755 13.597-28.756h5.618l-15.778 33.641zm22.068 0 16.053-33.64h6.415l16.053 33.64h-5.801l-4.359-9.213H66.455l-4.39 9.213zM67.96 101.53h15.132l-7.55-16.262zm30.693 13.168v-33.64h5.679v33.64zm15.974 0v-33.64h17.189q4.788 0 8.011 1.116 3.223 1.093 4.82 3.164 1.595 2.047 1.595 4.909 0 2.745-1.289 4.56-1.258 1.815-3.223 2.931-1.964 1.094-4.082 1.699l8.717 15.262h-6.016l-8.104-14.495h-11.94v14.495zm5.678-18.054h9.669q5.003 0 7.735-1.535 2.732-1.559 2.732-4.607 0-2.978-2.456-4.443-2.425-1.49-6.66-1.49h-11.02zm31.136 18.054 16.053-33.64h6.415l16.053 33.64h-5.8l-4.36-9.213H161.6l-4.39 9.213zm11.664-13.168h15.133l-7.551-16.262z"/></svg>