<?xml version="1.0" encoding="UTF-8" standalone="no"?>
<!-- Created with Inkscape (http://www.inkscape.org/) -->

<svg
   width="200mm"
   height="200mm"
   viewBox="0 0 200 200"
   version="1.1"
   id="svg1"
   xmlns="http://www.w3.org/2000/svg"
   xmlns:svg="http://www.w3.org/2000/svg">
  <defs
     id="defs1">
    <linearGradient
       id="swatch1">
      <stop
         style="stop-color:#0a5b5d;stop-opacity:1;"
         offset="0"
         id="stop1" />
    </linearGradient>
  </defs>
  <rect
     style="fill:#2b4e5a;fill-opacity:1;stroke-width:0.324373"
     id="rect1"
     width="200"
     height="200"
     x="-5.8051339e-24"
     y="5.0832225e-23" />
  <path
     style="font-size:21.9604px;line-height:0;font-family:'Public Sans';-inkscape-font-specification:'Public Sans, Normal';text-align:center;letter-spacing:3.43958px;text-anchor:middle;fill:#ffffff;stroke-width:0.512433"
     d="m 23.407029,122.81751 6.803555,-13.40154 h 2.718821 l 6.803556,13.40154 h -2.458646 l -1.847237,-3.67013 h -7.714166 l -1.860246,3.67013 z m 4.943311,-5.2457 h 6.413293 l -3.200142,-6.47834 z m 17.954718,5.2457 v -13.40154 q 0.09106,0 0.546365,0.009 0.468314,0 1.131759,0 0.663444,-0.009 1.378923,0 0.715479,0 1.313879,0.009 3.460317,0.0371 5.606755,0.80631 2.159445,0.75998 3.161117,2.21506 1.014678,1.45507 1.014678,3.57745 0,2.22432 -1.092731,3.735 -1.079723,1.51069 -3.304212,2.27993 -2.211481,0.76925 -5.632772,0.76925 z m 2.471655,-1.47362 h 1.652106 q 2.328559,0 4.006683,-0.50974 1.678123,-0.51901 2.575724,-1.67751 0.91061,-1.1585 0.91061,-3.09551 0,-1.93701 -0.884592,-3.06772 -0.871584,-1.13069 -2.52369,-1.61262 -1.652107,-0.49121 -3.980665,-0.49121 h -1.756176 z m 22.87827,1.47362 -6.699486,-13.40154 h 2.380595 l 5.762858,11.45525 5.762859,-11.45525 h 2.380594 l -6.686478,13.40154 z m 16.758526,0 v -13.40154 h 2.406611 v 13.40154 z m 17.812241,0.18535 q -1.37893,0 -2.61475,-0.2317 -1.23583,-0.24097 -2.25051,-0.71363 -1.00167,-0.47267 -1.665116,-1.16778 -0.650435,-0.70436 -0.819549,-1.63116 h 2.523695 q 0.23415,0.75998 0.92361,1.27899 0.70247,0.519 1.73016,0.7785 1.0407,0.25951 2.27653,0.25951 1.1968,0 2.19847,-0.26877 1.01468,-0.26877 1.62609,-0.77851 0.61141,-0.51901 0.61141,-1.24192 0,-0.79705 -0.72849,-1.27898 -0.72849,-0.49121 -2.25051,-0.78778 l -3.87659,-0.71364 q -1.31388,-0.2317 -2.32856,-0.64876 -1.00167,-0.42632 -1.57406,-1.11216 -0.57238,-0.6951 -0.57238,-1.72385 0,-1.13996 0.88459,-1.98335 0.88459,-0.85266 2.3936,-1.31606 1.52202,-0.47267 3.4343,-0.47267 2.21149,0 3.7205,0.54682 1.52201,0.54681 2.30254,1.43654 0.78052,0.88973 0.78052,1.89994 h -2.47165 q -0.11708,-0.91753 -0.75451,-1.44581 -0.63743,-0.53755 -1.58706,-0.76924 -0.94964,-0.24098 -2.06839,-0.24098 -2.01635,0 -3.05704,0.65804 -1.02769,0.64875 -1.02769,1.54775 0,0.82485 0.74149,1.29752 0.7415,0.47267 2.18547,0.73218 l 3.77252,0.69509 q 1.67813,0.27805 2.66679,0.80632 1.00167,0.52828 1.43096,1.23264 0.44229,0.69511 0.44229,1.51069 0,1.11216 -0.87158,1.98335 -0.87158,0.8712 -2.44564,1.37167 -1.56104,0.4912 -3.68146,0.4912 z m 21.88393,0 q -2.51067,0 -4.3449,-0.80632 -1.83423,-0.80631 -2.83591,-2.33553 -0.98866,-1.53849 -0.98866,-3.71647 0,-2.19652 1.00167,-3.73501 1.00167,-1.54775 2.8359,-2.36334 1.84724,-0.81558 4.3319,-0.81558 2.49767,0 4.31889,0.81558 1.82122,0.80632 2.80988,2.35407 0.98867,1.53849 0.98867,3.74428 0,2.17798 -0.98867,3.71647 -0.97565,1.52922 -2.79687,2.33553 -1.82122,0.80632 -4.3319,0.80632 z m 0,-1.49214 q 1.74317,0 2.96599,-0.56535 1.22282,-0.56536 1.86025,-1.75166 0.65043,-1.1863 0.65043,-3.03064 0,-1.87213 -0.65043,-3.07697 -0.65044,-1.20484 -1.87326,-1.77946 -1.22282,-0.58388 -2.95298,-0.58388 -1.71715,0 -2.95297,0.58388 -1.23583,0.58389 -1.89928,1.78873 -0.66344,1.20483 -0.66344,3.0677 0,1.84434 0.66344,3.03064 0.66345,1.1863 1.89928,1.75166 1.23582,0.56535 2.95297,0.56535 z m 13.97349,1.30679 v -13.40154 h 7.28488 q 2.02935,0 3.39527,0.44487 1.36591,0.43559 2.04236,1.26044 0.67646,0.81558 0.67646,1.95555 0,1.09362 -0.54637,1.81653 -0.53336,0.7229 -1.36592,1.16777 -0.83255,0.43559 -1.73015,0.67656 l 3.69447,6.07982 h -2.54971 l -3.43429,-5.77398 h -5.0604 v 5.77398 z m 2.4066,-7.19198 h 4.09776 q 2.12041,0 3.27819,-0.61169 1.15777,-0.62096 1.15777,-1.83506 0,-1.18631 -1.04069,-1.77019 -1.0277,-0.59315 -2.8229,-0.59315 h -4.67013 z m 21.4015,7.19198 v -5.7091 l -6.41329,-7.69244 h 2.62776 l 4.99533,6.16322 4.9173,-6.16322 h 2.64077 l -6.37427,7.70171 v 5.69983 z"
     id="text1"
     aria-label="ADVISORY" />
  <path
     style="font-size:52.9167px;font-family:'Public Sans';-inkscape-font-specification:'Public Sans, Normal';text-align:center;letter-spacing:-2.11667px;word-spacing:0px;text-anchor:middle;fill:#ffffff;stroke-width:0.91"
     d="M 26.957886,97.719615 11.306715,64.411182 h 5.561484 L 30.331245,92.882294 43.794292,64.411182 h 5.561484 L 33.734995,97.719615 Z m 21.850224,0 15.894295,-33.308433 h 6.351641 L 86.948342,97.719615 H 81.204514 L 76.889046,88.5978 h -18.02164 l -4.34586,9.121815 z M 60.356547,84.681874 H 75.339124 L 67.863031,68.580495 Z M 90.746442,97.719615 V 64.411182 h 5.622266 v 33.308433 z m 15.815008,0 V 64.411182 h 17.01875 q 4.74093,0 7.93195,1.105674 3.19101,1.08264 4.77133,3.132744 1.58031,2.027068 1.58031,4.860358 0,2.718116 -1.27641,4.514836 -1.24601,1.79672 -3.19102,2.902395 -1.94499,1.082638 -4.04195,1.681545 l 8.63094,15.110881 h -5.95656 l -8.02313,-14.350729 h -11.82195 v 14.350729 z m 5.62226,-17.875066 h 9.57305 q 4.95367,0 7.65844,-1.520302 2.70476,-1.543336 2.70476,-4.560905 0,-2.948465 -2.43125,-4.399662 -2.40086,-1.474232 -6.59477,-1.474232 h -10.91023 z m 30.82793,17.875066 15.8943,-33.308433 h 6.35164 l 15.8943,33.308433 h -5.74383 L 171.09258,88.5978 h -18.02164 l -4.34586,9.121815 z m 11.54844,-13.037741 h 14.98258 l -7.4761,-16.101379 z"
     id="text1-7"
     aria-label="VAIRA" />
</svg>
