<?xml version="1.0" encoding="UTF-8" standalone="no"?>
<svg
   viewBox="-5 -5 42840 42840"
   version="1.1"
   id="svg1"
   width="42840"
   height="42840"
   xmlns="http://www.w3.org/2000/svg"
   xmlns:svg="http://www.w3.org/2000/svg">
  <defs
     id="defs1" />
  <path
     d="m -616,-630 h 172 a 14,14 0 0 1 14,14 v 172 a 14,14 0 0 1 -14,14 h -172 a 14,14 0 0 1 -14,-14 v -172 a 14,14 0 0 1 14,-14 z"
     fill="#2b4e5a"
     stroke="#2b4e5a"
     stroke-width="4"
     id="path1" />
  <path
     d="m -596.71249,-513 -12.875,-36.15 h 4.575 l 11.075,30.9 11.075,-30.9 h 4.575 l -12.85,36.15 z m 19.57501,0 13.075,-36.15 h 5.225 l 13.075,36.15 h -4.725 l -3.55,-9.9 h -14.825 l -3.575,9.9 z m 9.5,-14.15 h 12.325 l -6.15,-17.475 z m 32.29996,14.15 v -36.15 h 4.625 V -513 Z m 17.75004,0 v -36.15 h 14 q 3.9,0 6.525,1.2 2.625,1.175 3.925,3.4 1.3,2.2 1.3,5.275 0,2.95 -1.05,4.9 -1.025,1.95 -2.625,3.15 -1.6,1.175 -3.325,1.825 l 7.1,16.4 h -4.9 l -6.6,-15.575 h -9.725 V -513 Z m 4.625,-19.4 h 7.875 q 4.075,0 6.3,-1.65 2.225,-1.675 2.225,-4.95 0,-3.2 -2,-4.775 -1.975,-1.6 -5.425,-1.6 h -8.975 z m 30.27502,19.4 13.075,-36.15 h 5.225 l 13.075,36.15 h -4.725 l -3.55,-9.9 h -14.825 l -3.575,9.9 z m 9.5,-14.15 h 12.325 l -6.15,-17.475 z"
     id="text1"
     style="font-size:50px;font-family:'Public Sans', Helvetica, Arial, sans-serif;letter-spacing:3.6;text-anchor:middle;fill:#ffffff"
     aria-label="VAIRA" />
</svg>
