<?xml version="1.0" standalone="no"?>
<!DOCTYPE svg PUBLIC "-//W3C//DTD SVG 1.1//EN" "http://www.w3.org/Graphics/SVG/1.1/DTD/svg11.dtd">
<svg viewBox="0 0 330 330" width="330" height="330" version="1.1" xmlns="http://www.w3.org/2000/svg">
	<desc>https://www.aptika.com/</desc><title>Aptika - FREE QR Code Generator</title>
	<g id="elements" fill="#000000" stroke="none">
		<rect x="0" y="0" width="10" height="10" />
		<rect x="10" y="0" width="10" height="10" />
		<rect x="20" y="0" width="10" height="10" />
		<rect x="30" y="0" width="10" height="10" />
		<rect x="40" y="0" width="10" height="10" />
		<rect x="50" y="0" width="10" height="10" />
		<rect x="60" y="0" width="10" height="10" />
		<rect x="110" y="0" width="10" height="10" />
		<rect x="120" y="0" width="10" height="10" />
		<rect x="130" y="0" width="10" height="10" />
		<rect x="150" y="0" width="10" height="10" />
		<rect x="160" y="0" width="10" height="10" />
		<rect x="180" y="0" width="10" height="10" />
		<rect x="210" y="0" width="10" height="10" />
		<rect x="220" y="0" width="10" height="10" />
		<rect x="260" y="0" width="10" height="10" />
		<rect x="270" y="0" width="10" height="10" />
		<rect x="280" y="0" width="10" height="10" />
		<rect x="290" y="0" width="10" height="10" />
		<rect x="300" y="0" width="10" height="10" />
		<rect x="310" y="0" width="10" height="10" />
		<rect x="320" y="0" width="10" height="10" />
		<rect x="0" y="10" width="10" height="10" />
		<rect x="60" y="10" width="10" height="10" />
		<rect x="80" y="10" width="10" height="10" />
		<rect x="110" y="10" width="10" height="10" />
		<rect x="120" y="10" width="10" height="10" />
		<rect x="160" y="10" width="10" height="10" />
		<rect x="170" y="10" width="10" height="10" />
		<rect x="190" y="10" width="10" height="10" />
		<rect x="200" y="10" width="10" height="10" />
		<rect x="220" y="10" width="10" height="10" />
		<rect x="240" y="10" width="10" height="10" />
		<rect x="260" y="10" width="10" height="10" />
		<rect x="320" y="10" width="10" height="10" />
		<rect x="0" y="20" width="10" height="10" />
		<rect x="20" y="20" width="10" height="10" />
		<rect x="30" y="20" width="10" height="10" />
		<rect x="40" y="20" width="10" height="10" />
		<rect x="60" y="20" width="10" height="10" />
		<rect x="100" y="20" width="10" height="10" />
		<rect x="150" y="20" width="10" height="10" />
		<rect x="160" y="20" width="10" height="10" />
		<rect x="170" y="20" width="10" height="10" />
		<rect x="180" y="20" width="10" height="10" />
		<rect x="200" y="20" width="10" height="10" />
		<rect x="210" y="20" width="10" height="10" />
		<rect x="260" y="20" width="10" height="10" />
		<rect x="280" y="20" width="10" height="10" />
		<rect x="290" y="20" width="10" height="10" />
		<rect x="300" y="20" width="10" height="10" />
		<rect x="320" y="20" width="10" height="10" />
		<rect x="0" y="30" width="10" height="10" />
		<rect x="20" y="30" width="10" height="10" />
		<rect x="30" y="30" width="10" height="10" />
		<rect x="40" y="30" width="10" height="10" />
		<rect x="60" y="30" width="10" height="10" />
		<rect x="80" y="30" width="10" height="10" />
		<rect x="110" y="30" width="10" height="10" />
		<rect x="140" y="30" width="10" height="10" />
		<rect x="190" y="30" width="10" height="10" />
		<rect x="210" y="30" width="10" height="10" />
		<rect x="230" y="30" width="10" height="10" />
		<rect x="240" y="30" width="10" height="10" />
		<rect x="260" y="30" width="10" height="10" />
		<rect x="280" y="30" width="10" height="10" />
		<rect x="290" y="30" width="10" height="10" />
		<rect x="300" y="30" width="10" height="10" />
		<rect x="320" y="30" width="10" height="10" />
		<rect x="0" y="40" width="10" height="10" />
		<rect x="20" y="40" width="10" height="10" />
		<rect x="30" y="40" width="10" height="10" />
		<rect x="40" y="40" width="10" height="10" />
		<rect x="60" y="40" width="10" height="10" />
		<rect x="80" y="40" width="10" height="10" />
		<rect x="120" y="40" width="10" height="10" />
		<rect x="130" y="40" width="10" height="10" />
		<rect x="150" y="40" width="10" height="10" />
		<rect x="160" y="40" width="10" height="10" />
		<rect x="170" y="40" width="10" height="10" />
		<rect x="180" y="40" width="10" height="10" />
		<rect x="200" y="40" width="10" height="10" />
		<rect x="260" y="40" width="10" height="10" />
		<rect x="280" y="40" width="10" height="10" />
		<rect x="290" y="40" width="10" height="10" />
		<rect x="300" y="40" width="10" height="10" />
		<rect x="320" y="40" width="10" height="10" />
		<rect x="0" y="50" width="10" height="10" />
		<rect x="60" y="50" width="10" height="10" />
		<rect x="100" y="50" width="10" height="10" />
		<rect x="120" y="50" width="10" height="10" />
		<rect x="180" y="50" width="10" height="10" />
		<rect x="200" y="50" width="10" height="10" />
		<rect x="220" y="50" width="10" height="10" />
		<rect x="230" y="50" width="10" height="10" />
		<rect x="240" y="50" width="10" height="10" />
		<rect x="260" y="50" width="10" height="10" />
		<rect x="320" y="50" width="10" height="10" />
		<rect x="0" y="60" width="10" height="10" />
		<rect x="10" y="60" width="10" height="10" />
		<rect x="20" y="60" width="10" height="10" />
		<rect x="30" y="60" width="10" height="10" />
		<rect x="40" y="60" width="10" height="10" />
		<rect x="50" y="60" width="10" height="10" />
		<rect x="60" y="60" width="10" height="10" />
		<rect x="80" y="60" width="10" height="10" />
		<rect x="100" y="60" width="10" height="10" />
		<rect x="120" y="60" width="10" height="10" />
		<rect x="140" y="60" width="10" height="10" />
		<rect x="160" y="60" width="10" height="10" />
		<rect x="180" y="60" width="10" height="10" />
		<rect x="200" y="60" width="10" height="10" />
		<rect x="220" y="60" width="10" height="10" />
		<rect x="240" y="60" width="10" height="10" />
		<rect x="260" y="60" width="10" height="10" />
		<rect x="270" y="60" width="10" height="10" />
		<rect x="280" y="60" width="10" height="10" />
		<rect x="290" y="60" width="10" height="10" />
		<rect x="300" y="60" width="10" height="10" />
		<rect x="310" y="60" width="10" height="10" />
		<rect x="320" y="60" width="10" height="10" />
		<rect x="80" y="70" width="10" height="10" />
		<rect x="90" y="70" width="10" height="10" />
		<rect x="100" y="70" width="10" height="10" />
		<rect x="120" y="70" width="10" height="10" />
		<rect x="140" y="70" width="10" height="10" />
		<rect x="150" y="70" width="10" height="10" />
		<rect x="190" y="70" width="10" height="10" />
		<rect x="200" y="70" width="10" height="10" />
		<rect x="220" y="70" width="10" height="10" />
		<rect x="240" y="70" width="10" height="10" />
		<rect x="10" y="80" width="10" height="10" />
		<rect x="30" y="80" width="10" height="10" />
		<rect x="40" y="80" width="10" height="10" />
		<rect x="50" y="80" width="10" height="10" />
		<rect x="60" y="80" width="10" height="10" />
		<rect x="80" y="80" width="10" height="10" />
		<rect x="110" y="80" width="10" height="10" />
		<rect x="120" y="80" width="10" height="10" />
		<rect x="130" y="80" width="10" height="10" />
		<rect x="140" y="80" width="10" height="10" />
		<rect x="160" y="80" width="10" height="10" />
		<rect x="170" y="80" width="10" height="10" />
		<rect x="190" y="80" width="10" height="10" />
		<rect x="230" y="80" width="10" height="10" />
		<rect x="240" y="80" width="10" height="10" />
		<rect x="250" y="80" width="10" height="10" />
		<rect x="260" y="80" width="10" height="10" />
		<rect x="280" y="80" width="10" height="10" />
		<rect x="290" y="80" width="10" height="10" />
		<rect x="310" y="80" width="10" height="10" />
		<rect x="30" y="90" width="10" height="10" />
		<rect x="40" y="90" width="10" height="10" />
		<rect x="90" y="90" width="10" height="10" />
		<rect x="130" y="90" width="10" height="10" />
		<rect x="160" y="90" width="10" height="10" />
		<rect x="180" y="90" width="10" height="10" />
		<rect x="190" y="90" width="10" height="10" />
		<rect x="200" y="90" width="10" height="10" />
		<rect x="220" y="90" width="10" height="10" />
		<rect x="230" y="90" width="10" height="10" />
		<rect x="280" y="90" width="10" height="10" />
		<rect x="290" y="90" width="10" height="10" />
		<rect x="300" y="90" width="10" height="10" />
		<rect x="10" y="100" width="10" height="10" />
		<rect x="20" y="100" width="10" height="10" />
		<rect x="30" y="100" width="10" height="10" />
		<rect x="50" y="100" width="10" height="10" />
		<rect x="60" y="100" width="10" height="10" />
		<rect x="80" y="100" width="10" height="10" />
		<rect x="110" y="100" width="10" height="10" />
		<rect x="120" y="100" width="10" height="10" />
		<rect x="150" y="100" width="10" height="10" />
		<rect x="160" y="100" width="10" height="10" />
		<rect x="170" y="100" width="10" height="10" />
		<rect x="180" y="100" width="10" height="10" />
		<rect x="200" y="100" width="10" height="10" />
		<rect x="210" y="100" width="10" height="10" />
		<rect x="220" y="100" width="10" height="10" />
		<rect x="230" y="100" width="10" height="10" />
		<rect x="240" y="100" width="10" height="10" />
		<rect x="260" y="100" width="10" height="10" />
		<rect x="280" y="100" width="10" height="10" />
		<rect x="290" y="100" width="10" height="10" />
		<rect x="300" y="100" width="10" height="10" />
		<rect x="310" y="100" width="10" height="10" />
		<rect x="320" y="100" width="10" height="10" />
		<rect x="0" y="110" width="10" height="10" />
		<rect x="30" y="110" width="10" height="10" />
		<rect x="40" y="110" width="10" height="10" />
		<rect x="90" y="110" width="10" height="10" />
		<rect x="110" y="110" width="10" height="10" />
		<rect x="130" y="110" width="10" height="10" />
		<rect x="150" y="110" width="10" height="10" />
		<rect x="160" y="110" width="10" height="10" />
		<rect x="170" y="110" width="10" height="10" />
		<rect x="190" y="110" width="10" height="10" />
		<rect x="200" y="110" width="10" height="10" />
		<rect x="270" y="110" width="10" height="10" />
		<rect x="300" y="110" width="10" height="10" />
		<rect x="310" y="110" width="10" height="10" />
		<rect x="320" y="110" width="10" height="10" />
		<rect x="0" y="120" width="10" height="10" />
		<rect x="10" y="120" width="10" height="10" />
		<rect x="20" y="120" width="10" height="10" />
		<rect x="60" y="120" width="10" height="10" />
		<rect x="70" y="120" width="10" height="10" />
		<rect x="80" y="120" width="10" height="10" />
		<rect x="100" y="120" width="10" height="10" />
		<rect x="110" y="120" width="10" height="10" />
		<rect x="130" y="120" width="10" height="10" />
		<rect x="140" y="120" width="10" height="10" />
		<rect x="160" y="120" width="10" height="10" />
		<rect x="170" y="120" width="10" height="10" />
		<rect x="180" y="120" width="10" height="10" />
		<rect x="200" y="120" width="10" height="10" />
		<rect x="240" y="120" width="10" height="10" />
		<rect x="260" y="120" width="10" height="10" />
		<rect x="0" y="130" width="10" height="10" />
		<rect x="20" y="130" width="10" height="10" />
		<rect x="30" y="130" width="10" height="10" />
		<rect x="40" y="130" width="10" height="10" />
		<rect x="50" y="130" width="10" height="10" />
		<rect x="80" y="130" width="10" height="10" />
		<rect x="100" y="130" width="10" height="10" />
		<rect x="130" y="130" width="10" height="10" />
		<rect x="140" y="130" width="10" height="10" />
		<rect x="160" y="130" width="10" height="10" />
		<rect x="170" y="130" width="10" height="10" />
		<rect x="190" y="130" width="10" height="10" />
		<rect x="210" y="130" width="10" height="10" />
		<rect x="230" y="130" width="10" height="10" />
		<rect x="250" y="130" width="10" height="10" />
		<rect x="270" y="130" width="10" height="10" />
		<rect x="10" y="140" width="10" height="10" />
		<rect x="40" y="140" width="10" height="10" />
		<rect x="60" y="140" width="10" height="10" />
		<rect x="90" y="140" width="10" height="10" />
		<rect x="120" y="140" width="10" height="10" />
		<rect x="140" y="140" width="10" height="10" />
		<rect x="150" y="140" width="10" height="10" />
		<rect x="160" y="140" width="10" height="10" />
		<rect x="180" y="140" width="10" height="10" />
		<rect x="240" y="140" width="10" height="10" />
		<rect x="260" y="140" width="10" height="10" />
		<rect x="280" y="140" width="10" height="10" />
		<rect x="290" y="140" width="10" height="10" />
		<rect x="300" y="140" width="10" height="10" />
		<rect x="0" y="150" width="10" height="10" />
		<rect x="80" y="150" width="10" height="10" />
		<rect x="100" y="150" width="10" height="10" />
		<rect x="120" y="150" width="10" height="10" />
		<rect x="130" y="150" width="10" height="10" />
		<rect x="150" y="150" width="10" height="10" />
		<rect x="190" y="150" width="10" height="10" />
		<rect x="220" y="150" width="10" height="10" />
		<rect x="250" y="150" width="10" height="10" />
		<rect x="280" y="150" width="10" height="10" />
		<rect x="290" y="150" width="10" height="10" />
		<rect x="300" y="150" width="10" height="10" />
		<rect x="320" y="150" width="10" height="10" />
		<rect x="10" y="160" width="10" height="10" />
		<rect x="30" y="160" width="10" height="10" />
		<rect x="40" y="160" width="10" height="10" />
		<rect x="50" y="160" width="10" height="10" />
		<rect x="60" y="160" width="10" height="10" />
		<rect x="90" y="160" width="10" height="10" />
		<rect x="110" y="160" width="10" height="10" />
		<rect x="130" y="160" width="10" height="10" />
		<rect x="180" y="160" width="10" height="10" />
		<rect x="190" y="160" width="10" height="10" />
		<rect x="200" y="160" width="10" height="10" />
		<rect x="220" y="160" width="10" height="10" />
		<rect x="240" y="160" width="10" height="10" />
		<rect x="250" y="160" width="10" height="10" />
		<rect x="260" y="160" width="10" height="10" />
		<rect x="270" y="160" width="10" height="10" />
		<rect x="280" y="160" width="10" height="10" />
		<rect x="290" y="160" width="10" height="10" />
		<rect x="0" y="170" width="10" height="10" />
		<rect x="10" y="170" width="10" height="10" />
		<rect x="30" y="170" width="10" height="10" />
		<rect x="40" y="170" width="10" height="10" />
		<rect x="80" y="170" width="10" height="10" />
		<rect x="120" y="170" width="10" height="10" />
		<rect x="130" y="170" width="10" height="10" />
		<rect x="140" y="170" width="10" height="10" />
		<rect x="170" y="170" width="10" height="10" />
		<rect x="180" y="170" width="10" height="10" />
		<rect x="190" y="170" width="10" height="10" />
		<rect x="200" y="170" width="10" height="10" />
		<rect x="220" y="170" width="10" height="10" />
		<rect x="240" y="170" width="10" height="10" />
		<rect x="250" y="170" width="10" height="10" />
		<rect x="260" y="170" width="10" height="10" />
		<rect x="280" y="170" width="10" height="10" />
		<rect x="300" y="170" width="10" height="10" />
		<rect x="320" y="170" width="10" height="10" />
		<rect x="0" y="180" width="10" height="10" />
		<rect x="20" y="180" width="10" height="10" />
		<rect x="30" y="180" width="10" height="10" />
		<rect x="50" y="180" width="10" height="10" />
		<rect x="60" y="180" width="10" height="10" />
		<rect x="80" y="180" width="10" height="10" />
		<rect x="100" y="180" width="10" height="10" />
		<rect x="150" y="180" width="10" height="10" />
		<rect x="160" y="180" width="10" height="10" />
		<rect x="170" y="180" width="10" height="10" />
		<rect x="180" y="180" width="10" height="10" />
		<rect x="190" y="180" width="10" height="10" />
		<rect x="220" y="180" width="10" height="10" />
		<rect x="230" y="180" width="10" height="10" />
		<rect x="250" y="180" width="10" height="10" />
		<rect x="270" y="180" width="10" height="10" />
		<rect x="290" y="180" width="10" height="10" />
		<rect x="300" y="180" width="10" height="10" />
		<rect x="310" y="180" width="10" height="10" />
		<rect x="320" y="180" width="10" height="10" />
		<rect x="10" y="190" width="10" height="10" />
		<rect x="20" y="190" width="10" height="10" />
		<rect x="40" y="190" width="10" height="10" />
		<rect x="70" y="190" width="10" height="10" />
		<rect x="100" y="190" width="10" height="10" />
		<rect x="110" y="190" width="10" height="10" />
		<rect x="120" y="190" width="10" height="10" />
		<rect x="130" y="190" width="10" height="10" />
		<rect x="150" y="190" width="10" height="10" />
		<rect x="190" y="190" width="10" height="10" />
		<rect x="200" y="190" width="10" height="10" />
		<rect x="230" y="190" width="10" height="10" />
		<rect x="250" y="190" width="10" height="10" />
		<rect x="260" y="190" width="10" height="10" />
		<rect x="280" y="190" width="10" height="10" />
		<rect x="290" y="190" width="10" height="10" />
		<rect x="300" y="190" width="10" height="10" />
		<rect x="320" y="190" width="10" height="10" />
		<rect x="0" y="200" width="10" height="10" />
		<rect x="20" y="200" width="10" height="10" />
		<rect x="60" y="200" width="10" height="10" />
		<rect x="70" y="200" width="10" height="10" />
		<rect x="100" y="200" width="10" height="10" />
		<rect x="110" y="200" width="10" height="10" />
		<rect x="130" y="200" width="10" height="10" />
		<rect x="150" y="200" width="10" height="10" />
		<rect x="160" y="200" width="10" height="10" />
		<rect x="200" y="200" width="10" height="10" />
		<rect x="220" y="200" width="10" height="10" />
		<rect x="240" y="200" width="10" height="10" />
		<rect x="270" y="200" width="10" height="10" />
		<rect x="290" y="200" width="10" height="10" />
		<rect x="320" y="200" width="10" height="10" />
		<rect x="0" y="210" width="10" height="10" />
		<rect x="20" y="210" width="10" height="10" />
		<rect x="30" y="210" width="10" height="10" />
		<rect x="40" y="210" width="10" height="10" />
		<rect x="50" y="210" width="10" height="10" />
		<rect x="70" y="210" width="10" height="10" />
		<rect x="80" y="210" width="10" height="10" />
		<rect x="120" y="210" width="10" height="10" />
		<rect x="130" y="210" width="10" height="10" />
		<rect x="170" y="210" width="10" height="10" />
		<rect x="200" y="210" width="10" height="10" />
		<rect x="210" y="210" width="10" height="10" />
		<rect x="220" y="210" width="10" height="10" />
		<rect x="230" y="210" width="10" height="10" />
		<rect x="270" y="210" width="10" height="10" />
		<rect x="280" y="210" width="10" height="10" />
		<rect x="290" y="210" width="10" height="10" />
		<rect x="0" y="220" width="10" height="10" />
		<rect x="20" y="220" width="10" height="10" />
		<rect x="60" y="220" width="10" height="10" />
		<rect x="70" y="220" width="10" height="10" />
		<rect x="100" y="220" width="10" height="10" />
		<rect x="120" y="220" width="10" height="10" />
		<rect x="130" y="220" width="10" height="10" />
		<rect x="180" y="220" width="10" height="10" />
		<rect x="230" y="220" width="10" height="10" />
		<rect x="250" y="220" width="10" height="10" />
		<rect x="260" y="220" width="10" height="10" />
		<rect x="270" y="220" width="10" height="10" />
		<rect x="280" y="220" width="10" height="10" />
		<rect x="290" y="220" width="10" height="10" />
		<rect x="310" y="220" width="10" height="10" />
		<rect x="320" y="220" width="10" height="10" />
		<rect x="0" y="230" width="10" height="10" />
		<rect x="20" y="230" width="10" height="10" />
		<rect x="30" y="230" width="10" height="10" />
		<rect x="80" y="230" width="10" height="10" />
		<rect x="90" y="230" width="10" height="10" />
		<rect x="120" y="230" width="10" height="10" />
		<rect x="130" y="230" width="10" height="10" />
		<rect x="140" y="230" width="10" height="10" />
		<rect x="170" y="230" width="10" height="10" />
		<rect x="230" y="230" width="10" height="10" />
		<rect x="250" y="230" width="10" height="10" />
		<rect x="260" y="230" width="10" height="10" />
		<rect x="280" y="230" width="10" height="10" />
		<rect x="290" y="230" width="10" height="10" />
		<rect x="300" y="230" width="10" height="10" />
		<rect x="0" y="240" width="10" height="10" />
		<rect x="10" y="240" width="10" height="10" />
		<rect x="40" y="240" width="10" height="10" />
		<rect x="50" y="240" width="10" height="10" />
		<rect x="60" y="240" width="10" height="10" />
		<rect x="80" y="240" width="10" height="10" />
		<rect x="90" y="240" width="10" height="10" />
		<rect x="100" y="240" width="10" height="10" />
		<rect x="110" y="240" width="10" height="10" />
		<rect x="130" y="240" width="10" height="10" />
		<rect x="150" y="240" width="10" height="10" />
		<rect x="170" y="240" width="10" height="10" />
		<rect x="180" y="240" width="10" height="10" />
		<rect x="190" y="240" width="10" height="10" />
		<rect x="200" y="240" width="10" height="10" />
		<rect x="230" y="240" width="10" height="10" />
		<rect x="240" y="240" width="10" height="10" />
		<rect x="250" y="240" width="10" height="10" />
		<rect x="260" y="240" width="10" height="10" />
		<rect x="270" y="240" width="10" height="10" />
		<rect x="280" y="240" width="10" height="10" />
		<rect x="290" y="240" width="10" height="10" />
		<rect x="310" y="240" width="10" height="10" />
		<rect x="80" y="250" width="10" height="10" />
		<rect x="90" y="250" width="10" height="10" />
		<rect x="100" y="250" width="10" height="10" />
		<rect x="120" y="250" width="10" height="10" />
		<rect x="160" y="250" width="10" height="10" />
		<rect x="170" y="250" width="10" height="10" />
		<rect x="210" y="250" width="10" height="10" />
		<rect x="230" y="250" width="10" height="10" />
		<rect x="240" y="250" width="10" height="10" />
		<rect x="280" y="250" width="10" height="10" />
		<rect x="300" y="250" width="10" height="10" />
		<rect x="310" y="250" width="10" height="10" />
		<rect x="0" y="260" width="10" height="10" />
		<rect x="10" y="260" width="10" height="10" />
		<rect x="20" y="260" width="10" height="10" />
		<rect x="30" y="260" width="10" height="10" />
		<rect x="40" y="260" width="10" height="10" />
		<rect x="50" y="260" width="10" height="10" />
		<rect x="60" y="260" width="10" height="10" />
		<rect x="90" y="260" width="10" height="10" />
		<rect x="100" y="260" width="10" height="10" />
		<rect x="110" y="260" width="10" height="10" />
		<rect x="120" y="260" width="10" height="10" />
		<rect x="130" y="260" width="10" height="10" />
		<rect x="140" y="260" width="10" height="10" />
		<rect x="150" y="260" width="10" height="10" />
		<rect x="160" y="260" width="10" height="10" />
		<rect x="170" y="260" width="10" height="10" />
		<rect x="190" y="260" width="10" height="10" />
		<rect x="230" y="260" width="10" height="10" />
		<rect x="240" y="260" width="10" height="10" />
		<rect x="260" y="260" width="10" height="10" />
		<rect x="280" y="260" width="10" height="10" />
		<rect x="300" y="260" width="10" height="10" />
		<rect x="0" y="270" width="10" height="10" />
		<rect x="60" y="270" width="10" height="10" />
		<rect x="80" y="270" width="10" height="10" />
		<rect x="100" y="270" width="10" height="10" />
		<rect x="120" y="270" width="10" height="10" />
		<rect x="130" y="270" width="10" height="10" />
		<rect x="160" y="270" width="10" height="10" />
		<rect x="170" y="270" width="10" height="10" />
		<rect x="180" y="270" width="10" height="10" />
		<rect x="230" y="270" width="10" height="10" />
		<rect x="240" y="270" width="10" height="10" />
		<rect x="280" y="270" width="10" height="10" />
		<rect x="290" y="270" width="10" height="10" />
		<rect x="300" y="270" width="10" height="10" />
		<rect x="310" y="270" width="10" height="10" />
		<rect x="0" y="280" width="10" height="10" />
		<rect x="20" y="280" width="10" height="10" />
		<rect x="30" y="280" width="10" height="10" />
		<rect x="40" y="280" width="10" height="10" />
		<rect x="60" y="280" width="10" height="10" />
		<rect x="80" y="280" width="10" height="10" />
		<rect x="90" y="280" width="10" height="10" />
		<rect x="100" y="280" width="10" height="10" />
		<rect x="120" y="280" width="10" height="10" />
		<rect x="130" y="280" width="10" height="10" />
		<rect x="160" y="280" width="10" height="10" />
		<rect x="170" y="280" width="10" height="10" />
		<rect x="180" y="280" width="10" height="10" />
		<rect x="200" y="280" width="10" height="10" />
		<rect x="210" y="280" width="10" height="10" />
		<rect x="230" y="280" width="10" height="10" />
		<rect x="240" y="280" width="10" height="10" />
		<rect x="250" y="280" width="10" height="10" />
		<rect x="260" y="280" width="10" height="10" />
		<rect x="270" y="280" width="10" height="10" />
		<rect x="280" y="280" width="10" height="10" />
		<rect x="310" y="280" width="10" height="10" />
		<rect x="0" y="290" width="10" height="10" />
		<rect x="20" y="290" width="10" height="10" />
		<rect x="30" y="290" width="10" height="10" />
		<rect x="40" y="290" width="10" height="10" />
		<rect x="60" y="290" width="10" height="10" />
		<rect x="80" y="290" width="10" height="10" />
		<rect x="110" y="290" width="10" height="10" />
		<rect x="140" y="290" width="10" height="10" />
		<rect x="150" y="290" width="10" height="10" />
		<rect x="160" y="290" width="10" height="10" />
		<rect x="180" y="290" width="10" height="10" />
		<rect x="200" y="290" width="10" height="10" />
		<rect x="220" y="290" width="10" height="10" />
		<rect x="250" y="290" width="10" height="10" />
		<rect x="270" y="290" width="10" height="10" />
		<rect x="320" y="290" width="10" height="10" />
		<rect x="0" y="300" width="10" height="10" />
		<rect x="20" y="300" width="10" height="10" />
		<rect x="30" y="300" width="10" height="10" />
		<rect x="40" y="300" width="10" height="10" />
		<rect x="60" y="300" width="10" height="10" />
		<rect x="120" y="300" width="10" height="10" />
		<rect x="130" y="300" width="10" height="10" />
		<rect x="160" y="300" width="10" height="10" />
		<rect x="170" y="300" width="10" height="10" />
		<rect x="180" y="300" width="10" height="10" />
		<rect x="200" y="300" width="10" height="10" />
		<rect x="210" y="300" width="10" height="10" />
		<rect x="240" y="300" width="10" height="10" />
		<rect x="270" y="300" width="10" height="10" />
		<rect x="280" y="300" width="10" height="10" />
		<rect x="310" y="300" width="10" height="10" />
		<rect x="320" y="300" width="10" height="10" />
		<rect x="0" y="310" width="10" height="10" />
		<rect x="60" y="310" width="10" height="10" />
		<rect x="80" y="310" width="10" height="10" />
		<rect x="130" y="310" width="10" height="10" />
		<rect x="160" y="310" width="10" height="10" />
		<rect x="170" y="310" width="10" height="10" />
		<rect x="180" y="310" width="10" height="10" />
		<rect x="220" y="310" width="10" height="10" />
		<rect x="250" y="310" width="10" height="10" />
		<rect x="260" y="310" width="10" height="10" />
		<rect x="270" y="310" width="10" height="10" />
		<rect x="280" y="310" width="10" height="10" />
		<rect x="290" y="310" width="10" height="10" />
		<rect x="300" y="310" width="10" height="10" />
		<rect x="310" y="310" width="10" height="10" />
		<rect x="320" y="310" width="10" height="10" />
		<rect x="0" y="320" width="10" height="10" />
		<rect x="10" y="320" width="10" height="10" />
		<rect x="20" y="320" width="10" height="10" />
		<rect x="30" y="320" width="10" height="10" />
		<rect x="40" y="320" width="10" height="10" />
		<rect x="50" y="320" width="10" height="10" />
		<rect x="60" y="320" width="10" height="10" />
		<rect x="110" y="320" width="10" height="10" />
		<rect x="130" y="320" width="10" height="10" />
		<rect x="140" y="320" width="10" height="10" />
		<rect x="150" y="320" width="10" height="10" />
		<rect x="180" y="320" width="10" height="10" />
		<rect x="230" y="320" width="10" height="10" />
		<rect x="240" y="320" width="10" height="10" />
		<rect x="270" y="320" width="10" height="10" />
		<rect x="280" y="320" width="10" height="10" />
		<rect x="290" y="320" width="10" height="10" />
	</g>
</svg>
