<svg width="520" height="260" viewBox="0 0 520 260" xmlns="http://www.w3.org/2000/svg">
  <!-- Hintergrund -->
  <rect x="0" y="0" width="520" height="260" fill="white"/>

  <!-- Achsen -->
  <line x1="60" y1="220" x2="500" y2="220" stroke="#000" stroke-width="1.2"/>
  <line x1="60" y1="30" x2="60" y2="220" stroke="#000" stroke-width="1.2"/>

  <!-- Achsenpfeile -->
  <polygon points="500,220 494,216 494,224" fill="#000"/>
  <polygon points="60,30 56,36 64,36" fill="#000"/>

  <!-- Achsen-Beschriftung -->
  <text x="18" y="30" font-size="11" font-family="system-ui, -apple-system, sans-serif" fill="#000">
    Leistung / Nutzen
  </text>
  <text x="380" y="245" font-size="11" font-family="system-ui, -apple-system, sans-serif" fill="#000">
    Zeit
  </text>

  <!-- Erste S-Kurve (Technologie 1) -->
  <path d="M 60 210
           C 120 210 150 190 180 165
           C 210 140 235 115 270 100
           C 305 85 335 80 360 80"
        fill="none" stroke="#000" stroke-width="2"/>

  <!-- Zweite S-Kurve (Technologie 2, versetzt) -->
  <path d="M 200 210
           C 250 210 280 190 305 165
           C 330 140 355 120 390 110
           C 420 102 450 100 480 100"
        fill="none" stroke="#000" stroke-width="2" stroke-dasharray="5 4"/>

  <!-- Horizontale Hilfslinien (ähnlich Wikipedia-Referenz) -->
  <line x1="60" y1="180" x2="500" y2="180" stroke="#ccc" stroke-width="0.8" stroke-dasharray="3 3"/>
  <line x1="60" y1="140" x2="500" y2="140" stroke="#ccc" stroke-width="0.8" stroke-dasharray="3 3"/>
  <line x1="60" y1="100" x2="500" y2="100" stroke="#ccc" stroke-width="0.8" stroke-dasharray="3 3"/>

  <!-- Phasen-Beschriftung entlang der Zeitachse -->
  <text x="80" y="235" font-size="10" font-family="system-ui, -apple-system, sans-serif" fill="#000">
    Einführung
  </text>
  <text x="190" y="235" font-size="10" font-family="system-ui, -apple-system, sans-serif" fill="#000">
    Wachstum
  </text>
  <text x="310" y="235" font-size="10" font-family="system-ui, -apple-system, sans-serif" fill="#000">
    Reife / Sättigung
  </text>

  <!-- Beschriftung Technologie 1 -->
  <text x="210" y="90" font-size="11" font-family="system-ui, -apple-system, sans-serif" fill="#000">
    Technologie / Produkt 1
  </text>

  <!-- Beschriftung Technologie 2 -->
  <text x="320" y="125" font-size="11" font-family="system-ui, -apple-system, sans-serif" fill="#000">
    Technologie / Produkt 2
  </text>

  <!-- Markierung Übergangspunkt (Zeitpunkt für neue S-Kurve) -->
  <circle cx="270" cy="100" r="4" fill="#000"/>
  <text x="280" y="95" font-size="10" font-family="system-ui, -apple-system, sans-serif" fill="#000">
    Übergang / Substitution
  </text>

  <!-- Optional: Titel im Diagramm -->
  <text x="140" y="18" font-size="12" font-family="system-ui, -apple-system, sans-serif" fill="#000">
    S-Kurven-Konzept: Substitution einer bestehenden Technologie
  </text>
</svg>
