<svg xmlns="http://www.w3.org/2000/svg" width="1200" height="630" viewBox="0 0 1200 630"><defs><radialGradient id="a" cx=".18" cy=".42" r=".65"><stop offset="0%" stop-color="#1a2633"/><stop offset="60%" stop-color="#0a0d11"/><stop offset="100%"/></radialGradient><pattern id="b" width="40" height="40" x="0" y="0" patternUnits="userSpaceOnUse"><path fill="none" stroke="#2a2f38" d="M40 0H0v40"/></pattern></defs><path fill="url(#a)" d="M0 0h1200v630H0z"/><path fill="url(#b)" d="M0 0h1200v630H0z" opacity=".18"/><path fill="#2b4e5a" stroke="#2b4e5a" stroke-width="8.28" d="M107.6 156.9h234.6a20.7 20.7 0 0 1 20.7 20.7v234.6a20.7 20.7 0 0 1-20.7 20.7H107.6a20.7 20.7 0 0 1-20.7-20.7V177.6a20.7 20.7 0 0 1 20.7-20.7Z"/><path fill="#fff" d="m127.234 308.282-21.815-46.426h7.752l18.765 39.683 18.764-39.683h7.752l-21.772 46.426Zm30.455 0 22.153-46.426h8.853l22.154 46.426h-8.006l-6.015-12.714h-25.119l-6.057 12.714zm16.096-18.172h20.883l-10.42-22.443Zm42.357 18.172v-46.426h7.837v46.426zm22.043 0v-46.426h23.721q6.608 0 11.056 1.541 4.447 1.51 6.65 4.367 2.203 2.825 2.203 6.774 0 3.789-1.78 6.293-1.736 2.504-4.447 4.045-2.711 1.51-5.634 2.344l12.03 21.062h-8.302l-11.183-20.002h-16.477v20.002zm7.837-24.915h13.343q6.904 0 10.674-2.119 3.77-2.15 3.77-6.357 0-4.11-3.389-6.132-3.346-2.055-9.192-2.055h-15.206zm42.968 24.915 22.153-46.426h8.853l22.153 46.426h-8.005l-6.015-12.714H303.01l-6.057 12.714zm16.096-18.172h20.883l-10.42-22.443z"/><text x="520" y="253" fill="#fff" font-family="Inter Tight, system-ui, -apple-system, BlinkMacSystemFont, 'Segoe UI', sans-serif" font-size="42" font-weight="700">
    Deep‑Tech &amp; Advanced
  </text><text x="520" y="308" fill="#fff" font-family="Inter Tight, system-ui, -apple-system, BlinkMacSystemFont, 'Segoe UI', sans-serif" font-size="42" font-weight="700">
    Manufacturing Beratung
  </text><text x="520" y="373" fill="#c4c7d4" font-family="Inter, system-ui, -apple-system, BlinkMacSystemFont, 'Segoe UI', sans-serif" font-size="24" font-weight="500">
    Von der frühen Idee bis zur industriellen Skalierung.
  </text><text x="520" y="423" fill="#7c8194" font-family="Inter, system-ui, -apple-system, BlinkMacSystemFont, 'Segoe UI', sans-serif" font-size="16" font-weight="400">
    Deep‑Tech, Automatisierung &amp; Advanced Manufacturing Beratung aus der Schweiz.
  </text><circle cx="1080" cy="120" r="10" fill="none" stroke="#00d1ff" stroke-width="2"/><circle cx="1080" cy="120" r="4" fill="#00d1ff"/></svg>