<svg xmlns="http://www.w3.org/2000/svg" width="183.433" height="35.973" viewBox="0 0 183.433 35.973"><path fill="#2b4e5a" d="M16.903 35.973 0 0h6.006l14.54 30.749L35.086 0h6.007l-16.87 35.973Zm23.599 0L57.667 0h6.86l17.166 35.973H75.49l-4.661-9.851H51.366l-4.694 9.851zm12.472-14.08h16.181l-8.074-17.39Zm32.82 14.08V0h6.073v35.973zm17.081 0V0h18.38q5.12 0 8.567 1.194 3.446 1.17 5.153 3.383 1.707 2.19 1.707 5.25 0 2.935-1.379 4.876-1.346 1.94-3.446 3.134-2.1 1.17-4.365 1.816l9.32 16.32h-6.432l-8.665-15.499h-12.768v15.5zm6.072-19.305h10.339q5.35 0 8.271-1.642 2.921-1.667 2.921-4.926 0-3.184-2.625-4.751-2.593-1.592-7.123-1.592h-11.783zm33.294 19.305L159.407 0h6.86l17.166 35.973h-6.204l-4.66-9.851h-19.464l-4.693 9.851zm12.473-14.08h16.18l-8.073-17.39z"/></svg>